<?xml version="1.0" encoding="UTF-8"?>
<svg width="113px" height="113px" viewBox="0 0 113 113" version="1.1" xmlns="http://www.w3.org/2000/svg" xmlns:xlink="http://www.w3.org/1999/xlink">
    <!-- Generator: Sketch 64 (93537) - https://sketch.com -->
    <title>job-search</title>
    <desc>Created with Sketch.</desc>
    <g id="Job-Openings" stroke="none" stroke-width="1" fill="none" fill-rule="evenodd">
        <g id="Job-Openings-Empty" transform="translate(-697.000000, -337.000000)" fill-rule="nonzero">
            <g id="job-search" transform="translate(697.000000, 337.000000)">
                <g id="Group" transform="translate(72.000000, 7.000000)" fill="#00D5AF">
                    <path d="M10.9738039,86.8656862 L3.65793462,86.8656862 C1.63692574,86.8656862 0,85.2460031 0,83.2462826 L0,76.0074754 L14.6317385,76.0074754 L14.6317385,83.2462826 C14.6317385,85.2460031 12.9948127,86.8656862 10.9738039,86.8656862 Z" id="Path"></path>
                    <polygon id="Path" points="21.9476077 0 0 0 0 18.097018 32.9214116 18.097018 32.9214116 10.8582108 21.9476077 10.8582108"></polygon>
                </g>
                <g id="Group" fill="#333333">
                    <path d="M51.0322581,30.983871 C51.0322581,19.9299194 42.0378226,10.9354839 30.983871,10.9354839 C19.9299194,10.9354839 10.9354839,19.9299194 10.9354839,30.983871 C10.9354839,42.0378226 19.9299194,51.0322581 30.983871,51.0322581 C42.0378226,51.0322581 51.0322581,42.0378226 51.0322581,30.983871 Z M14.5806452,30.983871 C14.5806452,21.9384032 21.9402258,14.5806452 30.983871,14.5806452 C40.0275161,14.5806452 47.3870968,21.9384032 47.3870968,30.983871 C47.3870968,40.0293387 40.0275161,47.3870968 30.983871,47.3870968 C21.9402258,47.3870968 14.5806452,40.0293387 14.5806452,30.983871 Z" id="Shape"></path>
                    <path d="M40.0967742,60.5953387 C52.7473065,56.6950161 61.9677419,44.8974516 61.9677419,30.983871 C61.9677419,13.899 48.0687419,0 30.983871,0 C13.899,0 0,13.899 0,30.983871 C0,44.8974516 9.22043548,56.6950161 21.8709677,60.5953387 L21.8709677,65.6129032 L18.2258065,65.6129032 L18.2258065,69.2580645 L21.8709677,69.2580645 L21.8709677,103.887097 C21.8709677,108.911952 25.9590161,113 30.983871,113 C36.0087258,113 40.0967742,108.911952 40.0967742,103.887097 L40.0967742,69.2580645 L43.7419355,69.2580645 L43.7419355,65.6129032 L40.0967742,65.6129032 L40.0967742,60.5953387 Z M3.64516129,30.983871 C3.64516129,15.9093065 15.9093065,3.64516129 30.983871,3.64516129 C46.0584355,3.64516129 58.3225806,15.9093065 58.3225806,30.983871 C58.3225806,46.0584355 46.0584355,58.3225806 30.983871,58.3225806 C15.9093065,58.3225806 3.64516129,46.0584355 3.64516129,30.983871 Z M25.516129,61.4555968 C27.2949677,61.7727258 29.1157258,61.9677419 30.983871,61.9677419 C32.8520161,61.9677419 34.6727742,61.7727258 36.4516129,61.4555968 L36.4516129,65.6129032 L25.516129,65.6129032 L25.516129,61.4555968 Z M36.4516129,103.887097 C36.4516129,106.901645 33.9984194,109.354839 30.983871,109.354839 C27.9693226,109.354839 25.516129,106.901645 25.516129,103.887097 L25.516129,69.2580645 L36.4516129,69.2580645 L36.4516129,103.887097 Z" id="Shape"></path>
                    <path d="M107.532258,65.6129032 L96.5967742,65.6129032 L96.5967742,56.5 C96.5967742,53.4854516 94.1435806,51.0322581 91.1290323,51.0322581 L69.2580645,51.0322581 C66.2435161,51.0322581 63.7903226,53.4854516 63.7903226,56.5 L63.7903226,65.6129032 L52.8548387,65.6129032 C49.8402903,65.6129032 47.3870968,68.0660968 47.3870968,71.0806452 L47.3870968,107.532258 C47.3870968,110.546806 49.8402903,113 52.8548387,113 L107.532258,113 C110.546806,113 113,110.546806 113,107.532258 L113,71.0806452 C113,68.0660968 110.546806,65.6129032 107.532258,65.6129032 Z M67.4354839,56.5 C67.4354839,55.4939355 68.2538226,54.6774194 69.2580645,54.6774194 L91.1290323,54.6774194 C92.1332742,54.6774194 92.9516129,55.4939355 92.9516129,56.5 L92.9516129,65.6129032 L89.3064516,65.6129032 L89.3064516,58.3225806 L71.0806452,58.3225806 L71.0806452,65.6129032 L67.4354839,65.6129032 L67.4354839,56.5 Z M85.6612903,65.6129032 L74.7258065,65.6129032 L74.7258065,61.9677419 L85.6612903,61.9677419 L85.6612903,65.6129032 Z M109.354839,107.532258 C109.354839,108.538323 108.5365,109.354839 107.532258,109.354839 L52.8548387,109.354839 C51.8505968,109.354839 51.0322581,108.538323 51.0322581,107.532258 L51.0322581,71.0806452 C51.0322581,70.0745806 51.8505968,69.2580645 52.8548387,69.2580645 L54.6774194,69.2580645 L54.6774194,85.6612903 C54.6774194,88.6758387 57.1306129,91.1290323 60.1451613,91.1290323 L72.9032258,91.1290323 L72.9032258,87.483871 L60.1451613,87.483871 C59.1409194,87.483871 58.3225806,86.6673548 58.3225806,85.6612903 L58.3225806,69.2580645 L63.7903226,69.2580645 L71.0806452,69.2580645 L89.3064516,69.2580645 L96.5967742,69.2580645 L102.064516,69.2580645 L102.064516,72.9032258 L105.709677,72.9032258 L105.709677,69.2580645 L107.532258,69.2580645 C108.5365,69.2580645 109.354839,70.0745806 109.354839,71.0806452 L109.354839,107.532258 Z" id="Shape"></path>
                    <path d="M102.064516,85.6612903 C102.064516,86.6673548 101.246177,87.483871 100.241935,87.483871 L87.483871,87.483871 L87.483871,91.1290323 L100.241935,91.1290323 C103.256484,91.1290323 105.709677,88.6758387 105.709677,85.6612903 L105.709677,76.5483871 L102.064516,76.5483871 L102.064516,85.6612903 Z" id="Path"></path>
                    <path d="M97.3513226,0 L65.6129032,0 L65.6129032,47.3870968 L113,47.3870968 L113,15.6486774 L97.3513226,0 Z M98.4193548,6.22229032 L106.77771,14.5806452 L98.4193548,14.5806452 L98.4193548,6.22229032 Z M69.2580645,43.7419355 L69.2580645,3.64516129 L94.7741935,3.64516129 L94.7741935,18.2258065 L109.354839,18.2258065 L109.354839,43.7419355 L69.2580645,43.7419355 Z" id="Shape"></path>
                    <rect id="Rectangle" x="72.9032258" y="29.1612903" width="32.8064516" height="3.64516129"></rect>
                    <rect id="Rectangle" x="102.064516" y="36.4516129" width="3.64516129" height="3.64516129"></rect>
                    <rect id="Rectangle" x="72.9032258" y="36.4516129" width="25.516129" height="3.64516129"></rect>
                </g>
            </g>
        </g>
    </g>
</svg>