<svg width="176" height="192" viewBox="0 0 176 192" fill="none" xmlns="http://www.w3.org/2000/svg">
<path opacity="0.38" d="M85.5177 0.877878C134.529 3.51269 136.637 56.2133 131.367 76.7662C126.097 97.3191 166.149 102.062 170.892 135.791C175.635 169.519 144.542 183.748 122.408 184.275C100.274 184.802 82.8828 171.627 79.1939 155.289C75.505 138.952 64.9648 131.047 46.5196 127.885C28.0745 124.723 -5.12689 99.9539 0.670282 67.8067C0.670282 67.8067 2.02761 33.6007 34.1357 10.8906C55.7427 -4.39174 85.5177 0.877878 85.5177 0.877878Z" fill="#E2E7FF"/>
<path d="M53.8137 81.6386C53.8137 81.6386 52.4784 64.612 57.486 53.2606C59.4889 50.59 60.8247 51.5913 60.8247 51.5913C60.8247 51.5913 61.4923 58.6022 59.823 65.2791C58.1536 71.9565 57.1524 84.9768 57.1524 84.9768L53.8137 81.6386Z" fill="#61A27D"/>
<path d="M52.812 80.3034C52.812 80.3034 52.478 72.2907 44.1317 65.2797C35.7854 58.2687 34.1161 58.2687 34.1161 58.2687C34.1161 58.2687 40.793 57.9347 45.467 60.9398C50.141 63.9444 51.8103 72.2907 52.1444 73.6265C52.4785 74.9618 54.4814 80.3039 54.4814 80.3039L52.812 80.3034Z" fill="#578B71"/>
<path d="M58.2269 81.5308C58.2269 81.5308 59.7914 73.6656 69.1178 68.0237C78.4448 62.3823 80.094 62.6395 80.094 62.6395C80.094 62.6395 73.5479 61.2807 68.4669 63.5295C63.3858 65.7783 60.4507 73.768 59.9149 75.0357C59.3795 76.3038 56.5771 81.2732 56.5771 81.2732L58.2269 81.5308Z" fill="#578B71"/>
<path d="M54.4813 80.3033C54.4813 80.3033 45.8009 51.5918 38.1223 44.9144C38.4559 43.9127 47.4703 46.9173 50.1409 54.2623C52.8119 61.6069 53.4796 72.6242 54.4813 75.6293C55.483 78.634 56.8183 81.305 56.8183 81.305" fill="#7CC97D"/>
<path d="M53.8139 81.6386C53.8139 81.6386 57.1526 65.9473 65.8329 60.6057C66.5006 62.6086 56.819 78.9675 57.8202 86.3126C58.8215 93.6571 53.8139 81.6386 53.8139 81.6386Z" fill="#7CC97D"/>
<path d="M49.0471 99.324H61.8861C62.6762 93.9692 63.3399 89.1541 63.4629 87.3143C63.7156 83.5205 62.4372 80.3058 61.8018 78.968H49.1313C48.496 80.3058 47.2176 83.5205 47.4703 87.3143C47.5928 89.1541 48.2565 93.9692 49.0471 99.324Z" fill="#A9A7E7"/>
<path d="M165.959 67.3502H142.412V99.2074H165.959V67.3502Z" fill="#24ADB2"/>
<path d="M163.535 67.3502H139.988V99.2074H163.535V67.3502Z" fill="#26C6DA"/>
<path d="M157.648 64.1183H134.101V99.2075H157.648V64.1183Z" fill="#E1543C"/>
<path d="M155.224 64.1183H128.215V99.2075H155.224V64.1183Z" fill="#FF634D"/>
<path d="M155.224 64.1183H150.607V99.2075H155.224V64.1183Z" fill="#EB594D"/>
<path d="M20.4087 72.8907C20.4087 72.8907 16.7153 74.7374 15.0994 80.0471C13.4834 85.3564 22.2558 99.6694 22.2558 98.9767C22.2558 98.2841 31.0282 94.3596 31.0282 94.3596L26.6423 78.2L20.4087 72.8907Z" fill="#202F7C"/>
<path d="M112.667 100.912L107.789 88.0225H95.5965L100.474 100.912" fill="#4F57A0"/>
<path d="M68.4243 90.577H137.749L138.962 84.0745H69.6366" fill="#E2E7FF"/>
<path d="M75.7717 51.1671L69.6366 84.0745H138.961L144.954 51.9287C145.193 50.6508 144.212 49.4703 142.912 49.4703H77.8139C76.8136 49.4703 75.9549 50.1835 75.7717 51.1671Z" fill="#243FA7"/>
<path d="M109.92 96.264L128.273 82.5864L110.266 81.5475L93.2991 94.7059L109.92 96.264Z" fill="white"/>
<path d="M104.784 91.8203L109.401 89.281C109.401 89.281 113.859 87.4343 113.989 87.4343C114.119 87.4343 114.508 87.8673 114.032 88.776C113.556 89.6851 112.301 89.9016 112.301 89.9016L111.478 92.1955L115.749 91.5896L116.73 91.3589C116.73 91.3589 116.038 93.0904 115.749 93.494C115.461 93.8982 113.845 94.9371 113.845 94.9371C113.845 94.9371 110.786 97.4764 109.689 97.7649C108.593 98.0534 104.784 98.2263 104.784 98.2263L102.36 98.1685L100.109 98.6304C100.109 98.6304 98.9552 96.4953 99.1281 93.494L104.784 91.8203Z" fill="#FF8D68"/>
<path d="M132.139 102.439L145.528 189.7H148.76L139.988 101.977L132.139 102.439Z" fill="#E2E7FF"/>
<path d="M159.379 102.439L172.768 189.7H176L167.228 101.978L159.379 102.439Z" fill="#E2E7FF"/>
<path d="M80.8906 102.439L67.5015 189.7H64.2696L73.042 101.978L80.8906 102.439Z" fill="#C2D3EB"/>
<path d="M53.6509 102.439L40.2618 189.7H37.0298L45.8023 101.977L53.6509 102.439Z" fill="#C2D3EB"/>
<path d="M169.075 101.516H48.5723V105.671H169.075V101.516Z" fill="#A9A7E7"/>
<path d="M171.383 103.363H52.2657C50.9907 103.363 49.9572 102.329 49.9572 101.054C49.9572 99.7791 50.9907 98.7455 52.2657 98.7455H171.383C172.658 98.7455 173.692 99.7791 173.692 101.054C173.692 102.329 172.658 103.363 171.383 103.363Z" fill="#FFC757"/>
<path d="M56.2555 180.928C56.2555 180.928 57.0127 179.074 60.1785 179.404C63.3443 179.733 63.7362 180.32 64.1756 181.874C64.6149 183.427 65.7852 185.066 66.5282 185.393C67.2708 185.72 70.0183 187.402 72.2113 187.659C74.4042 187.915 74.7109 189.232 74.2568 189.86C73.8032 190.488 65.6088 191.373 63.7842 191.22C63.7842 191.22 57.6152 191.4 56.1413 190.988C54.6679 190.576 56.1643 181.539 56.2555 180.928Z" fill="#201360"/>
<path d="M57.0952 167.635L56.1449 182.105C56.1449 182.105 58.4006 182.832 60.1174 184.09C62.6543 185.949 64.7317 183.698 64.7317 183.698L65.3038 174.593L57.0952 167.635Z" fill="#FF8D68"/>
<path d="M75.4666 142.145L66.1171 182.313C66.1171 182.313 61.2693 183.006 55.3824 180.236C55.3824 180.236 60.5766 142.492 60.9229 140.068C61.2693 137.644 74.7739 140.068 75.4666 142.145Z" fill="#202F7C"/>
<path d="M37.5671 38.2247C37.5671 38.2247 41.4054 38.9398 43.9281 44.5925C46.4507 50.2452 45.8438 62.6541 44.5149 64.1976C43.186 65.7411 38.8196 65.4751 32.6845 63.8919C26.202 62.2196 23.6206 55.7671 22.1981 51.4928C19.4732 43.3072 26.1476 34.2541 37.5671 38.2247Z" fill="#FF8D68"/>
<path d="M26.9113 71.309L29.119 60.734C29.119 60.734 34.8015 58.6591 38.68 62.2814L39.9996 63.8915L40.4488 70.6521C40.4488 70.6521 34.4925 72.2603 26.9113 71.309Z" fill="#FF8D68"/>
<path d="M26.7881 136.342C26.7881 136.342 39.1588 139.962 53.8317 139.462C68.5047 138.963 70.4464 134.803 70.9039 130.836C71.3614 126.869 59.9478 124.456 54.9828 123.153C50.0179 121.849 33.0427 116.968 28.452 121.919C23.8618 126.87 22.794 132.958 26.7881 136.342Z" fill="#201360"/>
<path d="M90.5368 180.928C90.5368 180.928 91.2941 179.074 94.4599 179.404C97.6256 179.734 98.0175 180.32 98.4569 181.874C98.8963 183.427 100.066 185.066 100.81 185.393C101.552 185.72 104.3 187.402 106.493 187.659C108.686 187.915 108.992 189.232 108.538 189.86C108.084 190.488 99.8901 191.373 98.0655 191.22C98.0655 191.22 91.8966 191.4 90.4226 190.988C88.9487 190.576 90.4452 181.539 90.5368 180.928Z" fill="#201360"/>
<path d="M86.8934 168.693L90.356 182.774C90.356 182.774 93.126 182.082 94.742 183.467C96.3579 184.852 99.3591 183.929 99.3591 183.929L96.8198 172.848L86.8934 168.693Z" fill="#FF8D68"/>
<path d="M58.2684 121.6C58.961 121.6 82.5073 129.448 87.1245 132.911C91.7416 136.605 99.1288 177.754 99.5902 178.677C100.052 179.6 92.8957 182.14 88.2785 181.447C88.0478 180.524 77.1975 145.839 77.1975 143.53C77.1975 143.53 58.7298 142.607 50.8807 141.221C43.0321 139.836 37.7224 139.605 34.4904 131.064C31.2585 122.523 50.1881 121.83 50.1881 121.83L58.2684 121.6Z" fill="#202F7C"/>
<path d="M98.5509 91.2433C98.5509 91.2433 103.052 91.1277 103.399 91.5896C103.745 92.0515 105.361 96.2067 103.861 97.9378C102.591 98.8611 102.591 98.8612 102.591 98.8612H98.6665L98.5509 91.2433Z" fill="#E2E7FF"/>
<path d="M26.1222 69.7743L27.334 66.658C27.334 66.658 34.6056 64.4072 40.8387 67.1772C42.3969 68.7354 43.2629 71.1596 43.2629 71.1596L26.1222 69.7743Z" fill="#E2E7FF"/>
<path d="M24.5639 70.1207C24.5639 70.1207 25.4873 68.5047 27.1032 68.274C28.7192 68.0433 36.1064 67.1199 40.9542 68.5047C42.8009 69.1973 43.7242 70.1207 43.7242 70.1207C43.7242 70.1207 50.6495 72.4292 52.9581 73.814C55.2667 75.1993 55.9593 85.8183 56.4207 89.281C56.8821 92.7436 55.4974 96.4374 55.4974 96.4374C55.4974 96.4374 61.0379 119.06 61.0379 122.292C61.0379 125.524 59.1912 129.218 52.7274 131.526C46.2635 133.835 28.7192 132.911 22.7168 129.218C20.8701 125.524 18.0996 81.6626 17.6382 77.5073C17.1768 73.3526 24.5639 70.1207 24.5639 70.1207Z" fill="#202F7C"/>
<path d="M49.1493 72.8907C49.1493 72.8907 50.8809 71.8517 55.0362 74.6222C59.1914 77.3922 70.6182 87.7806 72.0035 88.4732C73.3887 89.1658 100.052 90.5511 100.052 90.5511C100.052 90.5511 103.861 95.399 99.7055 99.2079C99.7055 99.2079 73.9657 100.247 69.1179 99.9005C64.27 99.5542 48.1104 90.2048 48.1104 90.2048C48.1104 90.2048 41.5315 80.5085 49.1493 72.8907Z" fill="#202F7C"/>
<path d="M43.5999 88.17C43.5999 88.17 65.1869 99.5033 67.7056 99.8628C70.2243 100.222 79.7584 99.8628 79.7584 99.8628" stroke="#1B2048" stroke-width="0.8263" stroke-miterlimit="10"/>
<path d="M72.742 91.0483C72.742 91.0483 73.4616 95.0061 70.9429 97.3446" stroke="#1B2048" stroke-width="0.8263" stroke-miterlimit="10"/>
<path d="M74.3611 89.9688C74.3611 89.9688 76.5198 93.3868 75.4402 95.905" stroke="#1B2048" stroke-width="0.8263" stroke-miterlimit="10"/>
<path d="M43.4196 83.6725C43.4196 83.6725 41.6204 77.3761 47.9167 73.2385" stroke="#1B2048" stroke-width="0.8263" stroke-miterlimit="10"/>
<path d="M20.2131 77.7361C20.2131 77.7361 18.9537 88.8896 18.9537 94.1063" stroke="#1B2048" stroke-width="0.8263" stroke-miterlimit="10"/>
<path d="M26.6894 70.3602C26.6894 70.3602 34.9646 69.6406 41.8002 70.3602" stroke="#1B2048" stroke-width="0.8263" stroke-miterlimit="10"/>
<path d="M80.8373 142.857C80.8373 142.857 84.7951 141.598 86.2343 135.482" stroke="#1B2048" stroke-width="0.8263" stroke-miterlimit="10"/>
<path d="M83.5359 143.397C83.5359 143.397 85.8744 142.677 86.954 139.439" stroke="#1B2048" stroke-width="0.8263" stroke-miterlimit="10"/>
<path d="M69.1444 150.413L63.2076 180.095" stroke="#1B2048" stroke-width="0.8263" stroke-miterlimit="10"/>
<path d="M43.089 45.7084C43.089 45.7084 43.7817 48.8247 41.0112 50.9026L41.1841 54.3652C41.1841 54.3652 42.223 57.4815 41.5304 57.8278C40.8378 58.1741 40.6649 57.6544 40.6649 57.6544C40.6649 57.6544 38.4141 54.0184 37.7215 53.8455C37.0288 53.6721 39.2796 58.6934 39.2796 58.6934C39.2796 58.6934 37.0288 62.156 32.8736 62.6752L33.7391 61.4634C33.7391 61.4634 31.8347 62.6752 28.8912 62.5023C25.9478 62.3289 23.6971 57.8278 23.6971 57.8278C23.6971 57.8278 24.2163 59.0397 23.6971 59.5594C23.1778 60.0786 20.2344 55.577 20.061 49.8636L19.1955 51.5952C19.1955 51.5952 19.3684 47.6129 20.9271 43.1113C22.4852 38.6097 29.411 35.32 33.2199 35.32C37.0288 35.32 40.8378 35.6663 41.8767 35.32C42.9156 34.9737 42.3959 37.9171 42.3959 37.9171C42.3959 37.9171 42.9152 36.7053 43.0886 35.6663C43.7812 35.1471 44.8201 39.3024 44.4738 40.8605C44.1275 42.4187 44.1275 42.4187 44.1275 42.4187C44.1275 42.4187 45.3393 40.8605 45.5127 39.9945C46.2054 39.8216 46.0325 43.6305 43.089 45.7084Z" fill="#201360"/>
<path d="M40.5768 54.3344C40.5768 54.3344 39.8773 52.0165 37.9572 53.2352C36.0375 54.4539 38.7644 59.9116 40.3701 59.4409C41.9762 58.9701 40.999 55.2156 40.5768 54.3344Z" fill="#FF634D"/>
<path d="M110.843 94.4752L115.749 93.4941L116.73 91.3584" stroke="#E66657" stroke-width="1.2805" stroke-miterlimit="10"/>
<path d="M115.576 93.6092C115.576 93.6092 113.094 95.6871 112.748 95.86C112.402 96.0334 110.843 96.437 110.843 96.437" stroke="#E66657" stroke-width="1.2805" stroke-miterlimit="10"/>
<path d="M39.7995 60.1942C39.7995 60.1942 39.1069 62.6179 43.2622 64.0032" stroke="#E66657" stroke-width="1.2805" stroke-miterlimit="10"/>
<path d="M134.448 78.4312H97.5124L102.129 54.423H139.065L134.448 78.4312Z" fill="#2E60BE"/>
<path d="M85.6436 62.734C85.5114 63.4222 86.0385 64.0605 86.7394 64.0605H126.95C127.485 64.0605 127.945 63.6808 128.046 63.1553L128.637 60.0781H86.1541L85.6436 62.734Z" fill="#26C6F8"/>
<path d="M131.831 36.4466H91.6207C91.0858 36.4466 90.6259 36.8262 90.525 37.3518L86.1542 60.0786H128.637L132.927 37.7736C133.059 37.0848 132.532 36.4466 131.831 36.4466Z" fill="#CAE5FF"/>
<path d="M104.339 64.0776C104.869 62.6174 105.196 61.5736 105.196 61.5736C105.196 61.5736 106.408 55.2342 101.006 56.8604C101.006 56.8604 99.1319 58.2663 98.2497 61.243C97.9759 62.1673 97.6492 63.1548 97.3284 64.0776H104.339Z" fill="#387AB6"/>
<path d="M115.529 64.0776C115.43 60.952 115.236 58.4455 114.898 57.77C113.906 55.9508 109.854 54.2971 109.854 54.2971L104.314 55.124C104.314 55.124 101.999 55.7852 101.255 57.4394C101.005 57.9954 100.4 60.6992 99.754 64.0781L115.529 64.0776Z" fill="#DCE4FF"/>
<path d="M105.26 50.5461C105.26 50.5461 104.925 53.0241 104.188 54.8326C104.188 54.8326 103.987 56.2389 106.934 55.6364C109.881 55.0334 109.479 53.56 109.479 53.56V47.7335L105.26 50.5461Z" fill="#FF8D68"/>
<path d="M101.123 44.4192C101.123 44.4192 101.157 49.9597 102.747 52.6288C103.832 53.7515 107.533 51.9881 109.09 49.6061C110.647 47.224 110.617 43.6404 109.384 41.6453C108.152 39.6502 104.094 40.2503 102.904 40.9395C101.715 41.6282 101.056 43.5331 101.123 44.4192Z" fill="#FF8D68"/>
<path d="M108.6 47.5488C108.6 47.5488 109.645 45.9387 110.344 46.8973C111.043 47.8559 108.622 49.8167 108.437 49.0707C108.252 48.3247 108.6 47.5488 108.6 47.5488Z" fill="#FBA894"/>
<path d="M101.123 44.4192C101.123 44.4192 99.1792 42.7102 101.524 40.5C102.863 39.4954 103.533 40.2321 104.939 39.9642C106.345 39.6962 108.891 39.9642 109.828 41.4376C110.766 42.911 110.431 46.3266 110.163 46.6616C109.895 46.9967 109.091 47.1975 109.091 47.8C109.091 48.403 108.958 48.8718 108.756 48.8718C108.556 48.8718 108.556 47.8671 108.556 47.1304C108.556 46.3937 108.422 44.9874 108.087 43.9827C107.752 42.9781 106.212 43.0452 105.609 43.1789C105.006 43.3127 104.607 44.8556 101.123 44.4192Z" fill="#713336"/>
<path opacity="0.53" d="M108.421 46.0845C108.421 46.0845 108.465 46.0621 108.533 46.0338C108.533 46.0318 108.533 46.0283 108.533 46.0283L108.421 46.0845Z" fill="#505E83"/>
<path d="M108.531 46.0337C108.544 46.1434 108.894 49.3513 107.621 50.2453C106.298 51.1275 106.243 49.9974 105.196 49.8319C104.148 49.6663 103.294 49.7217 102.825 50.4108C102.412 51.1 102.495 51.4032 102.109 51.2102C102.026 51.4307 102.605 52.7811 103.487 53.1397C104.369 53.4978 106.464 52.3956 107.401 51.5688C108.338 50.742 108.917 50.2183 109.082 49.5017C109.248 48.7851 109.165 47.4067 109.358 46.4422C109.468 45.7133 108.802 45.9215 108.531 46.0337ZM103.708 51.9543C102.44 51.6785 102.605 50.6866 103.901 50.2732C103.901 50.2732 105.278 49.6394 105.747 50.6038C105.94 51.2377 104.975 52.2301 103.708 51.9543Z" fill="#713336"/>
<path d="M109.482 53.1396C109.482 53.1396 107.87 55.1656 105.223 55.4135C104.686 55.2067 104.397 54.2143 104.397 54.2143L103.983 54.8345C103.983 54.8345 103.776 56.0747 103.983 56.5709C104.231 56.6121 105.141 55.9919 105.141 55.9919C105.141 55.9919 105.761 56.8604 106.215 57.0255C106.67 57.1906 109.564 55.2479 109.853 54.2966C109.854 54.2971 109.834 53.6148 109.482 53.1396Z" fill="white"/>
<path d="M115.951 64.0776C115.807 60.9966 115.623 58.6414 115.449 58.156C114.788 56.6126 112.307 54.6282 109.854 54.2971C109.854 54.2971 108.932 58.5503 108.026 64.0776H115.951Z" fill="#387AB6"/>
<path d="M101.681 64.0777C102.98 58.5632 103.983 55.2896 103.983 55.2896C103.239 55.3724 101.916 55.9509 101.007 56.8605C100.513 57.848 99.7459 60.6841 98.9538 64.0777H101.681Z" fill="#387AB6"/>
<path d="M115.455 64.0777C115.545 61.128 115.38 58.4006 114.898 57.7702C113.327 56.4471 111.673 56.5299 110.847 58.0185C110.395 58.8321 109.794 61.6707 109.343 64.0782L115.455 64.0777Z" fill="#387AB6"/>
<path d="M105.141 55.9921C104.672 57.9019 104.284 59.8333 103.932 61.7682" stroke="#87B8EB" stroke-width="0.3595" stroke-miterlimit="10"/>
<path d="M135.493 40.8335C139.39 37.3921 140.374 32.1385 137.691 29.0994C135.007 26.0602 129.672 26.3863 125.775 29.8276C121.878 33.269 120.894 38.5226 123.577 41.5617C126.261 44.6009 131.596 44.2749 135.493 40.8335Z" fill="#6787FF"/>
<path d="M140.633 44.2555C140.32 45.5119 139.047 46.5308 137.791 46.5308C136.534 46.5308 135.77 45.5119 136.083 44.2555C136.396 42.9991 137.669 41.9802 138.925 41.9802C140.182 41.9802 140.946 42.9986 140.633 44.2555Z" fill="#6787FF"/>
<path d="M128.488 39.5497C128.226 39.5497 127.99 39.4498 127.84 39.2504L125.691 36.3883C125.391 35.9891 125.553 35.342 126.052 34.9428C126.55 34.5436 127.197 34.5436 127.497 34.9428L129.103 37.0819L134.841 32.4897C135.339 32.0905 135.987 32.0905 136.286 32.4897C136.586 32.8889 136.425 33.536 135.926 33.9352L129.286 39.2504C129.035 39.4498 128.749 39.5497 128.488 39.5497Z" fill="white"/>
<path d="M69.5439 21.467H66.8248C66.142 21.467 65.7266 20.9135 65.8971 20.2312L66.575 17.5121C66.7455 16.8293 67.4366 16.2762 68.1189 16.2762H70.838C71.5208 16.2762 71.9362 16.8298 71.7658 17.5121L71.0878 20.2312C70.9179 20.914 70.2267 21.467 69.5439 21.467Z" fill="#BFD9FF"/>
<path d="M67.5573 29.4391H64.8382C64.1559 29.4391 63.74 28.8855 63.9105 28.2032L64.5884 25.4841C64.7589 24.8018 65.45 24.2483 66.1323 24.2483H68.8514C69.5338 24.2483 69.9496 24.8018 69.7792 25.4841L69.1012 28.2032C68.9313 28.8855 68.2396 29.4391 67.5573 29.4391Z" stroke="#A9A7E7" stroke-width="0.75" stroke-miterlimit="10"/>
<path d="M76.2087 29.4391H73.4896C72.8068 29.4391 72.3914 28.8855 72.5619 28.2032L73.2398 25.4841C73.4103 24.8018 74.1014 24.2483 74.7837 24.2483H77.5028C78.1856 24.2483 78.601 24.8018 78.4306 25.4841L77.7526 28.2032C77.5827 28.8855 76.8915 29.4391 76.2087 29.4391Z" fill="#26C6DA"/>
<path d="M84.8601 29.4391H82.141C81.4582 29.4391 81.0428 28.8855 81.2133 28.2032L81.8912 25.4841C82.0612 24.8018 82.7528 24.2483 83.4352 24.2483H86.1542C86.8366 24.2483 87.2524 24.8018 87.082 25.4841L86.4041 28.2032C86.2341 28.8855 85.5429 29.4391 84.8601 29.4391Z" fill="white"/>
<path d="M65.5233 37.5962H62.8043C62.1219 37.5962 61.7061 37.0426 61.8765 36.3603L62.5545 33.6412C62.7249 32.9584 63.4161 32.4054 64.0984 32.4054H66.8175C67.5003 32.4054 67.9157 32.9589 67.7452 33.6412L67.0673 36.3603C66.8973 37.0426 66.2057 37.5962 65.5233 37.5962Z" fill="#26C6DA"/>
<path d="M63.3509 46.3093H60.6319C59.9491 46.3093 59.5337 45.7558 59.7041 45.0734L60.3821 42.3544C60.552 41.672 61.2437 41.1185 61.926 41.1185H64.6451C65.3274 41.1185 65.7433 41.672 65.5728 42.3544L64.8949 45.0734C64.7244 45.7563 64.0333 46.3093 63.3509 46.3093Z" fill="white"/>
<path d="M74.1747 37.5962H71.4557C70.7728 37.5962 70.3575 37.0426 70.5279 36.3603L71.2059 33.6412C71.3758 32.9584 72.0675 32.4054 72.7498 32.4054H75.4689C76.1512 32.4054 76.5671 32.9589 76.3966 33.6412L75.7187 36.3603C75.5487 37.0426 74.8576 37.5962 74.1747 37.5962Z" fill="#EDF4FF"/>
<path d="M70.3845 52.7982H67.6654C66.9826 52.7982 66.5672 52.2447 66.7377 51.5623L67.4156 48.8433C67.5861 48.1609 68.2772 47.6074 68.9596 47.6074H71.6787C72.3615 47.6074 72.7769 48.1609 72.6064 48.8433L71.9285 51.5623C71.7585 52.2447 71.0673 52.7982 70.3845 52.7982Z" stroke="#A9A7E7" stroke-width="0.75" stroke-miterlimit="10"/>
<path d="M152.183 42.2355H151.185C150.934 42.2355 150.782 42.0322 150.845 41.7819L151.094 40.7836C151.156 40.5328 151.41 40.33 151.66 40.33H152.659C152.909 40.33 153.062 40.5333 152.999 40.7836L152.75 41.7819C152.688 42.0327 152.434 42.2355 152.183 42.2355Z" fill="#CAE5FF"/>
<path d="M151.454 45.1622H150.456C150.205 45.1622 150.053 44.9589 150.115 44.7086L150.364 43.7103C150.427 43.4595 150.681 43.2567 150.931 43.2567H151.929C152.18 43.2567 152.332 43.46 152.27 43.7103L152.021 44.7086C151.959 44.9589 151.705 45.1622 151.454 45.1622Z" fill="#CAE5FF"/>
<path d="M154.63 45.1622H153.631C153.381 45.1622 153.228 44.9589 153.291 44.7086L153.54 43.7103C153.603 43.4595 153.856 43.2567 154.107 43.2567H155.105C155.356 43.2567 155.508 43.46 155.445 43.7103L155.196 44.7086C155.134 44.9589 154.881 45.1622 154.63 45.1622Z" fill="#CAE5FF"/>
<path d="M157.806 45.1622H156.807C156.556 45.1622 156.404 44.9589 156.467 44.7086L156.716 43.7103C156.778 43.4595 157.032 43.2567 157.282 43.2567H158.281C158.532 43.2567 158.684 43.46 158.621 43.7103L158.372 44.7086C158.31 44.9589 158.056 45.1622 157.806 45.1622Z" fill="#CAE5FF"/>
<path d="M150.708 48.1565H149.709C149.458 48.1565 149.306 47.9533 149.369 47.703L149.618 46.7047C149.68 46.4539 149.934 46.2511 150.184 46.2511H151.183C151.433 46.2511 151.586 46.4544 151.523 46.7047L151.274 47.703C151.212 47.9533 150.958 48.1565 150.708 48.1565Z" fill="#CAE5FF"/>
<path d="M149.91 51.3552H148.911C148.661 51.3552 148.508 51.1519 148.571 50.9016L148.82 49.9034C148.883 49.6526 149.136 49.4498 149.387 49.4498H150.385C150.636 49.4498 150.788 49.653 150.725 49.9034L150.476 50.9016C150.414 51.1524 150.16 51.3552 149.91 51.3552Z" fill="#CAE5FF"/>
<path d="M153.883 48.1565H152.885C152.634 48.1565 152.482 47.9533 152.545 47.703L152.794 46.7047C152.856 46.4539 153.11 46.2511 153.36 46.2511H154.359C154.609 46.2511 154.762 46.4544 154.699 46.7047L154.45 47.703C154.388 47.9533 154.134 48.1565 153.883 48.1565Z" fill="#CAE5FF"/>
<path d="M152.492 53.7372H151.494C151.243 53.7372 151.09 53.5339 151.153 53.2836L151.402 52.2853C151.465 52.0345 151.718 51.8317 151.969 51.8317H152.967C153.218 51.8317 153.37 52.035 153.307 52.2853L153.059 53.2836C152.996 53.5344 152.743 53.7372 152.492 53.7372Z" fill="#CAE5FF"/>
<path opacity="0.9" d="M151.864 80.0564H119.046C118.702 80.0564 118.449 79.7307 118.537 79.3966L121.6 67.6259C121.66 67.3938 121.87 67.2316 122.11 67.2316H154.928C155.273 67.2316 155.525 67.5574 155.438 67.8914L152.374 79.6621C152.314 79.8943 152.104 80.0564 151.864 80.0564Z" fill="#BFD9FF"/>
<path d="M123.548 69.7493H134.967" stroke="#A9C2FF" stroke-width="1.076" stroke-miterlimit="10" stroke-linecap="round" stroke-linejoin="round"/>
<path d="M122.669 75.0199H134.088" stroke="#A9C2FF" stroke-width="1.076" stroke-miterlimit="10" stroke-linecap="round" stroke-linejoin="round"/>
<path d="M127.471 73.0287H138.891" stroke="#A9C2FF" stroke-width="1.076" stroke-miterlimit="10" stroke-linecap="round" stroke-linejoin="round"/>
<path d="M123.255 71.5063H126.68" stroke="#A9C2FF" stroke-width="1.076" stroke-miterlimit="10" stroke-linecap="round" stroke-linejoin="round"/>
<path d="M122.785 73.0287H126.211" stroke="#A9C2FF" stroke-width="1.076" stroke-miterlimit="10" stroke-linecap="round" stroke-linejoin="round"/>
<path d="M136.783 69.7493H140.853" stroke="#A9C2FF" stroke-width="1.076" stroke-miterlimit="10" stroke-linecap="round" stroke-linejoin="round"/>
<path d="M138.776 77.4926H132.698C132.667 77.4926 132.645 77.4637 132.653 77.4338L132.925 76.389C132.93 76.3684 132.949 76.3537 132.97 76.3537H139.048C139.079 76.3537 139.101 76.3826 139.093 76.4125L138.822 77.4578C138.816 77.4784 138.798 77.4926 138.776 77.4926Z" stroke="#84AEE5" stroke-width="0.3587" stroke-miterlimit="10"/>
<path d="M131.222 77.4926H125.144C125.114 77.4926 125.092 77.4637 125.099 77.4338L125.371 76.389C125.377 76.3684 125.395 76.3537 125.416 76.3537H131.494C131.525 76.3537 131.547 76.3826 131.539 76.4125L131.267 77.4578C131.262 77.4784 131.243 77.4926 131.222 77.4926Z" stroke="#84AEE5" stroke-width="0.3587" stroke-miterlimit="10"/>
<path d="M149.459 75.9776C149.147 75.5627 147.883 75.2609 147.534 74.846C147.356 74.6339 147.356 74.2401 147.398 73.9056C147.523 73.8262 147.626 73.7469 147.687 73.6729C147.792 73.5196 147.911 73.3055 148.029 73.0704C148.065 73.1057 148.113 73.1326 148.175 73.1311C148.341 73.1262 148.972 72.2661 148.81 72.0672C148.717 71.9531 148.566 72.052 148.454 72.1578C148.621 71.7748 148.739 71.4814 148.739 71.4814H148.733C148.748 71.4329 148.763 71.3844 148.775 71.3354C149.026 70.3303 148.414 69.5152 147.409 69.5152C146.404 69.5152 145.386 70.3303 145.135 71.3354C145.123 71.3849 145.113 71.4334 145.105 71.4814H145.099C145.099 71.4814 145.07 71.7748 145.047 72.1578C144.987 72.0525 144.886 71.9536 144.737 72.0672C144.475 72.2666 144.677 73.1262 144.841 73.1311C144.902 73.1331 144.963 73.1057 145.016 73.0704C145.018 73.3055 145.029 73.5196 145.057 73.6729C145.088 73.763 145.176 73.862 145.29 73.9585C145.165 74.2813 144.975 74.6452 144.705 74.846C144.149 75.2609 142.735 75.5627 142.216 75.9776C141.75 76.3508 141.334 77.4407 141.255 77.6562H149.584C149.611 77.4407 149.739 76.3508 149.459 75.9776Z" fill="#387AB6"/>
<path d="M107.366 75.8586H80.4365C78.0726 75.8586 76.6339 73.9419 77.2232 71.578C77.8125 69.214 80.2068 67.2973 82.5712 67.2973H109.5C111.864 67.2973 113.303 69.214 112.714 71.578C112.124 73.9419 109.73 75.8586 107.366 75.8586Z" fill="white"/>
<path d="M83.2931 72.6957L82.1385 73.2326C82.0298 73.283 81.9377 73.2017 81.9828 73.0944L82.4613 71.9575C82.4795 71.9149 82.476 71.8718 82.4525 71.8414L81.8275 71.0362C81.7687 70.9602 81.8446 70.8285 81.9558 70.8128L83.1388 70.6467C83.1829 70.6404 83.2264 70.6139 83.2553 70.5752L84.0234 69.5412C84.0959 69.4437 84.2345 69.4437 84.2585 69.5412L84.5113 70.5752C84.5206 70.6139 84.551 70.6409 84.5921 70.6467L85.6923 70.8128C85.7956 70.8285 85.8059 70.9602 85.7089 71.0362L84.6822 71.8414C84.644 71.8713 84.619 71.9149 84.6156 71.9575L84.5274 73.0944C84.5191 73.2012 84.3864 73.283 84.3031 73.2326L83.416 72.6957C83.3817 72.6756 83.3362 72.6756 83.2931 72.6957Z" fill="#FFA402"/>
<path d="M88.9786 72.6957L87.824 73.2326C87.7153 73.283 87.6232 73.2017 87.6683 73.0944L88.1468 71.9575C88.1649 71.9149 88.1615 71.8718 88.138 71.8414L87.513 71.0362C87.4542 70.9602 87.5301 70.8285 87.6413 70.8128L88.8243 70.6467C88.8683 70.6404 88.9119 70.6139 88.9408 70.5752L89.7089 69.5412C89.7814 69.4437 89.92 69.4437 89.944 69.5412L90.1968 70.5752C90.2061 70.6139 90.2364 70.6409 90.2776 70.6467L91.3778 70.8128C91.4811 70.8285 91.4914 70.9602 91.3949 71.0362L90.3682 71.8414C90.33 71.8713 90.305 71.9149 90.3016 71.9575L90.2129 73.0944C90.2046 73.2012 90.0719 73.283 89.9886 73.2326L89.1015 72.6957C89.0672 72.6756 89.0217 72.6756 88.9786 72.6957Z" fill="#FFA402"/>
<path d="M94.6644 72.6957L93.5099 73.2326C93.4011 73.283 93.309 73.2017 93.3541 73.0944L93.8327 71.9575C93.8503 71.9149 93.8474 71.8718 93.8239 71.8414L93.1988 71.0362C93.14 70.9602 93.216 70.8285 93.3272 70.8128L94.5101 70.6467C94.5542 70.6404 94.5978 70.6139 94.6267 70.5752L95.3947 69.5412C95.4672 69.4437 95.6059 69.4437 95.6294 69.5412L95.8821 70.5752C95.8914 70.6139 95.9218 70.6409 95.963 70.6467L97.0631 70.8128C97.1665 70.8285 97.1768 70.9602 97.0798 71.0362L96.0531 71.8414C96.0149 71.8713 95.9899 71.9149 95.9865 71.9575L95.8978 73.0944C95.8895 73.2012 95.7567 73.283 95.6735 73.2326L94.7864 72.6957C94.7531 72.6756 94.7075 72.6756 94.6644 72.6957Z" fill="#FFA402"/>
<path d="M100.35 72.6957L99.1953 73.2326C99.0866 73.283 98.9945 73.2017 99.0395 73.0944L99.5181 71.9575C99.5362 71.9149 99.5328 71.8718 99.5093 71.8414L98.8843 71.0362C98.8255 70.9602 98.9014 70.8285 99.0126 70.8128L100.195 70.6467C100.239 70.6404 100.283 70.6139 100.312 70.5752L101.08 69.5412C101.153 69.4437 101.291 69.4437 101.315 69.5412L101.568 70.5752C101.577 70.6139 101.607 70.6409 101.648 70.6467L102.749 70.8128C102.852 70.8285 102.862 70.9602 102.766 71.0362L101.739 71.8414C101.701 71.8713 101.676 71.9149 101.672 71.9575L101.584 73.0944C101.575 73.2012 101.443 73.283 101.359 73.2326L100.472 72.6957C100.439 72.6756 100.393 72.6756 100.35 72.6957Z" fill="#FFA402"/>
<path d="M106.035 72.6957L104.881 73.2326C104.772 73.283 104.68 73.2017 104.725 73.0944L105.204 71.9575C105.221 71.9149 105.218 71.8718 105.195 71.8414L104.57 71.0362C104.511 70.9602 104.587 70.8285 104.698 70.8128L105.88 70.6467C105.925 70.6404 105.968 70.6139 105.997 70.5752L106.765 69.5412C106.838 69.4437 106.976 69.4437 107 69.5412L107.253 70.5752C107.262 70.6139 107.293 70.6409 107.334 70.6467L108.434 70.8128C108.537 70.8285 108.548 70.9602 108.451 71.0362L107.424 71.8414C107.386 71.8713 107.361 71.9149 107.357 71.9575L107.269 73.0944C107.26 73.2012 107.128 73.283 107.044 73.2326L106.157 72.6957C106.124 72.6756 106.079 72.6756 106.035 72.6957Z" fill="#C2D4D9"/>
<path d="M41.1488 59.3419C42.3784 59.3419 43.3751 57.9526 43.3751 56.2388C43.3751 54.525 42.3784 53.1357 41.1488 53.1357C39.9193 53.1357 38.9225 54.525 38.9225 56.2388C38.9225 57.9526 39.9193 59.3419 41.1488 59.3419Z" fill="#202F7C"/>
<path d="M41.4852 56.5088C41.4852 56.5088 47.6914 63.3895 47.6914 64.4691C47.6914 65.5482 45.6674 65.4135 45.6674 65.4135" stroke="#202F7C" stroke-width="1.1018" stroke-miterlimit="10"/>
<path d="M46.1399 65.4134C46.1399 65.8606 45.7774 66.2231 45.3302 66.2231C44.883 66.2231 44.5205 65.8606 44.5205 65.4134C44.5205 64.9662 44.883 64.6037 45.3302 64.6037C45.7774 64.6037 46.1399 64.9662 46.1399 65.4134Z" fill="#202F7C"/>
<path d="M30.4509 145.954C32.6552 149.757 39.5701 152.533 47.7646 152.533C55.959 152.533 62.8739 149.757 65.0782 145.954H30.4509Z" fill="#4F57A0"/>
<path d="M77.1975 126.448L73.0422 145.608H70.5029L72.8115 126.909L77.1975 126.448Z" fill="#A9A7E7"/>
<path d="M84.8154 128.063H47.6185V123.446H81.1216C83.1617 123.446 84.8149 125.1 84.8149 127.14L84.8154 128.063Z" fill="#7A82CC"/>
<path d="M17.1769 143.53L8.17429 100.233C7.81671 98.5134 9.12995 96.8989 10.8865 96.8989H40.6767C42.3176 96.8989 43.7327 98.0505 44.0668 99.6566L53.1889 143.53" fill="#A9A7E7"/>
<path d="M78.3557 148.28H21.7839C19.875 148.28 18.1949 147.02 17.6605 145.187L17.1775 143.531H78.3561V148.28H78.3557Z" fill="#A9A7E7"/>
<path d="M50.5342 150.456H46.0327V190.623H50.5342V150.456Z" fill="#E2E7FF"/>
<path d="M50.5342 157.901L46.0327 161.537V150.456H50.5342V157.901Z" fill="#4F57A0"/>
<path d="M50.3961 184.637H48.7497H48.3383H46.6919L29.8172 191.337H67.2708L50.3961 184.637Z" fill="#E2E7FF"/>
<path d="M12.1418 99.8608H38.919" stroke="#4F57A0" stroke-miterlimit="10"/>
<path d="M41.6956 102.963L46.2672 125.985" stroke="#4F57A0" stroke-miterlimit="10"/>
<path d="M47.0839 130.067L48.0636 136.761" stroke="#4F57A0" stroke-miterlimit="10"/>
</svg>
