<?xml version="1.0" encoding="UTF-8"?>
<svg width="224px" height="161px" viewBox="0 0 224 161" version="1.1" xmlns="http://www.w3.org/2000/svg" xmlns:xlink="http://www.w3.org/1999/xlink">
    <title>Active Support-rafiki</title>
    <g id="For-Development" stroke="none" stroke-width="1" fill="none" fill-rule="evenodd">
        <g id="overview-wpjo-FINAL-Copy" transform="translate(-1123.000000, -406.000000)" fill-rule="nonzero">
            <g id="Group-12" transform="translate(777.000000, 356.000000)">
                <g id="Active-Support-rafiki" transform="translate(346.000000, 50.000000)">
                    <g id="freepik--background-complete--inject-2" transform="translate(0.000000, 5.175121)">
                        <rect id="Rectangle" fill="#E6E6E6" transform="translate(144.691373, 52.387054) rotate(180.000000) translate(-144.691373, -52.387054) " x="66.1016888" y="0" width="157.179368" height="104.774108"></rect>
                        <rect id="Rectangle" fill="#F5F5F5" transform="translate(142.255903, 52.387054) rotate(180.000000) translate(-142.255903, -52.387054) " x="63.6662193" y="0" width="157.179368" height="104.774108"></rect>
                        <polygon id="Rectangle" fill="#FFFFFF" transform="translate(142.252511, 52.380253) rotate(90.000000) translate(-142.252511, -52.380253) " points="94.7821625 -21.8439021 189.722859 -21.8439021 189.722859 126.604409 94.7821625 126.604409"></polygon>
                        <polygon id="Rectangle" fill="#E6E6E6" transform="translate(68.954377, 52.387054) rotate(90.000000) translate(-68.954377, -52.387054) " points="21.4840281 51.4678168 116.424725 51.4678168 116.424725 53.306291 21.4840281 53.306291"></polygon>
                        <rect id="Rectangle" fill="#F5F5F5" transform="translate(142.255903, 73.638374) rotate(180.000000) translate(-142.255903, -73.638374) " x="65.4707733" y="70.3367687" width="153.570259" height="6.60321014"></rect>
                        <path d="M198.241173,155.492894 L137.68007,155.492894 C137.372839,155.492894 137.123779,155.243233 137.123779,154.93526 L137.123779,115.227593 C137.123779,114.91962 137.372839,114.66984 137.68007,114.66984 L148.860164,114.66984 C148.980069,114.667418 149.097278,114.705783 149.192581,114.778765 C150.854517,115.996658 152.697496,116.94447 154.653732,117.58734 C157.012534,118.37023 159.482202,118.765229 161.966924,118.757013 L173.947535,118.757013 C178.530447,118.837715 183.019615,117.451263 186.762582,114.799167 C186.855801,114.727164 186.970543,114.688825 187.088216,114.69036 L198.275094,114.69036 C198.582325,114.69036 198.831386,114.940022 198.831386,115.247995 L198.831386,154.93526 C198.831386,155.089238 198.768429,155.236481 198.656647,155.342093 C198.544866,155.447705 198.394495,155.502284 198.241173,155.492894 L198.241173,155.492894 Z M138.236361,154.377625 L197.684882,154.377625 L197.684882,115.805629 L187.237464,115.805629 C183.342695,118.526509 178.694346,119.953638 173.947535,119.885883 L161.966924,119.885883 C159.361984,119.894239 156.772974,119.478538 154.300962,118.655006 C152.294503,117.994981 150.400297,117.031831 148.683779,115.798829 L138.236361,115.798829 L138.236361,154.377625 Z" id="Shape" fill="#E6E6E6"></path>
                        <path d="M133.168685,155.492894 L72.6007968,155.492894 C72.2935657,155.492894 72.0445057,155.243233 72.0445057,154.93526 L72.0445057,115.227593 C72.0445057,114.91962 72.2935657,114.66984 72.6007968,114.66984 L83.1771115,114.66984 C83.2970163,114.667418 83.4142258,114.705783 83.5095293,114.778765 C85.1595803,115.995919 86.9912839,116.94382 88.9367594,117.58734 C91.2955613,118.37023 93.7652295,118.765229 96.2499519,118.757013 L108.230562,118.757013 C112.797882,118.824421 117.267772,117.430906 120.991337,114.778765 C121.087595,114.707621 121.204162,114.66984 121.323755,114.66984 L133.168685,114.66984 C133.316779,114.668114 133.459345,114.726273 133.564071,114.831252 C133.668798,114.936231 133.726816,115.079142 133.725349,115.227593 L133.725349,154.914858 C133.730505,155.066254 133.674346,155.213389 133.569416,155.322421 C133.464486,155.431453 133.319817,155.492894 133.168685,155.492894 L133.168685,155.492894 Z M73.1638719,154.377625 L132.612394,154.377625 L132.612394,115.805629 L121.540844,115.805629 C117.650664,118.525453 113.00694,119.952619 108.264483,119.885883 L96.2838721,119.885883 C93.6789321,119.894239 91.0899214,119.478538 88.6179096,118.655006 C86.6075997,117.999211 84.7105328,117.035771 82.9939424,115.798829 L73.1570879,115.798829 L73.1638719,154.377625 Z" id="Shape" fill="#E6E6E6"></path>
                        <path d="M68.0894118,155.492894 L7.52830802,155.492894 C7.22107693,155.492894 6.97197447,155.243233 6.97197447,154.93526 L6.97197447,115.227593 C6.97017704,115.079142 7.0281951,114.936231 7.13292142,114.831252 C7.23764773,114.726273 7.38021407,114.668114 7.52830802,114.66984 L18.1046227,114.66984 C18.2222952,114.668423 18.3370374,114.706763 18.4302565,114.778765 C20.0817989,115.993508 21.9131078,116.941205 23.8574866,117.58734 C26.2186178,118.370256 28.6905212,118.765246 31.1774631,118.757013 L43.1580736,118.757013 C47.7294656,118.823533 52.2034011,117.430239 55.9324164,114.778765 C56.0277199,114.705783 56.1449294,114.667418 56.2648342,114.66984 L68.0554916,114.66984 C68.3627227,114.66984 68.6122004,114.91962 68.6122004,115.227593 L68.6122004,154.914858 C68.6233988,155.217857 68.3913545,155.474629 68.0894118,155.492894 L68.0894118,155.492894 Z M8.0845991,154.377625 L67.5331207,154.377625 L67.5331207,115.805629 L56.5090596,115.805629 C52.616382,118.525564 47.9704833,119.952669 43.2259139,119.885883 L31.2113833,119.885883 C28.6063589,119.895325 26.0171743,119.479596 23.5454208,118.655006 C21.5350692,117.999312 19.6379873,117.035864 17.9214536,115.798829 L8.0845991,115.798829 L8.0845991,154.377625 Z" id="Shape" fill="#E6E6E6"></path>
                        <path d="M42.2218764,116.096811 L36.7335899,116.096811 C36.7742942,112.288574 36.7335899,102.618374 36.3468998,80.4693981 C35.668496,40.346906 34.399881,37.8715523 34.399881,37.8715523 L40.9057731,57.6879831 C42.4505622,62.3483943 43.3499251,67.1992936 43.5786839,72.1048786 C44.2977919,87.5554382 41.5841768,99.8914044 42.2218764,116.096811 Z" id="Path" fill="#E6E6E6"></path>
                        <path d="M46.3940595,51.7104118 C53.7140361,40.6053221 68.3268531,34.8113622 83.265304,29.3574234 C89.1267125,27.2152904 72.6686372,53.7845407 60.7015948,65.8348891 C51.4074633,75.1922703 42.3846933,74.9814572 39.7185665,84.1960296 C39.2029796,73.4921647 40.0849045,61.2786061 46.3940595,51.7104118 Z" id="Path" fill="#E6E6E6"></path>
                        <path d="M38.008989,44.5835692 C32.2696932,31.5947624 17.7722048,14.7501162 1.47694646,2.88337909 C-4.92040101,-1.77491024 10.8660545,38.2455755 21.9986602,54.6073918 C30.6686603,67.3649842 38.7552332,75.1310665 40.0170642,84.2300317 C45.4849985,72.8461246 43.7415008,57.5655755 38.008989,44.5835692 Z" id="Path" fill="#E6E6E6"></path>
                        <path d="M38.551712,128.106357 L38.551712,128.106357 C44.9930345,128.106021 50.3147288,123.066843 50.6815713,116.620444 L51.7602333,105.61056 L25.3431908,105.61056 L26.4150687,116.620444 C26.7853739,123.067918 32.1091208,128.106357 38.551712,128.106357 L38.551712,128.106357 Z" id="Path" fill="#F0F0F0"></path>
                        <polygon id="Path" fill="#F0F0F0" points="23.6336133 105.671763 53.4698107 105.671763 54.3245995 101.761521 22.7788246 101.761521"></polygon>
                        <polygon id="Path" fill="#F0F0F0" points="25.1057495 112.37698 51.9976746 112.37698 52.7710549 108.466737 24.3323692 108.466737"></polygon>
                    </g>
                    <g id="freepik--Character--inject-2" transform="translate(33.000000, 38.000000)">
                        <path d="M157.402969,118.305779 L28.98854,118.305779 C28.1795054,118.311754 27.404865,117.978393 26.8523728,117.386413 C26.2998807,116.794432 26.0199692,115.99787 26.080482,115.189792 L31.3690898,31.1348553 C31.5078592,29.3991781 32.9380061,28.0517008 34.6761603,28.0188687 L163.083826,28.0188687 C163.892861,28.0128934 164.667501,28.3462547 165.219993,28.9382351 C165.772486,29.5302154 166.052397,30.326778 165.991884,31.1348553 L160.703277,115.189792 C160.564779,116.922937 159.138513,118.269512 157.402969,118.305779 Z" id="Path" fill="#263238"></path>
                        <path d="M157.402969,118.305779 L28.98854,118.305779 C28.1795054,118.311754 27.404865,117.978393 26.8523728,117.386413 C26.2998807,116.794432 26.0199692,115.99787 26.080482,115.189792 L31.3690898,31.1348553 C31.5078592,29.3991781 32.9380061,28.0517008 34.6761603,28.0188687 L163.083826,28.0188687 C163.892861,28.0128934 164.667501,28.3462547 165.219993,28.9382351 C165.772486,29.5302154 166.052397,30.326778 165.991884,31.1348553 L160.703277,115.189792 C160.564779,116.922937 159.138513,118.269512 157.402969,118.305779 Z" id="Path" fill="#000000" opacity="0.6"></path>
                        <path d="M156.442634,118.305838 L28.0349675,118.305838 C27.2247615,118.31366 26.448314,117.981131 25.8943251,117.388924 C25.3403363,116.796717 25.0595285,115.999055 25.1201466,115.189792 L30.4087543,31.1348553 C30.5475237,29.3991781 31.9776707,28.0517008 33.7158249,28.0188044 L162.123491,28.0188044 C162.933177,28.0108231 163.709072,28.3435528 164.262021,28.9360228 C164.81497,29.5284928 165.094168,30.3262668 165.031549,31.1348553 L159.742941,115.189792 C159.604444,116.922937 158.178177,118.269512 156.442634,118.305838 Z" id="Path" fill="#263238"></path>
                        <path d="M156.280323,119.375944 L3.48554802,119.375944 C2.04994583,119.362955 0.734570998,120.177153 0.104085278,121.469019 C-0.0550561581,121.803214 -0.030431427,122.196057 0.169192843,122.507691 C0.368817113,122.819326 0.715080264,123.005478 1.08470947,122.999877 L158.647347,122.999877 C159.016976,123.005478 159.36324,122.819326 159.562864,122.507691 C159.762488,122.196057 159.787113,121.803214 159.627971,121.469019 C159.005307,120.185935 157.704672,119.372728 156.280323,119.375944 Z" id="Path" fill="#263238"></path>
                        <path d="M156.280323,119.375922 L134.551044,119.375922 C133.12623,119.371093 131.824797,120.184798 131.203396,121.469019 C131.04481,121.802119 131.068747,122.193552 131.266734,122.504778 C131.464721,122.816003 131.808825,123.003111 132.177257,122.999877 L158.647347,122.999877 C159.016976,123.005478 159.36324,122.819326 159.562864,122.507691 C159.762488,122.196057 159.787113,121.803214 159.627971,121.469019 C159.005307,120.185935 157.704672,119.372728 156.280323,119.375922 Z" id="Path" fill="#000000" opacity="0.6"></path>
                        <path d="M142.808576,122.017689 L137.195348,122.017689 C136.925333,122.013984 136.708417,121.793679 136.708417,121.523209 L136.708417,121.523209 C136.708417,121.252738 136.925333,121.032433 137.195348,121.028728 L142.808576,121.028728 C143.081235,121.028728 143.302269,121.250115 143.302269,121.523209 L143.302269,121.523209 C143.302269,121.654353 143.250255,121.780126 143.15767,121.872859 C143.065084,121.965593 142.939511,122.017689 142.808576,122.017689 L142.808576,122.017689 Z" id="Path" fill="#00D5AF"></path>
                        <path d="M70.6278721,122.017689 L65.0214069,122.017689 C64.7487475,122.017689 64.5277134,121.796303 64.5277134,121.523209 L64.5277134,121.523209 C64.5277134,121.392064 64.5797274,121.266291 64.6723129,121.173558 C64.7648984,121.080825 64.8904712,121.028728 65.0214069,121.028728 L70.6278721,121.028728 C70.9005316,121.028728 71.1215657,121.250115 71.1215657,121.523209 L71.1215657,121.523209 C71.1215657,121.654353 71.0695517,121.780126 70.9769662,121.872859 C70.8843807,121.965593 70.7588078,122.017689 70.6278721,122.017689 L70.6278721,122.017689 Z" id="Path" fill="#FFFFFF" opacity="0.7"></path>
                        <rect id="Rectangle" fill="#00D5AF" x="144.539885" y="121.028728" width="4.48381959" height="1" rx="0.5"></rect>
                        <path d="M28.0146787,112.155171 L32.9245626,34.1694763 C32.9769929,33.4951574 33.5342874,32.972228 34.2095185,32.9636264 L161.007608,32.9636264 C161.321783,32.9589605 161.623418,33.0870548 161.838406,33.3165689 C162.053394,33.546083 162.161809,33.8557449 162.137017,34.1694763 L157.233896,112.155171 C157.178142,112.830559 156.618742,113.352716 155.942177,113.360929 L29.1508502,113.360929 C28.8367934,113.363459 28.5358519,113.234929 28.3202813,113.006163 C28.1047107,112.777397 27.9939812,112.469055 28.0146787,112.155171 L28.0146787,112.155171 Z" id="Path" fill="#FFFFFF"></path>
                        <path d="M100.148042,30.5590902 L57.9135722,110.963128 L26.7567746,110.963128 C26.4408098,110.967787 26.1374614,110.838978 25.921207,110.608197 C25.7049525,110.377415 25.5958199,110.066035 25.6206031,109.750505 L30.530487,31.7715838 C30.5826848,31.0960728 31.1390953,30.5710398 31.8154428,30.5590902 L100.148042,30.5590902 Z" id="Path" fill="#00D5AF" opacity="0.1"></path>
                        <polygon id="Path" fill="#00D5AF" opacity="0.1" points="137.134481 30.5590902 94.9000117 110.962999 85.0531922 110.962999 127.287662 30.5590902"></polygon>
                        <path d="M159.742941,31.7715838 L154.833057,109.750505 C154.783955,110.427495 154.225738,110.954232 153.548101,110.962999 L105.531331,110.962999 L147.7658,30.5586904 L158.586481,30.5586904 C158.905296,30.5506051 159.212831,30.6775241 159.433134,30.9085017 C159.653437,31.1394794 159.765971,31.452982 159.742941,31.7715838 L159.742941,31.7715838 Z" id="Path" fill="#00D5AF" opacity="0.1"></path>
                        <path d="M98.6669612,30.6403747 C98.6286313,31.1495456 98.2095862,31.5457783 97.6998628,31.5548252 C97.4622605,31.5574932 97.2345077,31.4598813 97.0723771,31.285893 C96.9102465,31.1119047 96.8287099,30.8776067 96.8477342,30.6403747 C96.8829461,30.1297216 97.3038111,29.731768 97.8148326,29.7259242 C98.0524349,29.7232562 98.2801877,29.8208681 98.4423183,29.9948564 C98.6044489,30.1688446 98.6859855,30.4031426 98.6669612,30.6403747 Z" id="Path" fill="#FFFFFF" opacity="0.4"></path>
                        <path d="M77.715418,11.9381681 C74.0160978,16.1785091 71.8790134,29.1772538 74.6179982,35.5716338 C77.356983,41.9660137 45.5779962,48.3671673 71.7978582,58.7580347 C98.0177203,69.1489021 118.989552,57.0984763 111.40155,46.3350551 C103.813547,35.5716338 112.219864,17.6484036 103.434824,13.1438881 C95.4951491,9.0390213 85.1275844,3.43716516 77.715418,11.9381681 Z" id="Path" fill="#263238"></path>
                        <path d="M69.8771874,64.2786063 C68.4907877,69.0202016 67.0164699,73.7617969 65.4880488,78.5033922 C63.9596276,83.2449875 62.3703401,87.9323931 60.6863717,92.6401198 L60.0438938,94.4148312 L59.7192733,95.3021869 L59.6178295,95.5663615 L59.4555193,95.9660103 C59.3540754,96.2234111 59.1985281,96.5011332 59.0632696,96.7653077 C58.402134,97.9748061 57.4157616,98.9744844 56.216078,99.6509072 C55.1269985,100.243242 53.9114037,100.56389 52.672305,100.585832 C50.9345511,100.594102 49.2125425,100.255599 47.6068738,99.5899438 C46.2925209,99.0557485 45.0198099,98.424039 43.7993468,97.7000794 C39.3652115,94.9690935 35.3010232,91.6770434 31.707236,87.9052983 L34.6220569,84.4642548 C35.6026811,85.0942096 36.6509346,85.7648067 37.6653734,86.3947615 C38.6798122,87.0247163 39.7415915,87.63435 40.7695562,88.2372099 C42.7838018,89.417921 44.863368,90.483108 46.9982105,91.4276262 C47.9709828,91.8572833 48.9747471,92.2127839 50.0009494,92.4910983 C50.7105754,92.7268769 51.4609188,92.8144797 52.2056631,92.7484992 C52.3950251,92.7484992 52.3612104,92.6401198 52.2056631,92.7010832 C52.0501159,92.7620466 51.8810427,92.938163 51.8742798,92.9178419 C51.8675169,92.8975207 51.8742798,92.9178419 51.8742798,92.8771996 C51.8774438,92.8638375 51.8774438,92.8499194 51.8742798,92.8365574 L51.9283832,92.6672147 L52.1853744,91.7934064 L52.7061196,90.0322424 L56.8382671,75.8074566 C58.2449556,71.0658613 59.6922216,66.324266 61.1800653,61.5826707 L69.8771874,64.2786063 Z" id="Path" fill="#B65B52"></path>
                        <path d="M34.4124062,84.3558755 L26.5538868,81.4431813 L29.6715955,89.7612941 C29.6715955,89.7612941 35.2171943,90.5605916 37.3678047,87.6411237 L35.616207,85.2906472 C35.3126153,84.8700017 34.8947824,84.5455473 34.4124062,84.3558755 L34.4124062,84.3558755 Z" id="Path" fill="#B55B52"></path>
                        <polygon id="Path" fill="#B55B52" points="19.6218882 83.8613949 22.6111013 90.6825184 29.7054101 89.7477467 26.5809385 81.4296339"></polygon>
                        <path d="M64.1422266,52.011422 C60.5443503,52.9258725 58.0555937,67.7399709 58.0555937,67.7399709 L67.9632795,74.5136785 C67.9632795,74.5136785 77.4313752,59.5708796 74.6923904,55.6150344 C71.7843324,51.4627517 69.3834939,50.6770016 64.1422266,52.011422 Z" id="Path" fill="#00D5AF"></path>
                        <path d="M64.1422266,52.011422 C60.5443503,52.9258725 58.0555937,67.7399709 58.0555937,67.7399709 L67.9632795,74.5136785 C67.9632795,74.5136785 77.4313752,59.5708796 74.6923904,55.6150344 C71.7843324,51.4627517 69.3834939,50.6770016 64.1422266,52.011422 Z" id="Path" fill="#FFFFFF" opacity="0.5"></path>
                        <path d="M63.8176062,57.3965195 L71.5070525,59.1780046 L72.2442113,66.7171411 C70.9413885,69.3788161 69.5035162,71.9720168 67.9362278,74.4865836 L61.9239871,70.4223591 C62.1877411,66.9338997 62.836982,59.7673171 63.8176062,57.3965195 Z" id="Path" fill="#000000" opacity="0.2"></path>
                        <path d="M64.1422266,52.011422 C64.1422266,52.011422 59.9830274,53.4745428 68.3081887,104.724414 L103.718866,104.724414 C103.123729,90.2896433 103.110203,81.3822179 109.994861,51.7607948 C105.03834,50.7342188 100.013697,50.0708956 94.960878,49.7760985 C89.0027407,49.4848291 84.1401972,49.2951653 78.8786412,49.7760985 C71.9736943,50.4060533 64.1422266,52.011422 64.1422266,52.011422 Z" id="Path" fill="#00D5AF"></path>
                        <path d="M64.1422266,52.011422 C64.1422266,52.011422 59.9830274,53.4745428 68.3081887,104.724414 L103.718866,104.724414 C103.123729,90.2896433 103.110203,81.3822179 109.994861,51.7607948 C105.03834,50.7342188 100.013697,50.0708956 94.960878,49.7760985 C89.0027407,49.4848291 84.1401972,49.2951653 78.8786412,49.7760985 C71.9736943,50.4060533 64.1422266,52.011422 64.1422266,52.011422 Z" id="Path" fill="#FFFFFF" opacity="0.5"></path>
                        <path d="M101.662937,65.5114211 L106.234675,69.4130767 C105.260814,74.5949629 104.60481,78.8962672 104.205797,82.7505068 C103.33338,78.9030409 101.155718,68.4579839 101.662937,65.5114211 Z" id="Path" fill="#000000" opacity="0.2"></path>
                        <path d="M93.3648276,31.6361097 C92.3503888,36.817996 91.33595,46.3147339 94.960878,49.7760985 C94.960878,49.7760985 91.5794153,57.5387673 82.618539,57.5387673 C73.6576628,57.5387673 78.8786412,49.7760985 78.8786412,49.7760985 C84.6474167,48.421357 84.4986323,44.1065053 83.4977193,40.082923 L93.3648276,31.6361097 Z" id="Path" fill="#B55B52"></path>
                        <path d="M93.8111807,47.8388181 C92.9590521,49.5661136 90.2133043,53.5151851 82.5441468,54.9241162 C82.3309886,54.9633396 82.110918,54.9197397 81.9287206,54.8021895 C80.4949804,53.7996808 79.6022742,51.6795103 80.2312263,49.2206545 C80.3162895,48.9124832 80.2192906,48.5826665 79.9810175,48.3698915 C79.7427445,48.1571166 79.4045254,48.0982891 79.1085807,48.2181458 C78.5194914,48.4650538 77.9536556,48.7642914 77.4178493,49.1122752 C77.3001246,49.1904314 77.2046004,49.2977757 77.1405694,49.4238657 C76.5792466,50.4805641 74.3069036,55.6556766 81.16451,58.8460929 C81.2739158,58.8929791 81.3906188,58.9204824 81.5094192,58.9273774 C85.5671745,59.0086619 92.6614833,58.2093644 97.1453029,50.1215576 C97.3089358,49.8230094 97.2796962,49.4556012 97.0709108,49.1867859 C96.4683153,48.5260418 95.7681014,47.9617794 94.9946926,47.5136802 C94.7977382,47.3869893 94.5563268,47.3500511 94.3305903,47.412066 C94.1048539,47.474081 93.9160405,47.629212 93.8111807,47.8388181 Z" id="Path" fill="#FAFAFA"></path>
                        <path d="M95.691274,69.1624495 L86.5613246,68.8982749 C86.3682948,68.8994486 86.1839639,68.8179491 86.05476,68.6743042 C85.9255562,68.5306593 85.8637948,68.3385608 85.885032,68.1463934 L85.97295,67.0151842 C86.0276334,66.6214133 86.3673488,66.3305953 86.7642123,66.3378134 L95.8941617,66.601988 C96.0885146,66.6005807 96.2740775,66.6829915 96.4035229,66.8282015 C96.5329683,66.9734115 96.5937823,67.1673828 96.5704543,67.3606433 L96.4825362,68.4850787 C96.4278528,68.8788497 96.0881375,69.1696676 95.691274,69.1624495 L95.691274,69.1624495 Z" id="Path" fill="#FAFAFA"></path>
                        <path d="M89.3408869,35.0839268 L83.4977193,40.0761493 C83.7483789,41.0123368 83.9158507,41.9689009 83.9981758,42.9346539 C86.1961266,42.6162896 89.2259172,40.1913023 89.4626196,37.881468 C89.5919913,36.9492874 89.5507404,36.0012992 89.3408869,35.0839268 L89.3408869,35.0839268 Z" id="Path" fill="#000000" opacity="0.2"></path>
                        <path d="M100.181856,21.8345549 C98.5519914,30.3491052 98.044772,33.9865862 93.148414,37.8272784 C85.7835881,43.6120246 75.7000662,39.7374639 74.7667825,30.911323 C73.9214168,22.965764 76.7280309,10.3802154 85.5874633,8.05006 C89.5346033,6.99947873 93.7434942,8.06767542 96.7148485,10.874138 C99.6862029,13.6806006 100.997585,17.8263363 100.181856,21.8345549 Z" id="Path" fill="#B55B52"></path>
                        <path d="M95.3463648,15.5350068 C94.2913484,20.8659147 94.0411201,27.9308917 98.9171894,27.9308917 C103.793259,27.9308917 107.614312,19.6195525 103.407772,13.1100195 C99.2012323,6.60048659 95.961791,12.3920065 95.3463648,15.5350068 Z" id="Path" fill="#263238"></path>
                        <path d="M103.77297,16.1920565 C103.77297,21.9903501 96.4825362,19.1250718 93.2566208,16.6255738 C90.0307053,14.1260757 89.875158,14.397024 83.8967319,14.3902503 C77.9183058,14.3834766 76.721268,13.9702804 74.9561444,11.1117758 C73.1910209,8.25327123 73.3533311,6.37018053 77.3299313,6.9730405 C81.3065315,7.57590047 77.9656463,3.51167594 80.9278076,1.25603133 C83.889969,-0.999613282 87.3999273,-0.430621848 91.4509197,4.71739589 C95.501912,9.86541362 103.77297,6.14664818 103.77297,16.1920565 Z" id="Path" fill="#263238"></path>
                        <ellipse id="Oval" fill="#FFFFFF" transform="translate(98.562754, 28.509060) rotate(-73.660000) translate(-98.562754, -28.509060) " cx="98.562754" cy="28.5090599" rx="4.94418372" ry="3.19926813"></ellipse>
                        <path d="M88.0965086,35.9645088 C86.5268222,35.9642132 84.973626,35.6438599 83.531534,35.0229635 C83.4691368,34.9975388 83.4196098,34.9479901 83.3941535,34.8855229 C83.3686973,34.8230557 83.3694623,34.7529468 83.3962754,34.6910518 C83.4547789,34.5626888 83.6036719,34.5030367 83.7344217,34.5555776 C86.4799157,35.7356606 89.5853408,35.752764 92.3436258,34.6029936 C95.0261751,33.5035335 97.1524064,31.3665856 98.2408969,28.6759995 C100.269775,22.8573847 102.33923,15.5959702 99.9451541,11.0643599 C98.9705252,9.27947659 97.2659792,8.01016322 95.2787355,7.58944789 C95.1430905,7.55300462 95.0617749,7.41424618 95.0961365,7.27785734 C95.1325218,7.14199605 95.2710593,7.06055088 95.4072311,7.09496724 C97.530171,7.55250449 99.3494199,8.91231742 100.391507,10.8205064 C102.880264,15.5011383 100.804046,22.9048007 98.7143016,28.8317948 C97.5690748,31.6574917 95.3326482,33.8999265 92.512699,35.0500583 C91.1137693,35.6388269 89.6138494,35.9494119 88.0965086,35.9645088 Z" id="Path" fill="#FFFFFF"></path>
                        <path d="M101.385657,29.4346547 C100.783757,31.466767 99.40412,32.8960193 98.3017632,32.577655 C97.1994063,32.2592908 96.7936308,30.3220104 97.3955312,28.2628033 C97.9974315,26.2035962 99.3770683,24.7946651 100.479425,25.119803 C101.581782,25.444941 101.987558,27.3754476 101.385657,29.4346547 Z" id="Path" fill="#00D5AF" opacity="0.6"></path>
                        <path d="M81.4610425,33.6288449 L84.0012757,33.6295982 C84.5194666,33.6297518 84.9395049,34.0497903 84.9396584,34.5679813 C84.9398117,35.0857753 84.5201809,35.5056547 84.0023869,35.505808 C84.0022017,35.505808 84.0020165,35.505808 84.0018312,35.505808 L81.461598,35.5050547 C80.9434071,35.5049011 80.5233688,35.0848626 80.5232154,34.5666716 C80.5230621,34.0488776 80.9426928,33.6289982 81.4604869,33.6288449 C81.4606721,33.6288449 81.4608573,33.6288449 81.4610425,33.6288449 Z" id="Rectangle" fill="#FFFFFF" transform="translate(82.731437, 34.567326) rotate(10.920000) translate(-82.731437, -34.567326) "></path>
                        <path d="M80.7722604,22.5457942 C80.7722604,22.5457942 79.2032616,25.397525 77.715418,26.6777558 C78.5202062,27.6599433 80.1433083,27.4702795 80.1433083,27.4702795 L80.7722604,22.5457942 Z" id="Path" fill="#A02724"></path>
                        <path d="M82.2668669,31.1145342 L82.3277332,31.1145342 C83.8609945,31.2357565 85.3832282,30.771098 86.5883763,29.8139823 C86.6399291,29.7613041 86.6399291,29.6769968 86.5883763,29.6243185 C86.5642438,29.5999122 86.5313718,29.5861808 86.4970768,29.5861808 C86.4627817,29.5861808 86.4299097,29.5999122 86.4057773,29.6243185 C85.255071,30.5302973 83.8076676,30.9724592 82.348022,30.863907 C82.3128379,30.8581166 82.2768336,30.8672293 82.2486196,30.8890658 C82.2204056,30.9109022 82.2025191,30.9434989 82.1992376,30.97906 C82.1921172,31.0338013 82.2188713,31.0873949 82.2668669,31.1145342 L82.2668669,31.1145342 Z" id="Path" fill="#263238"></path>
                        <path d="M90.0036536,19.1928089 C90.0814307,19.2362273 90.1761048,19.2362273 90.2538819,19.1928089 C90.3743136,19.112287 90.4100849,18.9510598 90.335037,18.8270287 C89.6788854,17.7264752 88.5332474,17.0102556 87.2579059,16.9032958 C87.1111052,16.9032498 86.9910589,17.0204816 86.9873889,17.1674704 C86.9873418,17.3107651 87.1013604,17.4279707 87.24438,17.431645 C88.3430637,17.5365625 89.3256346,18.1607725 89.8886839,19.1115244 C89.9189499,19.1485483 89.9586877,19.1766432 90.0036536,19.1928089 L90.0036536,19.1928089 Z" id="Path" fill="#263238"></path>
                        <path d="M86.1284973,22.6609472 C86.0135276,23.3383179 85.5468857,23.8598934 85.0870068,23.7853826 C84.6271279,23.7108718 84.3633738,23.1080119 84.4783435,22.3764515 C84.5933133,21.644891 85.066718,21.1775052 85.519834,21.252016 C85.97295,21.3265268 86.25023,21.9632553 86.1284973,22.6609472 Z" id="Path" fill="#263238"></path>
                        <path d="M78.2429262,21.3197531 C78.1279565,21.9971238 77.6613146,22.5186993 77.2014357,22.4441885 C76.7415568,22.3696778 76.4778027,21.7329492 76.5927724,21.0352574 C76.7077421,20.3375655 77.1811469,19.8295374 77.6342629,19.9108219 C78.0873789,19.9921064 78.3646589,20.6152875 78.2429262,21.3197531 Z" id="Path" fill="#263238"></path>
                        <path d="M77.8303878,19.9853327 L76.2343374,19.21313 C76.2343374,19.21313 76.8700524,20.6694772 77.8303878,19.9853327 Z" id="Path" fill="#263238"></path>
                        <path d="M85.7159589,21.3265268 L84.1199085,20.5610978 C84.1199085,20.5610978 84.7556235,22.017445 85.7159589,21.3265268 Z" id="Path" fill="#263238"></path>
                        <path d="M75.5648077,16.5984789 C75.6481144,16.6483213 75.7520181,16.6483213 75.8353248,16.5984789 C76.6822643,15.8853806 77.8239406,15.6323947 78.8921671,15.9211082 C79.0303643,15.9697414 79.1817575,15.8969567 79.2303133,15.7585392 C79.2788691,15.6201216 79.2062004,15.468487 79.0680031,15.4198538 C77.8362229,15.0685072 76.510762,15.3416082 75.5174673,16.1514142 C75.4603164,16.191848 75.4226788,16.2544019 75.4136838,16.3239027 C75.4046887,16.3934036 75.4251581,16.4635018 75.4701268,16.5171944 C75.492725,16.5532808 75.5257464,16.5816301 75.5648077,16.5984789 L75.5648077,16.5984789 Z" id="Path" fill="#263238"></path>
                        <path d="M66.9623665,113.360891 C66.9623665,113.360891 66.8676856,108.510917 68.3149516,104.724414 L103.718866,104.724414 C103.718866,104.724414 106.904204,109.872432 107.729281,113.360891 L66.9623665,113.360891 Z" id="Path" fill="#00D5AF"></path>
                        <path d="M104.253138,102.644886 L104.530418,105.814981 C104.658913,106.065608 104.368107,106.316235 103.955569,106.316235 L68.1120639,106.316235 C67.7942064,106.316235 67.5304523,106.16044 67.5101635,105.957229 L67.1855431,102.78036 C67.1855431,102.563601 67.4425342,102.373938 67.7942064,102.373938 L103.637711,102.373938 C103.876318,102.348505 104.110513,102.451612 104.253138,102.644886 Z" id="Path" fill="#00D5AF"></path>
                        <path d="M104.253138,102.644886 L104.530418,105.814981 C104.658913,106.065608 104.368107,106.316235 103.955569,106.316235 L68.1120639,106.316235 C67.7942064,106.316235 67.5304523,106.16044 67.5101635,105.957229 L67.1855431,102.78036 C67.1855431,102.563601 67.4425342,102.373938 67.7942064,102.373938 L103.637711,102.373938 C103.876318,102.348505 104.110513,102.451612 104.253138,102.644886 Z" id="Path" fill="#FAFAFA" opacity="0.3"></path>
                        <path d="M99.4311717,106.654921 L100.391507,106.654921 C100.587632,106.654921 100.729653,106.560089 100.716128,106.438162 L100.269775,102.312974 C100.269775,102.191047 100.087176,102.096216 99.8978136,102.096216 L98.9171894,102.096216 C98.7210646,102.096216 98.5790431,102.191047 98.592569,102.312974 L99.0389221,106.438162 C99.0727367,106.560089 99.2418098,106.654921 99.4311717,106.654921 Z" id="Path" fill="#00D5AF"></path>
                        <path d="M70.8307599,106.654921 L71.7910953,106.654921 C71.9804572,106.654921 72.1292416,106.560089 72.1157157,106.438162 L71.6625997,102.312974 C71.6625997,102.191047 71.4867637,102.096216 71.2906388,102.096216 L70.3303034,102.096216 C70.1409415,102.096216 69.9921571,102.191047 70.005683,102.312974 L70.458799,106.438162 C70.4723249,106.560089 70.641398,106.654921 70.8307599,106.654921 Z" id="Path" fill="#00D5AF"></path>
                        <path d="M85.1343473,106.654921 L86.067631,106.654921 C86.2569929,106.654921 86.4057773,106.560089 86.3922514,106.438162 L85.9391354,102.312974 C85.9391354,102.191047 85.7565364,102.096216 85.5671745,102.096216 L84.6068391,102.096216 C84.4174772,102.096216 84.2686928,102.191047 84.2822187,102.312974 L84.7353347,106.438162 C84.7759122,106.560089 84.9382224,106.654921 85.1343473,106.654921 Z" id="Path" fill="#00D5AF"></path>
                        <path d="M113.024652,61.7994294 C114.580125,66.857131 116.074731,71.9419275 117.508472,77.0538188 L119.665845,84.6810135 L120.74115,88.4742897 L121.011667,89.4090613 L121.146925,89.8764472 L121.18074,89.9848265 L121.18074,89.9848265 C121.18074,89.9848265 121.18074,89.9848265 121.18074,89.9848265 L121.072533,89.8154838 C120.901636,89.5703082 120.691398,89.3551574 120.450344,89.1787553 C119.921098,88.79309 119.291481,88.5695488 118.63788,88.5352531 C118.143968,88.5117501 117.651798,88.609411 117.20414,88.8197488 C116.717209,89.0839234 116.76455,89.1448868 116.805127,89.0974708 C116.919768,88.9976583 117.024,88.8864514 117.116222,88.7655591 C117.435056,88.3665967 117.728688,87.9480692 117.995402,87.5124232 C118.59054,86.5370093 119.178914,85.4396687 119.733474,84.3152333 C120.883171,82.0663624 121.917899,79.6820173 122.966152,77.2841248 C124.014406,74.8862324 124.99503,72.4612451 126.009469,70.0159366 C127.023908,67.5706282 127.991006,65.1117724 128.991919,62.6867851 L133.313428,63.9737895 C132.190783,69.2572814 130.878775,74.4459414 129.255673,79.6142802 C128.457648,82.2086102 127.571705,84.7758454 126.550503,87.3769491 C126.022995,88.6775009 125.461672,89.9780528 124.765091,91.3260206 C124.393672,92.0552201 123.978105,92.7610015 123.520712,93.4394173 C123.236425,93.8650322 122.919889,94.2681266 122.573903,94.6451373 C122.025053,95.2687288 121.358524,95.77748 120.612654,96.1421267 C119.868211,96.5046929 119.045689,96.6769065 118.218579,96.643381 C117.237962,96.5887543 116.295982,96.2420246 115.513409,95.647646 C115.014627,95.2709208 114.582554,94.8129715 114.235216,94.2929045 C114.015457,93.9591418 113.823206,93.6080061 113.660367,93.2429798 C113.599501,93.0939583 113.531871,92.938163 113.484531,92.8026888 L113.356035,92.4707772 L113.180199,91.9898439 L112.828527,91.0347512 C112.368648,89.7680678 111.902006,88.5013845 111.475942,87.2347012 C110.610288,84.7013346 109.744633,82.1747417 108.933082,79.6346014 C107.273911,74.5588365 105.727455,69.4582347 104.293715,64.332796 L113.024652,61.7994294 Z" id="Path" fill="#B65B52"></path>
                        <path d="M109.994861,51.7607948 C113.545397,52.8378143 118.976026,66.7848781 118.976026,66.7848781 L105.213473,76.6406226 C105.213473,76.6406226 99.0253962,64.7188973 100.51324,60.1263236 C102.068713,55.3440861 105.950632,50.52798 109.994861,51.7607948 Z" id="Path" fill="#00D5AF"></path>
                        <path d="M109.994861,51.7607948 C113.545397,52.8378143 118.976026,66.7848781 118.976026,66.7848781 L105.213473,76.6406226 C105.213473,76.6406226 99.0253962,64.7188973 100.51324,60.1263236 C102.068713,55.3440861 105.950632,50.52798 109.994861,51.7607948 Z" id="Path" fill="#FFFFFF" opacity="0.5"></path>
                        <path d="M129.147466,64.5427809 L127.26061,56.2111207 L135.105604,60.3566297 C135.105604,60.3566297 135.200285,65.9652595 132.035235,67.7331972 L129.147466,64.5427809 Z" id="Path" fill="#B55B52"></path>
                        <polygon id="Path" fill="#B55B52" points="130.547392 49.5999821 135.551957 53.1561786 135.105604 60.3566297 127.26061 56.2111207"></polygon>
                    </g>
                    <g id="freepik--Chat--inject-2" transform="translate(13.000000, 0.000000)">
                        <path d="M10.2137444,44.517198 L65.3672927,44.517198 C67.4962815,44.4967538 69.5367647,45.3614218 70.9936268,46.9017608 C72.450489,48.4420998 73.190579,50.5173292 73.0343168,52.6239026 L71.4954648,77.3887635 C71.1448071,81.9064811 67.3872108,85.4178538 62.8206968,85.495101 L56.4337797,85.495101 L59.0416574,94 L46.5674227,85.495101 L7.68757567,85.495101 C5.55858688,85.5159123 3.51810369,84.6512443 2.06124154,83.1109053 C0.604379387,81.5705663 -0.135710613,79.4953369 0.0205515443,77.3887635 L1.54578547,52.6239026 C1.89618465,48.1087201 5.64985883,44.598257 10.2137444,44.517198 L10.2137444,44.517198 Z" id="Path" fill="#00D5AF"></path>
                        <path d="M60.3149553,57.4877051 L13.672757,57.4877051 C13.2723759,57.4855517 12.8912457,57.3169577 12.6220451,57.02292 C12.3528446,56.7288822 12.220237,56.3363395 12.2564684,55.9407457 L12.2564684,55.9407457 C12.3196853,55.091062 13.0251937,54.4291995 13.8838385,54.4140521 L60.5328459,54.4140521 C60.9310774,54.4149249 61.3110796,54.5797426 61.5821563,54.8691679 C61.8532331,55.1585931 61.991064,55.5466593 61.9627527,55.9407457 L61.9627527,55.9407457 C61.9123312,56.8076074 61.1901717,57.4855739 60.3149553,57.4877051 L60.3149553,57.4877051 Z" id="Path" fill="#FFFFFF"></path>
                        <path d="M32.6837085,66.5330266 L13.1144125,66.5330266 C12.7138157,66.5359165 12.330195,66.37274 12.0561172,66.0828712 C11.7820393,65.7930024 11.6423977,65.4027689 11.6708875,65.006333 L11.6708875,65.006333 C11.7343495,64.1541067 12.4437928,63.491326 13.3050667,63.4796395 L32.89479,63.4796395 C33.2965653,63.4748504 33.6820035,63.6371974 33.9575877,63.927291 C34.2331719,64.2173846 34.3737173,64.608714 34.345124,65.006333 L34.345124,65.006333 C34.2776185,65.8673269 33.5541803,66.5321025 32.6837085,66.5330266 Z" id="Path" fill="#FFFFFF"></path>
                        <path d="M49.4544727,75.5783481 L12.5560679,75.5783481 C12.1554712,75.5812381 11.7718504,75.4180616 11.4977726,75.1281928 C11.2236948,74.838324 11.0840531,74.4480904 11.1125429,74.0516546 L11.1125429,74.0516546 C11.1728488,73.1979402 11.8841405,72.5334327 12.7467221,72.524961 L49.6451269,72.524961 C50.046375,72.52001 50.4312548,72.6825559 50.7057922,72.9729108 C50.9803296,73.2632656 51.1192565,73.6547056 51.0886519,74.0516546 L51.0886519,74.0516546 C51.0251899,74.9038809 50.3157465,75.5666617 49.4544727,75.5783481 Z" id="Path" fill="#FFFFFF"></path>
                        <path d="M47.0576765,66.5330266 L39.3429888,66.5330266 C38.942392,66.5359165 38.5587713,66.37274 38.2846935,66.0828712 C38.0106157,65.7930024 37.870974,65.4027689 37.8994638,65.006333 L37.8994638,65.006333 C37.9660358,64.1555801 38.6736649,63.4944942 39.533643,63.4796395 L47.2415216,63.4796395 C47.6427697,63.4746884 48.0276495,63.6372344 48.302187,63.9275892 C48.5767244,64.2179441 48.7156513,64.609384 48.6850466,65.006333 L48.6850466,65.006333 C48.6218297,65.8560168 47.9163212,66.5178792 47.0576765,66.5330266 L47.0576765,66.5330266 Z" id="Path" fill="#FFFFFF"></path>
                        <path d="M87.0133582,0 L56.9444607,0 C53.3905089,0.0531813922 50.4639834,2.78665759 50.1966624,6.30293933 L49.0255006,25.5825119 C48.9075464,27.2212866 49.4856023,28.8343499 50.6198214,30.0314598 C51.7540405,31.2285697 53.3411055,31.9006798 54.9970638,31.8851893 L59.9200287,31.8851893 L57.0738332,38.5053649 L67.600671,31.8851893 L85.045534,31.8851893 C88.5994859,31.8322698 91.5260114,29.0987937 91.7933324,25.5825119 L92.9849214,6.30293933 C93.1028755,4.66416463 92.5248197,3.05110131 91.3906006,1.85399145 C90.2563814,0.656881579 88.6693165,-0.0152285688 87.0133582,0 Z" id="Path" fill="#00D5AF"></path>
                        <g id="Group" opacity="0.5" transform="translate(49.010422, 0.000000)" fill="#FAFAFA">
                            <path d="M38.0029362,0 L7.93403873,0 C4.38008691,0.0531813922 1.4535614,2.78665759 1.1862404,6.30293933 L0.0150786359,25.5825119 C-0.102875549,27.2212866 0.475180312,28.8343499 1.60939944,30.0314598 C2.74361857,31.2285697 4.33068349,31.9006798 5.98664183,31.8851893 L10.9096067,31.8851893 L8.06341125,38.5053649 L18.590249,31.8851893 L36.0351121,31.8851893 C39.5890639,31.8322698 42.5155894,29.0987937 42.7829104,25.5825119 L43.9744994,6.30293933 C44.0924536,4.66416463 43.5143977,3.05110131 42.3801786,1.85399145 C41.2459595,0.656881579 39.6588945,-0.0152285688 38.0029362,0 Z" id="Path"></path>
                        </g>
                        <path d="M72.5168268,19.0974419 C72.3036083,19.9712383 71.5164765,20.5876015 70.6102843,20.5903591 L68.8331145,20.5903591 C68.8331145,20.0904683 68.8739689,19.7864806 68.880778,19.6783961 C68.9065083,18.7047058 69.1581513,17.7500074 69.6161587,16.888465 C70.2595406,15.9280703 71.0768232,15.0943404 72.026573,14.4295426 C72.7839873,13.8850178 73.4987176,13.2843296 74.1646241,12.6326378 C74.5178822,12.2179123 74.7278836,11.7017919 74.7638232,11.1599865 C74.8180491,10.4324599 74.528757,9.72118331 73.980779,9.23473138 C73.3201598,8.67330447 72.4660007,8.38760614 71.597601,8.4376082 C70.6844554,8.41288935 69.791964,8.70963135 69.0782413,9.27526307 C68.6541004,9.62242709 68.3064468,10.0524108 68.0568793,10.5385007 C67.6808719,11.2645178 66.9025366,11.6958767 66.0822461,11.6328562 L66.0822461,11.6328562 C65.4955513,11.5608105 64.9865914,11.1964553 64.732748,10.6667748 C64.4789046,10.1370943 64.5153474,9.5154751 64.8293754,9.01856238 C65.2402365,8.33446538 65.7678524,7.72644371 66.3886547,7.22165758 C67.8642813,6.04482429 69.71943,5.43772619 71.6112191,5.51257143 C73.8377883,5.51257143 75.5672946,6.08677034 76.8133563,7.24192342 C77.9959115,8.25062429 78.6335638,9.75089501 78.5360535,11.2950921 C78.4735206,12.1608864 78.171987,12.9929006 77.6644913,13.6999723 C76.7080497,14.8683562 75.6025179,15.9083832 74.3757056,16.7938911 C73.7401204,17.23416 73.1909239,17.7858852 72.7551446,18.4219138 C72.6443813,18.6349795 72.5641666,18.8623534 72.5168268,19.0974419 Z M68.6288421,23.9477339 L68.6288421,23.7315649 C68.7031058,22.7194308 69.5466,21.9325173 70.5694299,21.9211495 L70.8145567,21.9211495 C71.2916248,21.9142371 71.7497189,22.1062728 72.077244,22.4504751 C72.404769,22.7946774 72.5716574,23.2594478 72.537254,23.7315649 L72.537254,23.9477339 C72.4632072,24.9610467 71.62062,25.7500471 70.5966662,25.7649045 L70.3787756,25.7649045 C69.895748,25.779733 69.4291325,25.590181 69.0952996,25.2435213 C68.7614667,24.8968616 68.5918832,24.4257702 68.6288421,23.9477339 L68.6288421,23.9477339 Z" id="Shape" fill="#FFFFFF"></path>
                    </g>
                </g>
            </g>
        </g>
    </g>
</svg>