<?xml version="1.0" encoding="UTF-8"?>
<svg width="600px" height="82px" viewBox="0 0 600 82" version="1.1" xmlns="http://www.w3.org/2000/svg" xmlns:xlink="http://www.w3.org/1999/xlink">
    <title>Group</title>
    <g id="Designs" stroke="none" stroke-width="1" fill="none" fill-rule="evenodd">
        <g id="t-copy-28" transform="translate(-255, -277)">
            <g id="Group" transform="translate(255, 277)">
                <g id="HireZoot" transform="translate(103.879, 18.779)" fill="#000000" fill-rule="nonzero">
                    <polygon id="Path" points="0 39.0890277 0 0.79773526 7.23279969 0.79773526 7.23279969 16.5397111 24.3575166 16.5397111 24.3575166 0.79773526 31.5903163 0.79773526 31.5903163 39.0890277 24.3575166 39.0890277 24.3575166 23.2938696 7.23279969 23.2938696 7.23279969 39.0890277"></polygon>
                    <path d="M39.2722114,6.38188208 L39.2722114,0 L46.5050111,0 L46.5050111,6.38188208 L39.2722114,6.38188208 Z M39.2722114,39.0890277 L39.2722114,10.3705584 L46.5050111,10.3705584 L46.5050111,39.0890277 L39.2722114,39.0890277 Z" id="Shape"></path>
                    <path d="M54.1869062,39.0890277 L54.1869062,10.3705584 L60.5687882,10.3705584 L60.5687882,17.3906287 L59.8774177,16.4865287 C60.2496941,15.4937915 60.7460627,14.5896915 61.3665235,13.7742288 C61.9869843,12.9587661 62.7492646,12.285123 63.6533646,11.7532995 C64.3447351,11.3278407 65.0981518,10.995451 65.9136145,10.7561304 C66.7290772,10.5168098 67.5711311,10.3661265 68.4397761,10.3040804 C69.3084212,10.2420344 70.1770663,10.2641937 71.0457113,10.3705584 L71.0457113,17.1247169 C70.2479761,16.8765326 69.3217168,16.7923272 68.2669335,16.8721007 C67.2121502,16.9518743 66.2592998,17.1956267 65.4083821,17.6033581 C64.5574645,17.993362 63.8395028,18.5118899 63.2544969,19.1589418 C62.6694911,19.8059938 62.2263048,20.5682741 61.9249382,21.4457829 C61.6235715,22.3232917 61.4728882,23.311597 61.4728882,24.4106989 L61.4728882,39.0890277 L54.1869062,39.0890277 Z" id="Path"></path>
                    <path d="M88.6195236,39.886763 C85.6767669,39.886763 83.0841273,39.2530066 80.8416048,37.9854939 C78.5990824,36.7179813 76.8440648,34.9718274 75.5765521,32.7470324 C74.3090394,30.5222374 73.6752831,27.9739164 73.6752831,25.1020695 C73.6752831,21.9643108 74.2957439,19.2342835 75.5366654,16.9119875 C76.7775869,14.5896915 78.4882858,12.7859235 80.6687622,11.5006833 C82.8492386,10.2154432 85.3576728,9.57282312 88.1940648,9.57282312 C91.2077314,9.57282312 93.7693479,10.2819211 95.8789145,11.7001171 C97.9884811,13.1183132 99.5484967,15.1126513 100.558961,17.6831316 C101.569426,20.2536119 101.923975,23.2761421 101.622608,26.7507224 L94.4695822,26.7507224 L94.4695822,24.0916048 C94.4695822,21.1665756 94.0042366,19.0614408 93.0735455,17.7762007 C92.1428544,16.4909606 90.6227255,15.8483405 88.5131589,15.8483405 C86.0490433,15.8483405 84.2364116,16.5973253 83.0752636,18.0952948 C81.9141156,19.5932643 81.3335416,21.8047638 81.3335416,24.729793 C81.3335416,27.406638 81.9141156,29.4763178 83.0752636,30.9388325 C84.2364116,32.4013471 85.9426786,33.1326045 88.1940648,33.1326045 C89.6122608,33.1326045 90.8265912,32.8223741 91.8370558,32.2019133 C92.8475205,31.5814526 93.6186646,30.6862163 94.1504881,29.5162046 L101.383288,31.5903163 C100.301913,34.2139789 98.5956462,36.2526357 96.2644865,37.7062866 C93.9333268,39.1599375 91.3850059,39.886763 88.6195236,39.886763 Z M79.0998829,26.7507224 L79.0998829,21.379305 L98.1391644,21.379305 L98.1391644,26.7507224 L79.0998829,26.7507224 Z" id="Shape"></path>
                    <polygon id="Path" points="106.246518 39.0890277 106.246518 38.1849278 124.434882 7.55189379 107.841989 7.55189379 107.841989 0.79773526 137.092282 0.79773526 137.092282 1.70183522 119.010282 32.2816868 136.560458 32.2816868 136.560458 39.0890277"></polygon>
                    <path d="M156.102017,39.886763 C153.212443,39.886763 150.677418,39.2397111 148.496941,37.9456072 C146.316465,36.6515033 144.619062,34.8654627 143.404731,32.5874854 C142.190401,30.309508 141.583236,27.6902772 141.583236,24.729793 C141.583236,21.733854 142.203696,19.0968957 143.444618,16.8189184 C144.68554,14.540941 146.396238,12.7637642 148.576715,11.4873877 C150.757191,10.2110113 153.265625,9.57282312 156.102017,9.57282312 C158.991592,9.57282312 161.531049,10.219875 163.720389,11.5139789 C165.909729,12.8080828 167.615996,14.5941234 168.83919,16.8721007 C170.062384,19.1500781 170.673982,21.7693089 170.673982,24.729793 C170.673982,27.7080047 170.057953,30.3360992 168.825895,32.6140765 C167.593837,34.8920539 165.883138,36.6736626 163.693798,37.9589028 C161.504458,39.2441429 158.973864,39.886763 156.102017,39.886763 Z M156.102017,33.1326045 C158.424313,33.1326045 160.157172,32.3481648 161.300592,30.7792854 C162.444013,29.2104061 163.015723,27.1939086 163.015723,24.729793 C163.015723,22.1770402 162.435149,20.1383834 161.274001,18.6138227 C160.112853,17.089262 158.388859,16.3269816 156.102017,16.3269816 C154.524274,16.3269816 153.230171,16.6815307 152.219706,17.3906287 C151.209241,18.0997267 150.460256,19.0836002 149.972752,20.3422491 C149.485247,21.6008981 149.241494,23.0634127 149.241494,24.729793 C149.241494,27.3002733 149.822068,29.343362 150.983216,30.859059 C152.144364,32.374756 153.850631,33.1326045 156.102017,33.1326045 Z" id="Shape"></path>
                    <path d="M189.151894,39.886763 C186.262319,39.886763 183.727294,39.2397111 181.546818,37.9456072 C179.366341,36.6515033 177.668938,34.8654627 176.454608,32.5874854 C175.240277,30.309508 174.633112,27.6902772 174.633112,24.729793 C174.633112,21.733854 175.253573,19.0968957 176.494494,16.8189184 C177.735416,14.540941 179.446115,12.7637642 181.626591,11.4873877 C183.807068,10.2110113 186.315502,9.57282312 189.151894,9.57282312 C192.041468,9.57282312 194.580925,10.219875 196.770266,11.5139789 C198.959606,12.8080828 200.665873,14.5941234 201.889067,16.8721007 C203.112261,19.1500781 203.723858,21.7693089 203.723858,24.729793 C203.723858,27.7080047 203.107829,30.3360992 201.875771,32.6140765 C200.643713,34.8920539 198.933014,36.6736626 196.743674,37.9589028 C194.554334,39.2441429 192.023741,39.886763 189.151894,39.886763 Z M189.151894,33.1326045 C191.47419,33.1326045 193.207048,32.3481648 194.350469,30.7792854 C195.493889,29.2104061 196.065599,27.1939086 196.065599,24.729793 C196.065599,22.1770402 195.485025,20.1383834 194.323877,18.6138227 C193.162729,17.089262 191.438735,16.3269816 189.151894,16.3269816 C187.574151,16.3269816 186.280047,16.6815307 185.269582,17.3906287 C184.259118,18.0997267 183.510133,19.0836002 183.022628,20.3422491 C182.535123,21.6008981 182.291371,23.0634127 182.291371,24.729793 C182.291371,27.3002733 182.871945,29.343362 184.033093,30.859059 C185.194241,32.374756 186.900508,33.1326045 189.151894,33.1326045 Z" id="Shape"></path>
                    <path d="M226.509541,39.0890277 C224.524066,39.4613042 222.578478,39.6252831 220.672778,39.5809645 C218.767077,39.5366458 217.065241,39.1998243 215.567272,38.5704998 C214.069302,37.9411753 212.930314,36.9262788 212.150306,35.5258102 C211.441208,34.2139789 211.068931,32.8799883 211.033477,31.5238383 C210.998022,30.1676884 210.980294,28.6298321 210.980294,26.9102694 L210.980294,2.39320578 L218.213094,2.39320578 L218.213094,26.4848106 C218.213094,27.60164 218.226389,28.6076728 218.252981,29.502909 C218.279572,30.3981453 218.461278,31.1116751 218.7981,31.6434986 C219.436288,32.6539633 220.455616,33.2035143 221.856085,33.2921515 C223.256553,33.3807888 224.807705,33.309879 226.509541,33.0794221 L226.509541,39.0890277 Z M206.087518,15.9547052 L206.087518,10.3705584 L226.509541,10.3705584 L226.509541,15.9547052 L206.087518,15.9547052 Z" id="Shape"></path>
                </g>
                <path d="M40.765326,0 C63.2793939,0 81.5306521,18.2512581 81.5306521,40.765326 C81.5306521,63.2793939 63.2793939,81.5306521 40.765326,81.5306521 C18.2512581,81.5306521 0,63.2793939 0,40.765326 C0,18.2512581 18.2512581,0 40.765326,0 Z M35.2727414,22.1534023 L23.9245402,22.1534023 L23.9245402,59.6251464 L34.5110803,59.6251464 L34.5110803,55.0780928 L47.0807434,55.0780928 L47.0807434,59.6251464 L57.9011613,59.6251464 L57.9011613,22.1534023 L46.2384432,22.1534023 L47.0807434,45.574944 L40.9128507,50.2059112 L34.5110803,45.574944 L35.2727414,22.1534023 Z" id="Combined-Shape" fill="#000000"></path>
                <g id="hiresuit-wpjobopenings-logo" transform="translate(363.9594, 1.7571)">
                    <g id="formerly-WP-JOB-OPEN" transform="translate(32.5654, 17.5713)" fill="#000000" fill-rule="nonzero">
                        <path d="M6.49534424,6.93771547 L4.06482833,6.93771547 L4.06482833,15.2378222 L2.03241416,15.2378222 L2.03241416,6.93771547 L0.167621787,6.93771547 L0.167621787,5.15612691 L2.03241416,5.15612691 L2.03241416,3.4583778 C2.03241416,2.38243805 2.34670501,1.5370568 2.97528671,0.922234081 C3.60386841,0.307411361 4.39308766,0 5.34294445,0 C5.94358919,0 6.33470669,0.0698662182 6.51629696,0.209598655 L6.51629696,1.97022735 C6.30676973,1.88638789 6.02041584,1.84446816 5.6572353,1.84446816 C5.22421235,1.84446816 4.85055545,1.97372067 4.5362646,2.23222567 C4.22197375,2.49073068 4.06482833,2.93438117 4.06482833,3.56317713 L4.06482833,5.15612691 L6.49534424,5.15612691 L6.49534424,6.93771547 Z" id="Path"></path>
                        <path d="M9.60516953,12.8483975 C10.2197827,13.4771935 10.9670965,13.7915915 11.8471109,13.7915915 C12.7271253,13.7915915 13.470947,13.4737002 14.078576,12.8379176 C14.6862049,12.202135 14.9900194,11.3183274 14.9900194,10.1864946 C14.9900194,9.06863513 14.6862049,8.19181409 14.078576,7.5560315 C13.470947,6.92024892 12.7271253,6.60235762 11.8471109,6.60235762 C10.9670965,6.60235762 10.2232749,6.92024892 9.61564589,7.5560315 C9.00801688,8.19181409 8.70420239,9.06863513 8.70420239,10.1864946 C8.70420239,11.3183274 9.00452475,12.2056283 9.60516953,12.8483975 Z M8.13847886,6.3717991 C9.11627261,5.35175231 10.3524833,4.84172892 11.8471109,4.84172892 C13.3417385,4.84172892 14.574457,5.34825901 15.5452666,6.36131917 C16.5160761,7.37437933 17.0014809,8.64943782 17.0014809,10.1864946 C17.0014809,11.7375247 16.5195682,13.0195698 15.555743,14.0326299 C14.5919177,15.0456901 13.355707,15.5522202 11.8471109,15.5522202 C10.3385148,15.5522202 9.10230413,15.0456901 8.13847886,14.0326299 C7.17465358,13.0195698 6.69274095,11.7375247 6.69274095,10.1864946 C6.69274095,8.64943782 7.17465358,7.37787265 8.13847886,6.3717991 Z" id="Shape"></path>
                        <path d="M24.4485198,5.05132758 L24.4485198,7.14731413 C24.1551817,7.10539439 23.8688278,7.08443453 23.5894581,7.08443453 C21.7456185,7.08443453 20.8236987,8.11845456 20.8236987,10.1864946 L20.8236987,15.2378222 L18.8541427,15.2378222 L18.8541427,5.15612691 L20.7817932,5.15612691 L20.7817932,6.91675561 C21.3964064,5.63121719 22.4021371,4.98844798 23.7989854,4.98844798 C24.0224811,4.98844798 24.2389926,5.00940785 24.4485198,5.05132758 Z" id="Path"></path>
                        <path d="M27.8307305,15.2378222 L25.8821272,15.2378222 L25.8821272,5.15612691 L27.7678723,5.15612691 L27.7678723,6.4975583 C28.0751789,5.96657504 28.5082019,5.56135097 29.0669412,5.2818861 C29.6256804,5.00242123 30.2123567,4.86268879 30.8269699,4.86268879 C31.4834886,4.86268879 32.0841333,5.02338109 32.6289041,5.3447657 C33.1736749,5.6661503 33.5787609,6.14124058 33.8441621,6.77003655 C34.5425862,5.49847137 35.667049,4.86268879 37.2175506,4.86268879 C38.1813758,4.86268879 39.0020241,5.19106002 39.6794955,5.84780247 C40.3569669,6.50454491 40.6957026,7.45472549 40.6957026,8.69834417 L40.6957026,15.2378222 L38.7470994,15.2378222 L38.7470994,8.90794283 C38.7470994,8.20928065 38.5690012,7.6503509 38.2128049,7.23115359 C37.8566086,6.81195628 37.3223142,6.60235762 36.6099216,6.60235762 C35.9254659,6.60235762 35.3667266,6.84339608 34.9337037,7.32547298 C34.5006807,7.80754989 34.2841693,8.41189267 34.2841693,9.13850135 L34.2841693,15.2378222 L32.3146133,15.2378222 L32.3146133,8.90794283 C32.3146133,8.20928065 32.1365151,7.6503509 31.7803188,7.23115359 C31.4241226,6.81195628 30.8898281,6.60235762 30.1774355,6.60235762 C29.4790113,6.60235762 28.9132878,6.83990276 28.4802649,7.31499305 C28.0472419,7.79008334 27.8307305,8.40490605 27.8307305,9.15946121 L27.8307305,15.2378222 Z" id="Path"></path>
                        <path d="M44.4550623,9.15946121 L49.9656285,9.15946121 C49.9376916,8.40490605 49.6862589,7.78659002 49.2113305,7.30451312 C48.7364021,6.82243621 48.065915,6.58139776 47.199869,6.58139776 C46.417634,6.58139776 45.7750838,6.83640946 45.2722185,7.34643285 C44.7693531,7.85645624 44.4969677,8.46079903 44.4550623,9.15946121 Z M50.2589666,11.7794444 L51.9561372,12.3663206 C51.6627991,13.302528 51.1180283,14.0675631 50.3218248,14.6614259 C49.5256213,15.2552887 48.561796,15.5522202 47.430349,15.5522202 C46.0195323,15.5522202 44.8217349,15.0666499 43.8369569,14.0955095 C42.8521789,13.1243691 42.3597899,11.8143775 42.3597899,10.1655348 C42.3597899,8.62847796 42.8347183,7.35691278 43.7845751,6.35083924 C44.734432,5.3447657 45.865879,4.84172892 47.1789163,4.84172892 C48.7014809,4.84172892 49.8888019,5.32031252 50.7408793,6.27747971 C51.5929567,7.2346469 52.0189954,8.516692 52.0189954,10.123615 C52.0189954,10.3751334 52.005027,10.5847321 51.9770899,10.752411 L44.3922041,10.752411 C44.4061726,11.6466986 44.7030029,12.3802939 45.2826948,12.9531969 C45.8623869,13.5260998 46.5782716,13.8125513 47.430349,13.8125513 C48.8691027,13.8125513 49.8119752,13.1348491 50.2589666,11.7794444 Z" id="Shape"></path>
                        <path d="M59.4660344,5.05132758 L59.4660344,7.14731413 C59.1726963,7.10539439 58.8863424,7.08443453 58.6069727,7.08443453 C56.7631331,7.08443453 55.8412133,8.11845456 55.8412133,10.1864946 L55.8412133,15.2378222 L53.8716573,15.2378222 L53.8716573,5.15612691 L55.7993078,5.15612691 L55.7993078,6.91675561 C56.413921,5.63121719 57.4196517,4.98844798 58.8165,4.98844798 C59.0399957,4.98844798 59.2565072,5.00940785 59.4660344,5.05132758 Z" id="Path"></path>
                        <polygon id="Path" points="62.8691977 15.2378222 60.8996417 15.2378222 60.8996417 0.0628795964 62.8691977 0.0628795964"></polygon>
                        <polygon id="Path" points="68.0742954 19.4507552 65.9161649 19.4507552 68.4304917 14.1269493 64.0932779 5.15612691 66.356172 5.15612691 69.4990805 12.1148022 72.5162727 5.15612691 74.6324978 5.15612691"></polygon>
                        <polygon id="Path" points="16.9374196 38.0116688 19.566034 27.6079537 23.2689517 27.6079537 18.857451 43.8194569 15.1316758 43.8194569 11.6801909 33.0727623 8.20584838 43.8194569 4.41150066 43.8194569 0 27.6079537 3.84006275 27.6079537 6.51439217 37.9888034 9.87444707 27.6079537 13.5773647 27.6079537"></polygon>
                        <path d="M28.1700844,34.8791216 L30.2729759,34.8791216 C30.9587014,34.8791216 31.514901,34.6923882 31.9415746,34.3189215 C32.3682483,33.9454549 32.5815851,33.446229 32.5815851,32.8212439 C32.5815851,32.1810153 32.3720579,31.6741676 31.9530034,31.3007009 C31.5339489,30.9272342 30.9739398,30.7405009 30.2729759,30.7405009 L28.1700844,30.7405009 L28.1700844,34.8791216 Z M30.6386962,37.9888034 L28.1472269,37.9888034 L28.1472269,43.8194569 L24.5357393,43.8194569 L24.5357393,27.6079537 L30.6386962,27.6079537 C32.2844374,27.6079537 33.6216021,28.0957469 34.6501903,29.0713334 C35.6787786,30.0469199 36.1930727,31.2892683 36.1930727,32.7983786 C36.1930727,34.337976 35.6787786,35.5879461 34.6501903,36.5482891 C33.6216021,37.508632 32.2844374,37.9888034 30.6386962,37.9888034 Z" id="Shape"></path>
                        <path d="M41.4238348,38.8119545 L41.4238348,37.7372851 L44.8524623,37.1427871 L44.8524623,38.6290321 C44.8524623,39.3149913 45.039132,39.8370825 45.4124714,40.1953056 C45.7858109,40.5535288 46.2543899,40.7326404 46.8182087,40.7326404 C47.3972658,40.7326404 47.8582257,40.5382853 48.2010884,40.149575 C48.5439512,39.7608648 48.7153825,39.2616389 48.7153825,38.6518974 L48.7153825,27.6079537 L52.3268701,27.6079537 L52.3268701,38.7433586 C52.3268701,40.2524689 51.8087664,41.5329262 50.772559,42.5847303 C49.7363516,43.6365345 48.425854,44.1624365 46.8410662,44.1624365 C45.2258017,44.1624365 43.9191137,43.6708324 42.9210021,42.6876242 C41.9228906,41.704416 41.4238348,40.4125261 41.4238348,38.8119545 Z" id="Path"></path>
                        <path d="M59.1937493,32.0666887 C58.2642103,32.9050833 57.7994408,34.1169447 57.7994408,35.7022727 C57.7994408,37.2876007 58.2680199,38.499462 59.205178,39.3378566 C60.1423362,40.1762512 61.2356874,40.5954485 62.4852316,40.5954485 C63.7347759,40.5954485 64.8243175,40.1762512 65.7538565,39.3378566 C66.6833955,38.499462 67.148165,37.2876007 67.148165,35.7022727 C67.148165,34.1169447 66.6833955,32.9012725 65.7538565,32.0552561 C64.8243175,31.2092397 63.7347759,30.7862315 62.4852316,30.7862315 C61.2356874,30.7862315 60.1385266,31.2130506 59.1937493,32.0666887 Z M54.0508081,35.725138 C54.0508081,33.2099541 54.8698691,31.1711308 56.5079911,29.6086681 C58.1461131,28.0462054 60.1385266,27.2649741 62.4852316,27.2649741 C64.8319367,27.2649741 66.8205406,28.0500163 68.4510434,29.6201008 C70.0815463,31.1901853 70.8967977,33.2251977 70.8967977,35.725138 C70.8967977,38.2250783 70.0815463,40.2562798 68.4510434,41.8187425 C66.8205406,43.3812052 64.8319367,44.1624365 62.4852316,44.1624365 C60.1385266,44.1624365 58.1461131,43.3812052 56.5079911,41.8187425 C54.8698691,40.2562798 54.0508081,38.2250783 54.0508081,35.725138 Z" id="Shape"></path>
                        <path d="M72.7578807,27.6079537 L78.8151225,27.6079537 C80.384672,27.6079537 81.6189778,28.0119075 82.5180401,28.819815 C83.4171025,29.6277226 83.8666336,30.671905 83.8666336,31.9523622 C83.8666336,32.7602697 83.641868,33.4843378 83.1923369,34.1245664 C82.7428057,34.764795 82.1751774,35.1992359 81.4894519,35.427889 C82.2818458,35.6108114 82.9599521,36.0414414 83.5237709,36.7197789 C84.0875896,37.3981163 84.369499,38.2327001 84.369499,39.2235301 C84.369499,40.5649615 83.9009199,41.6663071 82.9637617,42.527567 C82.0266035,43.388827 80.8037264,43.8194569 79.2951303,43.8194569 L72.7578807,43.8194569 L72.7578807,27.6079537 Z M76.2779382,34.1017011 L78.2436846,34.1017011 C78.883695,34.1017011 79.39037,33.9454549 79.7637094,33.6329623 C80.1370489,33.3204698 80.3237186,32.8898398 80.3237186,32.3410724 C80.3237186,31.8075486 80.1408584,31.3845404 79.7751382,31.0720478 C79.4094179,30.7595553 78.883695,30.603309 78.1979696,30.603309 L76.2779382,30.603309 L76.2779382,34.1017011 Z M76.2779382,40.8698322 L78.5408323,40.8698322 C79.2417961,40.8698322 79.7903765,40.6983424 80.1865735,40.3553628 C80.5827704,40.0123832 80.7808689,39.5512661 80.7808689,38.9720117 C80.7808689,38.4080008 80.5827704,37.9506946 80.1865735,37.6000932 C79.7903765,37.2494918 79.2417961,37.0741911 78.5408323,37.0741911 L76.2779382,37.0741911 L76.2779382,40.8698322 Z" id="Shape"></path>
                        <path d="M95.2460678,32.0666887 C94.3165287,32.9050833 93.8517592,34.1169447 93.8517592,35.7022727 C93.8517592,37.2876007 94.3203382,38.499462 95.2574966,39.3378566 C96.1946548,40.1762512 97.288006,40.5954485 98.5375502,40.5954485 C99.7870944,40.5954485 100.876636,40.1762512 101.806175,39.3378566 C102.735714,38.499462 103.200484,37.2876007 103.200484,35.7022727 C103.200484,34.1169447 102.735714,32.9012725 101.806175,32.0552561 C100.876636,31.2092397 99.7870944,30.7862315 98.5375502,30.7862315 C97.288006,30.7862315 96.1908452,31.2130506 95.2460678,32.0666887 Z M90.1031265,35.725138 C90.1031265,33.2099541 90.9221875,31.1711308 92.5603095,29.6086681 C94.1984315,28.0462054 96.1908452,27.2649741 98.5375502,27.2649741 C100.884255,27.2649741 102.872859,28.0500163 104.503362,29.6201008 C106.133865,31.1901853 106.949116,33.2251977 106.949116,35.725138 C106.949116,38.2250783 106.133865,40.2562798 104.503362,41.8187425 C102.872859,43.3812052 100.884255,44.1624365 98.5375502,44.1624365 C96.1908452,44.1624365 94.1984315,43.3812052 92.5603095,41.8187425 C90.9221875,40.2562798 90.1031265,38.2250783 90.1031265,35.725138 Z" id="Shape"></path>
                        <path d="M112.444544,34.8791216 L114.547436,34.8791216 C115.233161,34.8791216 115.789361,34.6923882 116.216034,34.3189215 C116.642708,33.9454549 116.856045,33.446229 116.856045,32.8212439 C116.856045,32.1810153 116.646518,31.6741676 116.227463,31.3007009 C115.808409,30.9272342 115.248399,30.7405009 114.547436,30.7405009 L112.444544,30.7405009 L112.444544,34.8791216 Z M114.913156,37.9888034 L112.421687,37.9888034 L112.421687,43.8194569 L108.810199,43.8194569 L108.810199,27.6079537 L114.913156,27.6079537 C116.558897,27.6079537 117.896062,28.0957469 118.92465,29.0713334 C119.953238,30.0469199 120.467532,31.2892683 120.467532,32.7983786 C120.467532,34.337976 119.953238,35.5879461 118.92465,36.5482891 C117.896062,37.508632 116.558897,37.9888034 114.913156,37.9888034 Z" id="Shape"></path>
                        <polygon id="Path" points="132.271635 43.8194569 121.985752 43.8194569 121.985752 27.6079537 132.248777 27.6079537 132.248777 31.0148846 125.59724 31.0148846 125.59724 34.1017011 131.631624 34.1017011 131.631624 37.2799789 125.59724 37.2799789 125.59724 40.3896608 132.271635 40.3896608"></polygon>
                        <polygon id="Path" points="148.670099 43.8194569 144.852894 43.8194569 138.178499 33.1642235 138.178499 43.8194569 134.589869 43.8194569 134.589869 27.6079537 138.978512 27.6079537 145.058611 37.4629014 145.058611 27.6079537 148.670099 27.6079537"></polygon>
                        <polygon id="Path" points="155.102685 43.8194569 151.445482 43.8194569 151.445482 27.6079537 155.102685 27.6079537"></polygon>
                        <polygon id="Path" points="171.958299 43.8194569 168.141093 43.8194569 161.466699 33.1642235 161.466699 43.8194569 157.878068 43.8194569 157.878068 27.6079537 162.266712 27.6079537 168.346811 37.4629014 168.346811 27.6079537 171.958299 27.6079537"></polygon>
                        <path d="M189.705355,43.8194569 L186.779593,43.8194569 L186.551018,42.1731548 C186.154821,42.7371657 185.568145,43.2097154 184.790989,43.5908039 C184.013834,43.9718923 183.084295,44.1624365 182.002372,44.1624365 C179.686144,44.1624365 177.739445,43.3812052 176.162277,41.8187425 C174.585108,40.2562798 173.796524,38.2250783 173.796524,35.725138 C173.796524,33.2404412 174.615585,31.2092397 176.253707,29.6315334 C177.891829,28.0538272 179.884242,27.2649741 182.230947,27.2649741 C184.333839,27.2649741 186.002438,27.7603891 187.236743,28.7512191 C188.471049,29.7420491 189.301539,30.9158016 189.728213,32.2724765 L186.25387,33.4843378 C186.086248,32.7983786 185.671004,32.1543391 185.008136,31.5522193 C184.345268,30.9500995 183.419538,30.6490396 182.230947,30.6490396 C180.981403,30.6490396 179.872814,31.0796696 178.905179,31.9409295 C177.937544,32.8021895 177.453726,34.0635923 177.453726,35.725138 C177.453726,37.3409531 177.918496,38.6023559 178.848035,39.5093464 C179.777574,40.416337 180.935688,40.8698322 182.322377,40.8698322 C183.510968,40.8698322 184.440507,40.5840159 185.110994,40.0123832 C185.781482,39.4407505 186.185298,38.8424416 186.322443,38.2174565 L181.453792,38.2174565 L181.453792,35.1535053 L189.705355,35.1535053 L189.705355,43.8194569 Z" id="Path"></path>
                        <path d="M203.178057,31.5865173 L199.93229,32.5011296 C199.856098,31.9980928 199.604666,31.5331649 199.177992,31.1063458 C198.751318,30.6795267 198.103689,30.4661172 197.235103,30.4661172 C196.579854,30.4661172 196.046512,30.637607 195.635077,30.9805866 C195.223642,31.3235662 195.017924,31.7313309 195.017924,32.2038806 C195.017924,33.0422752 195.551266,33.5605555 196.61795,33.7587215 L198.789414,34.170297 C200.282772,34.4446807 201.437076,35.0277461 202.252328,35.9194931 C203.067579,36.8112401 203.475205,37.8516116 203.475205,39.0406076 C203.475205,40.3972825 202.934244,41.5900894 201.852321,42.6190283 C200.770399,43.6479671 199.315137,44.1624365 197.486536,44.1624365 C195.444598,44.1624365 193.863619,43.6327236 192.743601,42.5732977 C191.623583,41.5138717 190.995001,40.3134431 190.857856,38.9720117 L194.172196,38.1717259 C194.248388,38.9796334 194.564583,39.6465383 195.120783,40.1724403 C195.676982,40.6983424 196.480805,40.9612935 197.532251,40.9612935 C198.233215,40.9612935 198.789414,40.8050472 199.200849,40.4925546 C199.612285,40.1800621 199.818002,39.7722975 199.818002,39.2692607 C199.818002,38.8576851 199.665619,38.5108946 199.360852,38.2288892 C199.056085,37.9468837 198.629412,37.7525286 198.080831,37.6458238 L195.863652,37.2342483 C194.492201,36.9751081 193.414088,36.418719 192.629313,35.5650808 C191.844539,34.7114427 191.452151,33.6825038 191.452151,32.4782643 C191.452151,30.9843975 192.023589,29.7420491 193.166465,28.7512191 C194.309341,27.7603891 195.673173,27.2649741 197.257961,27.2649741 C198.217976,27.2649741 199.075133,27.3983551 199.829431,27.665117 C200.583729,27.9318789 201.181834,28.2862912 201.623746,28.7283538 C202.065658,29.1704164 202.41233,29.6277226 202.663763,30.1002723 C202.915196,30.572822 203.086627,31.068237 203.178057,31.5865173 Z" id="Path"></path>
                    </g>
                    <line x1="0.409996095" y1="0" x2="0.409996095" y2="78.0163998" id="Line" stroke="#ACACAC" stroke-linecap="square"></line>
                </g>
            </g>
        </g>
    </g>
</svg>