<svg width="205" height="29" viewBox="0 0 205 29" fill="none" xmlns="http://www.w3.org/2000/svg">
<path d="M35.492 20.1372V6.81242H37.9632V12.2904H43.8141V6.81242H46.2853V20.1372H43.8141V14.6407H37.9632V20.1372H35.492Z" fill="black"/>
<path d="M48.91 8.75562V6.53482H51.3812V8.75562H48.91ZM48.91 20.1372V10.1436H51.3812V20.1372H48.91Z" fill="black"/>
<path d="M54.0058 20.1372V10.1436H56.1863V12.5865L55.9501 12.2719C56.0773 11.9264 56.2469 11.6118 56.4589 11.3281C56.6709 11.0443 56.9313 10.8099 57.2402 10.6248C57.4764 10.4767 57.7339 10.3611 58.0125 10.2778C58.2911 10.1945 58.5788 10.1421 58.8756 10.1205C59.1724 10.0989 59.4691 10.1066 59.7659 10.1436V12.494C59.4934 12.4076 59.1769 12.3783 58.8165 12.4061C58.4561 12.4338 58.1306 12.5186 57.8398 12.6605C57.5491 12.7962 57.3038 12.9767 57.1039 13.2019C56.9041 13.427 56.7526 13.6923 56.6497 13.9976C56.5467 14.303 56.4952 14.6469 56.4952 15.0294V20.1372H54.0058Z" fill="black"/>
<path d="M65.7703 20.4148C64.7649 20.4148 63.8791 20.1943 63.1129 19.7532C62.3467 19.3121 61.747 18.7045 61.314 17.9303C60.8809 17.1561 60.6644 16.2693 60.6644 15.27C60.6644 14.1781 60.8764 13.2281 61.3004 12.4199C61.7243 11.6118 62.3088 10.9841 63.0538 10.5369C63.7988 10.0896 64.6559 9.86603 65.625 9.86603C66.6546 9.86603 67.5299 10.1128 68.2506 10.6063C68.9714 11.0998 69.5044 11.7938 69.8496 12.6883C70.1949 13.5828 70.316 14.6346 70.213 15.8437H67.7691V14.9184C67.7691 13.9005 67.6101 13.1679 67.2921 12.7207C66.9741 12.2734 66.4548 12.0498 65.734 12.0498C64.8921 12.0498 64.2728 12.3105 63.876 12.8317C63.4793 13.353 63.281 14.1226 63.281 15.1404C63.281 16.0719 63.4793 16.7922 63.876 17.3011C64.2728 17.81 64.8557 18.0645 65.625 18.0645C66.1095 18.0645 66.5244 17.9565 66.8697 17.7406C67.2149 17.5247 67.4784 17.2132 67.6601 16.806L70.1313 17.5278C69.7618 18.4408 69.1788 19.1502 68.3824 19.6561C67.5859 20.1619 66.7152 20.4148 65.7703 20.4148ZM62.5178 15.8437V13.9745H69.0229V15.8437H62.5178Z" fill="black"/>
<path d="M71.7929 20.1372V19.8226L78.0072 9.16277H72.338V6.81242H82.3319V7.12703L76.1538 17.7684H82.1502V20.1372H71.7929Z" fill="black"/>
<path d="M88.8269 20.4148C87.8396 20.4148 86.9735 20.1897 86.2285 19.7393C85.4835 19.289 84.9035 18.6675 84.4886 17.8748C84.0737 17.0821 83.8663 16.1706 83.8663 15.1404C83.8663 14.0979 84.0783 13.1803 84.5022 12.3876C84.9262 11.5949 85.5107 10.9764 86.2557 10.5323C87.0007 10.0881 87.8578 9.86603 88.8269 9.86603C89.8141 9.86603 90.6818 10.0912 91.4298 10.5415C92.1778 10.9919 92.7608 11.6134 93.1787 12.4061C93.5966 13.1988 93.8056 14.1102 93.8056 15.1404C93.8056 16.1768 93.5951 17.0913 93.1742 17.884C92.7532 18.6767 92.1687 19.2967 91.4207 19.744C90.6727 20.1912 89.8081 20.4148 88.8269 20.4148ZM88.8269 18.0645C89.6203 18.0645 90.2124 17.7915 90.603 17.2456C90.9937 16.6996 91.189 15.9979 91.189 15.1404C91.189 14.2521 90.9907 13.5427 90.5939 13.0122C90.1972 12.4816 89.6082 12.2164 88.8269 12.2164C88.2878 12.2164 87.8456 12.3398 87.5004 12.5865C87.1552 12.8333 86.8993 13.1756 86.7327 13.6136C86.5661 14.0516 86.4828 14.5606 86.4828 15.1404C86.4828 16.0349 86.6812 16.7459 87.0779 17.2733C87.4747 17.8008 88.0576 18.0645 88.8269 18.0645Z" fill="black"/>
<path d="M100.119 20.4148C99.1316 20.4148 98.2655 20.1897 97.5205 19.7393C96.7755 19.289 96.1955 18.6675 95.7806 17.8748C95.3657 17.0821 95.1583 16.1706 95.1583 15.1404C95.1583 14.0979 95.3703 13.1803 95.7943 12.3876C96.2182 11.5949 96.8027 10.9764 97.5477 10.5323C98.2927 10.0881 99.1498 9.86603 100.119 9.86603C101.106 9.86603 101.974 10.0912 102.722 10.5415C103.47 10.9919 104.053 11.6134 104.471 12.4061C104.889 13.1988 105.098 14.1102 105.098 15.1404C105.098 16.1768 104.887 17.0913 104.466 17.884C104.045 18.6767 103.461 19.2967 102.713 19.744C101.965 20.1912 101.1 20.4148 100.119 20.4148ZM100.119 18.0645C100.912 18.0645 101.504 17.7915 101.895 17.2456C102.286 16.6996 102.481 15.9979 102.481 15.1404C102.481 14.2521 102.283 13.5427 101.886 13.0122C101.489 12.4816 100.9 12.2164 100.119 12.2164C99.5798 12.2164 99.1377 12.3398 98.7924 12.5865C98.4472 12.8333 98.1913 13.1756 98.0247 13.6136C97.8581 14.0516 97.7749 14.5606 97.7749 15.1404C97.7749 16.0349 97.9732 16.7459 98.37 17.2733C98.7667 17.8008 99.3497 18.0645 100.119 18.0645Z" fill="black"/>
<path d="M112.883 20.1372C112.204 20.2668 111.54 20.3238 110.889 20.3084C110.237 20.293 109.656 20.1758 109.144 19.9568C108.632 19.7378 108.243 19.3846 107.977 18.8973C107.734 18.4408 107.607 17.9766 107.595 17.5047C107.583 17.0327 107.577 16.4976 107.577 15.8992V7.36762H110.048V15.7511C110.048 16.1398 110.053 16.4899 110.062 16.8014C110.071 17.1129 110.133 17.3612 110.248 17.5463C110.466 17.8979 110.814 18.0892 111.293 18.12C111.771 18.1508 112.301 18.1262 112.883 18.046V20.1372ZM105.905 12.0868V10.1436H112.883V12.0868H105.905Z" fill="black"/>
<path fill-rule="evenodd" clip-rule="evenodd" d="M13.9282 0C21.6205 0 27.8563 6.35117 27.8563 14.1857C27.8563 22.0203 21.6205 28.3715 13.9282 28.3715C6.23585 28.3715 0 22.0203 0 14.1857C0 6.35117 6.23585 0 13.9282 0ZM12.0515 7.70906H8.17422V20.7487H11.7913V19.1664H16.0859V20.7487H19.7829V7.70906H15.7981L16.0859 15.8594L13.9786 17.4709L11.7913 15.8594L12.0515 7.70906Z" fill="black"/>
<path d="M137.699 9.14023H136.868V12.0285H136.174V9.14023H135.537V8.52026H136.174V7.92947C136.174 7.55506 136.281 7.26088 136.496 7.04693C136.711 6.83298 136.98 6.72601 137.305 6.72601C137.51 6.72601 137.644 6.75032 137.706 6.79894V7.41162C137.634 7.38244 137.536 7.36785 137.412 7.36785C137.264 7.36785 137.137 7.41283 137.029 7.50279C136.922 7.59274 136.868 7.74713 136.868 7.96594V8.52026H137.699V9.14023Z" fill="black"/>
<path d="M138.761 11.1971C138.971 11.4159 139.226 11.5253 139.527 11.5253C139.828 11.5253 140.082 11.4147 140.289 11.1934C140.497 10.9722 140.601 10.6646 140.601 10.2708C140.601 9.88176 140.497 9.57664 140.289 9.35539C140.082 9.13415 139.828 9.02353 139.527 9.02353C139.226 9.02353 138.972 9.13415 138.765 9.35539C138.557 9.57664 138.453 9.88176 138.453 10.2708C138.453 10.6646 138.556 10.9734 138.761 11.1971ZM138.26 8.9433C138.594 8.58834 139.016 8.41085 139.527 8.41085C140.038 8.41085 140.459 8.58712 140.791 8.93965C141.122 9.29218 141.288 9.73588 141.288 10.2708C141.288 10.8105 141.123 11.2566 140.794 11.6092C140.465 11.9617 140.043 12.1379 139.527 12.1379C139.012 12.1379 138.589 11.9617 138.26 11.6092C137.931 11.2566 137.766 10.8105 137.766 10.2708C137.766 9.73588 137.931 9.2934 138.26 8.9433Z" fill="black"/>
<path d="M143.833 8.4838V9.21317C143.732 9.19858 143.634 9.19129 143.539 9.19129C142.909 9.19129 142.594 9.55111 142.594 10.2708V12.0285H141.921V8.52026H142.58V9.13294C142.79 8.68559 143.133 8.46191 143.611 8.46191C143.687 8.46191 143.761 8.46921 143.833 8.4838Z" fill="black"/>
<path d="M144.988 12.0285H144.322V8.52026H144.967V8.98706C145.072 8.80228 145.22 8.66127 145.411 8.56402C145.601 8.46677 145.802 8.41815 146.012 8.41815C146.236 8.41815 146.441 8.47407 146.628 8.5859C146.814 8.69774 146.952 8.86307 147.043 9.08188C147.281 8.63939 147.666 8.41815 148.195 8.41815C148.525 8.41815 148.805 8.53242 149.036 8.76095C149.268 8.98949 149.384 9.32014 149.384 9.7529V12.0285H148.718V9.82584C148.718 9.58271 148.657 9.38821 148.535 9.24234C148.414 9.09646 148.231 9.02353 147.988 9.02353C147.754 9.02353 147.563 9.10741 147.415 9.27516C147.267 9.44292 147.193 9.65322 147.193 9.90607V12.0285H146.52V9.82584C146.52 9.58271 146.459 9.38821 146.338 9.24234C146.216 9.09646 146.033 9.02353 145.79 9.02353C145.551 9.02353 145.358 9.10619 145.21 9.27151C145.062 9.43684 144.988 9.65079 144.988 9.91336V12.0285Z" fill="black"/>
<path d="M150.668 9.91336H152.551C152.541 9.65079 152.455 9.43562 152.293 9.26787C152.131 9.10011 151.902 9.01623 151.606 9.01623C151.339 9.01623 151.119 9.10497 150.947 9.28245C150.776 9.45994 150.682 9.67024 150.668 9.91336ZM152.651 10.8251L153.231 11.0293C153.131 11.3551 152.945 11.6213 152.673 11.828C152.401 12.0346 152.071 12.1379 151.685 12.1379C151.203 12.1379 150.793 11.969 150.457 11.631C150.12 11.2931 149.952 10.8372 149.952 10.2635C149.952 9.72859 150.115 9.2861 150.439 8.936C150.764 8.5859 151.15 8.41085 151.599 8.41085C152.119 8.41085 152.525 8.57739 152.816 8.91047C153.107 9.24355 153.252 9.68969 153.252 10.2489C153.252 10.3364 153.248 10.4093 153.238 10.4677H150.647C150.651 10.7789 150.753 11.0342 150.951 11.2335C151.149 11.4329 151.394 11.5326 151.685 11.5326C152.176 11.5326 152.498 11.2967 152.651 10.8251Z" fill="black"/>
<path d="M155.797 8.4838V9.21317C155.697 9.19858 155.599 9.19129 155.503 9.19129C154.873 9.19129 154.558 9.55111 154.558 10.2708V12.0285H153.885V8.52026H154.544V9.13294C154.754 8.68559 155.098 8.46191 155.575 8.46191C155.651 8.46191 155.725 8.46921 155.797 8.4838Z" fill="black"/>
<path d="M156.96 12.0285H156.287V6.74789H156.96V12.0285Z" fill="black"/>
<path d="M158.738 13.4946H158.001L158.86 11.642L157.378 8.52026H158.151L159.225 10.9418L160.256 8.52026H160.979L158.738 13.4946Z" fill="black"/>
<path d="M141.266 19.9535L142.164 16.3332H143.43L141.922 21.9745H140.649L139.47 18.2348L138.283 21.9745H136.987L135.479 16.3332H136.791L137.705 19.9456L138.853 16.3332H140.118L141.266 19.9535Z" fill="black"/>
<path d="M145.104 18.8634H145.823C146.057 18.8634 146.247 18.7984 146.393 18.6685C146.538 18.5385 146.611 18.3648 146.611 18.1473C146.611 17.9245 146.54 17.7482 146.397 17.6182C146.253 17.4882 146.062 17.4232 145.823 17.4232H145.104V18.8634ZM145.948 19.9456H145.096V21.9745H143.862V16.3332H145.948C146.51 16.3332 146.967 16.5029 147.318 16.8424C147.67 17.1819 147.845 17.6142 147.845 18.1394C147.845 18.6751 147.67 19.1101 147.318 19.4443C146.967 19.7785 146.51 19.9456 145.948 19.9456Z" fill="black"/>
<path d="M149.632 20.232V19.858L150.804 19.6512V20.1683C150.804 20.407 150.868 20.5887 150.995 20.7134C151.123 20.838 151.283 20.9004 151.476 20.9004C151.673 20.9004 151.831 20.8327 151.948 20.6975C152.065 20.5622 152.124 20.3885 152.124 20.1763V16.3332H153.358V20.2081C153.358 20.7333 153.181 21.1789 152.827 21.5449C152.473 21.9109 152.025 22.0939 151.483 22.0939C150.931 22.0939 150.485 21.9228 150.144 21.5807C149.803 21.2385 149.632 20.789 149.632 20.232Z" fill="black"/>
<path d="M155.704 17.8847C155.386 18.1765 155.227 18.5982 155.227 19.1499C155.227 19.7015 155.388 20.1233 155.708 20.415C156.028 20.7067 156.401 20.8526 156.828 20.8526C157.255 20.8526 157.628 20.7067 157.945 20.415C158.263 20.1233 158.422 19.7015 158.422 19.1499C158.422 18.5982 158.263 18.1752 157.945 17.8808C157.628 17.5864 157.255 17.4392 156.828 17.4392C156.401 17.4392 156.027 17.5877 155.704 17.8847ZM153.947 19.1578C153.947 18.2826 154.227 17.5731 154.786 17.0294C155.346 16.4857 156.027 16.2138 156.828 16.2138C157.63 16.2138 158.31 16.487 158.867 17.0334C159.424 17.5797 159.702 18.2879 159.702 19.1578C159.702 20.0278 159.424 20.7346 158.867 21.2783C158.31 21.822 157.63 22.0939 156.828 22.0939C156.027 22.0939 155.346 21.822 154.786 21.2783C154.227 20.7346 153.947 20.0278 153.947 19.1578Z" fill="black"/>
<path d="M160.338 16.3332H162.408C162.944 16.3332 163.366 16.4737 163.673 16.7549C163.98 17.036 164.134 17.3994 164.134 17.845C164.134 18.1261 164.057 18.3781 163.903 18.6009C163.75 18.8236 163.556 18.9748 163.322 19.0544C163.592 19.118 163.824 19.2679 164.017 19.5039C164.209 19.74 164.306 20.0304 164.306 20.3752C164.306 20.842 164.145 21.2253 163.825 21.525C163.505 21.8247 163.087 21.9745 162.572 21.9745H160.338V16.3332ZM161.541 18.5929H162.213C162.431 18.5929 162.604 18.5385 162.732 18.4298C162.859 18.321 162.923 18.1712 162.923 17.9802C162.923 17.7946 162.861 17.6474 162.736 17.5386C162.611 17.4299 162.431 17.3755 162.197 17.3755H161.541V18.5929ZM161.541 20.9481H162.314C162.554 20.9481 162.741 20.8884 162.876 20.7691C163.012 20.6497 163.079 20.4893 163.079 20.2877C163.079 20.0914 163.012 19.9323 162.876 19.8103C162.741 19.6883 162.554 19.6273 162.314 19.6273H161.541V20.9481Z" fill="black"/>
<path d="M168.022 17.8847C167.704 18.1765 167.545 18.5982 167.545 19.1499C167.545 19.7015 167.705 20.1233 168.026 20.415C168.346 20.7067 168.719 20.8526 169.146 20.8526C169.573 20.8526 169.946 20.7067 170.263 20.415C170.581 20.1233 170.739 19.7015 170.739 19.1499C170.739 18.5982 170.581 18.1752 170.263 17.8808C169.946 17.5864 169.573 17.4392 169.146 17.4392C168.719 17.4392 168.345 17.5877 168.022 17.8847ZM166.265 19.1578C166.265 18.2826 166.544 17.5731 167.104 17.0294C167.664 16.4857 168.345 16.2138 169.146 16.2138C169.948 16.2138 170.628 16.487 171.185 17.0334C171.742 17.5797 172.02 18.2879 172.02 19.1578C172.02 20.0278 171.742 20.7346 171.185 21.2783C170.628 21.822 169.948 22.0939 169.146 22.0939C168.345 22.0939 167.664 21.822 167.104 21.2783C166.544 20.7346 166.265 20.0278 166.265 19.1578Z" fill="black"/>
<path d="M173.898 18.8634H174.616C174.851 18.8634 175.041 18.7984 175.186 18.6685C175.332 18.5385 175.405 18.3648 175.405 18.1473C175.405 17.9245 175.334 17.7482 175.19 17.6182C175.047 17.4882 174.856 17.4232 174.616 17.4232H173.898V18.8634ZM174.741 19.9456H173.89V21.9745H172.656V16.3332H174.741C175.304 16.3332 175.76 16.5029 176.112 16.8424C176.463 17.1819 176.639 17.6142 176.639 18.1394C176.639 18.6751 176.463 19.1101 176.112 19.4443C175.76 19.7785 175.304 19.9456 174.741 19.9456Z" fill="black"/>
<path d="M180.672 21.9745H177.158V16.3332H180.664V17.5187H178.392V18.5929H180.453V19.6989H178.392V20.781H180.672V21.9745Z" fill="black"/>
<path d="M186.275 21.9745H184.971L182.69 18.2667V21.9745H181.464V16.3332H182.964L185.041 19.7625V16.3332H186.275V21.9745Z" fill="black"/>
<path d="M188.473 21.9745H187.223V16.3332H188.473V21.9745Z" fill="black"/>
<path d="M194.232 21.9745H192.927L190.647 18.2667V21.9745H189.421V16.3332H190.92L192.998 19.7625V16.3332H194.232V21.9745Z" fill="black"/>
<path d="M200.295 21.9745H199.296L199.218 21.4016C199.082 21.5979 198.882 21.7623 198.616 21.895C198.351 22.0276 198.033 22.0939 197.663 22.0939C196.872 22.0939 196.207 21.822 195.668 21.2783C195.129 20.7346 194.86 20.0278 194.86 19.1578C194.86 18.2932 195.14 17.5864 195.699 17.0373C196.259 16.4883 196.94 16.2138 197.742 16.2138C198.46 16.2138 199.03 16.3862 199.452 16.731C199.874 17.0758 200.157 17.4842 200.303 17.9564L199.116 18.3781C199.059 18.1394 198.917 17.9152 198.69 17.7057C198.464 17.4962 198.148 17.3914 197.742 17.3914C197.315 17.3914 196.936 17.5413 196.605 17.841C196.275 18.1407 196.109 18.5796 196.109 19.1578C196.109 19.7201 196.268 20.1591 196.586 20.4747C196.903 20.7903 197.299 20.9481 197.773 20.9481C198.179 20.9481 198.496 20.8486 198.726 20.6497C198.955 20.4508 199.093 20.2426 199.139 20.0251H197.476V18.9589H200.295V21.9745Z" fill="black"/>
<path d="M204.898 17.7176L203.789 18.0359C203.763 17.8609 203.678 17.6991 203.532 17.5506C203.386 17.402 203.165 17.3278 202.868 17.3278C202.644 17.3278 202.462 17.3874 202.321 17.5068C202.181 17.6261 202.11 17.768 202.11 17.9325C202.11 18.2242 202.293 18.4046 202.657 18.4735L203.399 18.6168C203.909 18.7122 204.304 18.9151 204.582 19.2255C204.861 19.5358 205 19.8978 205 20.3116C205 20.7837 204.815 21.1987 204.446 21.5568C204.076 21.9149 203.579 22.0939 202.954 22.0939C202.256 22.0939 201.716 21.9096 201.333 21.5409C200.951 21.1722 200.736 20.7545 200.689 20.2877L201.821 20.0092C201.847 20.2903 201.956 20.5224 202.146 20.7054C202.336 20.8884 202.61 20.9799 202.969 20.9799C203.209 20.9799 203.399 20.9256 203.54 20.8168C203.68 20.7081 203.75 20.5662 203.75 20.3911C203.75 20.2479 203.698 20.1272 203.594 20.0291C203.49 19.931 203.344 19.8633 203.157 19.8262L202.399 19.683C201.931 19.5928 201.562 19.3992 201.294 19.1021C201.026 18.8051 200.892 18.447 200.892 18.028C200.892 17.5081 201.087 17.0758 201.478 16.731C201.868 16.3862 202.334 16.2138 202.876 16.2138C203.204 16.2138 203.497 16.2602 203.754 16.3531C204.012 16.4459 204.216 16.5692 204.367 16.723C204.518 16.8769 204.637 17.036 204.723 17.2005C204.809 17.3649 204.867 17.5373 204.898 17.7176Z" fill="black"/>
<path d="M124.493 0.61145V27.76" stroke="#070707" stroke-linecap="square"/>
</svg>
