<svg width="528" height="73" viewBox="0 0 528 73" fill="none" xmlns="http://www.w3.org/2000/svg">
<path d="M91.321 51.8132V17.5284H97.6795V31.6233H112.734V17.5284H119.092V51.8132H112.734V37.6707H97.6795V51.8132H91.321Z" fill="black"/>
<path d="M125.845 22.5283V16.8141H132.204V22.5283H125.845ZM125.845 51.8132V26.0996H132.204V51.8132H125.845Z" fill="black"/>
<path d="M138.958 51.8133V26.0996H144.568V32.3852L143.96 31.5757C144.287 30.6868 144.724 29.8773 145.269 29.1472C145.815 28.417 146.485 27.8139 147.28 27.3377C147.887 26.9568 148.55 26.6591 149.267 26.4449C149.983 26.2306 150.724 26.0957 151.487 26.0401C152.251 25.9846 153.015 26.0044 153.778 26.0996V32.1471C153.077 31.9249 152.263 31.8495 151.335 31.9209C150.408 31.9923 149.57 32.2106 148.822 32.5757C148.074 32.9249 147.443 33.3891 146.929 33.9685C146.415 34.5478 146.025 35.2304 145.76 36.016C145.495 36.8017 145.363 37.6866 145.363 38.6707V51.8133H138.958Z" fill="black"/>
<path d="M169.227 52.5275C166.64 52.5275 164.361 51.9601 162.39 50.8252C160.418 49.6903 158.875 48.1268 157.761 46.1348C156.647 44.1428 156.09 41.8611 156.09 39.2898C156.09 36.4803 156.635 34.0359 157.726 31.9566C158.817 29.8773 160.321 28.2623 162.238 27.1115C164.155 25.9607 166.36 25.3854 168.853 25.3854C171.503 25.3854 173.755 26.0203 175.609 27.2901C177.464 28.5599 178.835 30.3456 179.723 32.6471C180.612 34.9486 180.923 37.6549 180.658 40.7659H174.37V38.385C174.37 35.766 173.961 33.8812 173.143 32.7304C172.325 31.5796 170.988 31.0043 169.134 31.0043C166.968 31.0043 165.374 31.6749 164.353 33.0161C163.332 34.3574 162.822 36.3375 162.822 38.9564C162.822 41.3532 163.332 43.2063 164.353 44.5158C165.374 45.8253 166.874 46.4801 168.853 46.4801C170.1 46.4801 171.168 46.2023 172.056 45.6467C172.944 45.0912 173.622 44.2896 174.09 43.242L180.448 45.0991C179.497 47.4483 177.997 49.2736 175.948 50.5752C173.899 51.8767 171.658 52.5275 169.227 52.5275ZM160.858 40.7659V35.9565H177.596V40.7659H160.858Z" fill="black"/>
<path d="M184.724 51.8132V51.0037L200.713 23.5759H186.126V17.5284H211.841V18.3379L195.945 45.7182H211.373V51.8132H184.724Z" fill="black"/>
<path d="M228.552 52.5275C226.012 52.5275 223.783 51.9482 221.866 50.7895C219.949 49.6308 218.457 48.0316 217.39 45.992C216.322 43.9523 215.788 41.6072 215.788 38.9564C215.788 36.274 216.334 33.9129 217.425 31.8733C218.516 29.8337 220.019 28.2424 221.936 27.0996C223.853 25.9568 226.058 25.3854 228.552 25.3854C231.092 25.3854 233.325 25.9647 235.249 27.1234C237.174 28.2821 238.674 29.8813 239.749 31.9209C240.825 33.9605 241.362 36.3057 241.362 38.9564C241.362 41.623 240.821 43.9761 239.738 46.0158C238.655 48.0554 237.151 49.6506 235.226 50.8014C233.301 51.9521 231.077 52.5275 228.552 52.5275ZM228.552 46.4801C230.594 46.4801 232.117 45.7777 233.122 44.373C234.127 42.9682 234.63 41.1627 234.63 38.9564C234.63 36.6708 234.119 34.8454 233.099 33.4804C232.078 32.1153 230.562 31.4328 228.552 31.4328C227.165 31.4328 226.027 31.7503 225.139 32.3852C224.251 33.0201 223.592 33.901 223.164 35.028C222.735 36.1549 222.521 37.4644 222.521 38.9564C222.521 41.258 223.031 43.0873 224.052 44.4444C225.073 45.8015 226.573 46.4801 228.552 46.4801Z" fill="black"/>
<path d="M257.606 52.5275C255.066 52.5275 252.838 51.9482 250.921 50.7895C249.004 49.6308 247.512 48.0316 246.444 45.992C245.377 43.9523 244.843 41.6072 244.843 38.9564C244.843 36.274 245.388 33.9129 246.479 31.8733C247.57 29.8337 249.074 28.2424 250.991 27.0996C252.908 25.9568 255.113 25.3854 257.606 25.3854C260.147 25.3854 262.379 25.9647 264.304 27.1234C266.228 28.2821 267.728 29.8813 268.804 31.9209C269.879 33.9605 270.417 36.3057 270.417 38.9564C270.417 41.623 269.875 43.9761 268.792 46.0158C267.709 48.0554 266.205 49.6506 264.28 50.8014C262.356 51.9521 260.131 52.5275 257.606 52.5275ZM257.606 46.4801C259.648 46.4801 261.171 45.7777 262.177 44.373C263.182 42.9682 263.684 41.1627 263.684 38.9564C263.684 36.6708 263.174 34.8454 262.153 33.4804C261.132 32.1153 259.617 31.4328 257.606 31.4328C256.219 31.4328 255.082 31.7503 254.193 32.3852C253.305 33.0201 252.647 33.901 252.218 35.028C251.79 36.1549 251.575 37.4644 251.575 38.9564C251.575 41.258 252.086 43.0873 253.106 44.4444C254.127 45.8015 255.627 46.4801 257.606 46.4801Z" fill="black"/>
<path d="M290.448 51.8132C288.703 52.1465 286.992 52.2934 285.317 52.2537C283.642 52.214 282.146 51.9124 280.829 51.3489C279.512 50.7855 278.511 49.8768 277.825 48.6228C277.202 47.4482 276.874 46.2538 276.843 45.0396C276.812 43.8253 276.796 42.4484 276.796 40.9087V18.9569H283.155V40.5278C283.155 41.5278 283.167 42.4285 283.19 43.2301C283.213 44.0317 283.373 44.6705 283.669 45.1467C284.23 46.0515 285.126 46.5435 286.357 46.6229C287.589 46.7022 288.952 46.6387 290.448 46.4324V51.8132ZM272.495 31.0995V26.0996H290.448V31.0995H272.495Z" fill="black"/>
<path fill-rule="evenodd" clip-rule="evenodd" d="M35.8372 0C55.6296 0 71.6745 16.3416 71.6745 36.5C71.6745 56.6584 55.6296 73 35.8372 73C16.0449 73 0 56.6584 0 36.5C0 16.3416 16.0449 0 35.8372 0ZM31.0086 19.8355H21.0323V53.3865H30.3391V49.3152H41.3892V53.3865H50.9015V19.8355H40.6487L41.3892 40.8064L35.9669 44.9528L30.3391 40.8064L31.0086 19.8355Z" fill="black"/>
<path d="M354.3 23.5179H352.163V30.9495H350.376V23.5179H348.737V21.9227H350.376V20.4026C350.376 19.4392 350.652 18.6823 351.205 18.1318C351.758 17.5813 352.451 17.3061 353.286 17.3061C353.815 17.3061 354.158 17.3686 354.318 17.4937V19.0702C354.134 18.9951 353.882 18.9576 353.563 18.9576C353.182 18.9576 352.854 19.0733 352.577 19.3047C352.301 19.5362 352.163 19.9334 352.163 20.4964V21.9227H354.3V23.5179Z" fill="black"/>
<path d="M357.033 28.8101C357.573 29.3731 358.23 29.6546 359.004 29.6546C359.778 29.6546 360.431 29.37 360.966 28.8007C361.5 28.2315 361.767 27.4401 361.767 26.4267C361.767 25.4258 361.5 24.6408 360.966 24.0715C360.431 23.5022 359.778 23.2176 359.004 23.2176C358.23 23.2176 357.576 23.5022 357.042 24.0715C356.508 24.6408 356.241 25.4258 356.241 26.4267C356.241 27.4401 356.505 28.2346 357.033 28.8101ZM355.744 23.0112C356.603 22.0979 357.69 21.6412 359.004 21.6412C360.318 21.6412 361.402 22.0947 362.255 23.0018C363.108 23.9089 363.535 25.0505 363.535 26.4267C363.535 27.8155 363.112 28.9634 362.264 29.8705C361.417 30.7775 360.33 31.231 359.004 31.231C357.678 31.231 356.591 30.7775 355.744 29.8705C354.896 28.9634 354.473 27.8155 354.473 26.4267C354.473 25.0505 354.896 23.912 355.744 23.0112Z" fill="black"/>
<path d="M370.082 21.8289V23.7055C369.824 23.668 369.573 23.6492 369.327 23.6492C367.706 23.6492 366.896 24.5751 366.896 26.4267V30.9495H365.164V21.9227H366.859V23.4991C367.399 22.3481 368.283 21.7726 369.511 21.7726C369.708 21.7726 369.898 21.7913 370.082 21.8289Z" fill="black"/>
<path d="M373.055 30.9495H371.342V21.9227H373V23.1238C373.27 22.6483 373.651 22.2855 374.142 22.0353C374.633 21.7851 375.149 21.66 375.689 21.66C376.267 21.66 376.795 21.8038 377.273 22.0916C377.752 22.3794 378.108 22.8047 378.342 23.3677C378.956 22.2292 379.944 21.66 381.307 21.66C382.155 21.66 382.876 21.954 383.472 22.542C384.067 23.13 384.365 23.9808 384.365 25.0943V30.9495H382.652V25.282C382.652 24.6564 382.495 24.1559 382.182 23.7806C381.869 23.4053 381.399 23.2176 380.773 23.2176C380.171 23.2176 379.68 23.4334 379.3 23.8651C378.919 24.2967 378.729 24.8378 378.729 25.4884V30.9495H376.997V25.282C376.997 24.6564 376.841 24.1559 376.527 23.7806C376.214 23.4053 375.745 23.2176 375.118 23.2176C374.504 23.2176 374.007 23.4303 373.626 23.8557C373.246 24.2811 373.055 24.8315 373.055 25.5072V30.9495Z" fill="black"/>
<path d="M387.67 25.5072H392.514C392.49 24.8316 392.269 24.2779 391.851 23.8463C391.434 23.4147 390.844 23.1989 390.083 23.1989C389.395 23.1989 388.83 23.4272 388.388 23.8838C387.946 24.3405 387.707 24.8816 387.67 25.5072ZM392.772 27.853L394.264 28.3785C394.006 29.2167 393.527 29.9017 392.827 30.4335C392.127 30.9652 391.28 31.231 390.285 31.231C389.045 31.231 387.992 30.7963 387.126 29.9268C386.261 29.0572 385.828 27.8843 385.828 26.408C385.828 25.0317 386.245 23.8932 387.08 22.9924C387.915 22.0916 388.91 21.6412 390.064 21.6412C391.403 21.6412 392.447 22.0697 393.196 22.9267C393.945 23.7837 394.319 24.9317 394.319 26.3704C394.319 26.5956 394.307 26.7833 394.283 26.9334H387.615C387.627 27.7342 387.888 28.391 388.397 28.904C388.907 29.4169 389.536 29.6734 390.285 29.6734C391.55 29.6734 392.379 29.0666 392.772 27.853Z" fill="black"/>
<path d="M400.867 21.8289V23.7055C400.609 23.668 400.357 23.6492 400.111 23.6492C398.49 23.6492 397.68 24.5751 397.68 26.4267V30.9495H395.948V21.9227H397.643V23.4991C398.183 22.3481 399.068 21.7726 400.296 21.7726C400.492 21.7726 400.682 21.7913 400.867 21.8289Z" fill="black"/>
<path d="M403.858 30.9496H402.127V17.3624H403.858V30.9496Z" fill="black"/>
<path d="M408.434 34.7217H406.536L408.747 29.9549L404.934 21.9227H406.923L409.686 28.1533L412.339 21.9227H414.199L408.434 34.7217Z" fill="black"/>
<path d="M363.479 51.3405L365.79 42.0254H369.045L365.167 56.5406H361.892L358.857 46.9184L355.803 56.5406H352.467L348.589 42.0254H351.965L354.316 51.3201L357.27 42.0254H360.525L363.479 51.3405Z" fill="black"/>
<path d="M373.354 48.5358H375.202C375.805 48.5358 376.294 48.3686 376.669 48.0342C377.044 47.6998 377.232 47.2528 377.232 46.6932C377.232 46.12 377.048 45.6661 376.679 45.3317C376.311 44.9974 375.819 44.8302 375.202 44.8302H373.354V48.5358ZM375.524 51.3201H373.334V56.5406H370.159V42.0254H375.524C376.971 42.0254 378.146 42.4621 379.05 43.3356C379.955 44.2091 380.407 45.3215 380.407 46.6727C380.407 48.0512 379.955 49.1704 379.05 50.0303C378.146 50.8901 376.971 51.3201 375.524 51.3201Z" fill="black"/>
<path d="M385.005 52.0571V51.0949L388.019 50.5626V51.8933C388.019 52.5075 388.183 52.975 388.512 53.2957C388.84 53.6164 389.252 53.7768 389.747 53.7768C390.256 53.7768 390.662 53.6028 390.963 53.2548C391.264 52.9067 391.415 52.4597 391.415 51.9138V42.0254H394.59V51.9957C394.59 53.3469 394.135 54.4934 393.224 55.4351C392.313 56.3769 391.161 56.8477 389.767 56.8477C388.347 56.8477 387.199 56.4076 386.321 55.5272C385.444 54.6469 385.005 53.4902 385.005 52.0571Z" fill="black"/>
<path d="M400.627 46.0176C399.81 46.7683 399.401 47.8533 399.401 49.2728C399.401 50.6922 399.813 51.7773 400.637 52.528C401.461 53.2786 402.422 53.654 403.52 53.654C404.619 53.654 405.577 53.2786 406.394 52.528C407.211 51.7773 407.619 50.6922 407.619 49.2728C407.619 47.8533 407.211 46.7648 406.394 46.0073C405.577 45.2498 404.619 44.8711 403.52 44.8711C402.422 44.8711 401.457 45.2533 400.627 46.0176ZM396.105 49.2932C396.105 47.0412 396.826 45.2157 398.266 43.8167C399.706 42.4178 401.457 41.7183 403.52 41.7183C405.583 41.7183 407.331 42.4212 408.765 43.827C410.198 45.2328 410.915 47.0549 410.915 49.2932C410.915 51.5316 410.198 53.3503 408.765 54.7493C407.331 56.1482 405.583 56.8477 403.52 56.8477C401.457 56.8477 399.706 56.1482 398.266 54.7493C396.826 53.3503 396.105 51.5316 396.105 49.2932Z" fill="black"/>
<path d="M412.551 42.0254H417.876C419.256 42.0254 420.341 42.3871 421.132 43.1104C421.922 43.8338 422.317 44.7687 422.317 45.9152C422.317 46.6386 422.12 47.2869 421.724 47.8601C421.329 48.4334 420.83 48.8224 420.227 49.0271C420.924 49.1909 421.52 49.5765 422.016 50.1838C422.511 50.7912 422.759 51.5384 422.759 52.4256C422.759 53.6267 422.347 54.6128 421.523 55.3839C420.7 56.1551 419.624 56.5406 418.298 56.5406H412.551V42.0254ZM415.646 47.8397H417.374C417.937 47.8397 418.382 47.6998 418.71 47.42C419.038 47.1402 419.202 46.7546 419.202 46.2633C419.202 45.7856 419.042 45.4068 418.72 45.127C418.399 44.8472 417.937 44.7073 417.334 44.7073H415.646V47.8397ZM415.646 53.8996H417.635C418.251 53.8996 418.734 53.7461 419.082 53.439C419.43 53.1319 419.604 52.719 419.604 52.2004C419.604 51.6954 419.43 51.2859 419.082 50.972C418.734 50.6581 418.251 50.5011 417.635 50.5011H415.646V53.8996Z" fill="black"/>
<path d="M432.321 46.0176C431.504 46.7683 431.095 47.8533 431.095 49.2728C431.095 50.6922 431.507 51.7773 432.331 52.528C433.155 53.2786 434.116 53.654 435.214 53.654C436.313 53.654 437.271 53.2786 438.088 52.528C438.905 51.7773 439.314 50.6922 439.314 49.2728C439.314 47.8533 438.905 46.7648 438.088 46.0073C437.271 45.2498 436.313 44.8711 435.214 44.8711C434.116 44.8711 433.151 45.2533 432.321 46.0176ZM427.8 49.2932C427.8 47.0412 428.52 45.2157 429.96 43.8167C431.4 42.4178 433.151 41.7183 435.214 41.7183C437.277 41.7183 439.026 42.4212 440.459 43.827C441.892 45.2328 442.609 47.0549 442.609 49.2932C442.609 51.5316 441.892 53.3503 440.459 54.7493C439.026 56.1482 437.277 56.8477 435.214 56.8477C433.151 56.8477 431.4 56.1482 429.96 54.7493C428.52 53.3503 427.8 51.5316 427.8 49.2932Z" fill="black"/>
<path d="M447.44 48.5358H449.289C449.892 48.5358 450.381 48.3686 450.756 48.0342C451.131 47.6998 451.318 47.2528 451.318 46.6932C451.318 46.12 451.134 45.6661 450.766 45.3317C450.397 44.9974 449.905 44.8302 449.289 44.8302H447.44V48.5358ZM449.61 51.3201H447.42V56.5406H444.245V42.0254H449.61C451.057 42.0254 452.233 42.4621 453.137 43.3356C454.041 44.2091 454.493 45.3215 454.493 46.6727C454.493 48.0512 454.041 49.1704 453.137 50.0303C452.233 50.8901 451.057 51.3201 449.61 51.3201Z" fill="black"/>
<path d="M464.871 56.5406H455.828V42.0254H464.85V45.0758H459.003V47.8397H464.308V50.6854H459.003V53.4697H464.871V56.5406Z" fill="black"/>
<path d="M479.287 56.5406H475.931L470.063 47.0003V56.5406H466.908V42.0254H470.767L476.112 50.8492V42.0254H479.287V56.5406Z" fill="black"/>
<path d="M484.942 56.5406H481.727V42.0254H484.942V56.5406Z" fill="black"/>
<path d="M499.759 56.5406H496.404L490.536 47.0003V56.5406H487.381V42.0254H491.239L496.585 50.8492V42.0254H499.759V56.5406Z" fill="black"/>
<path d="M515.361 56.5406H512.789L512.588 55.0666C512.24 55.5716 511.724 55.9947 511.041 56.3359C510.357 56.6771 509.54 56.8477 508.589 56.8477C506.553 56.8477 504.842 56.1482 503.455 54.7493C502.068 53.3503 501.375 51.5316 501.375 49.2932C501.375 47.0685 502.095 45.2498 503.535 43.8372C504.975 42.4246 506.727 41.7183 508.79 41.7183C510.639 41.7183 512.106 42.1619 513.191 43.049C514.276 43.9362 515.006 44.9871 515.381 46.2018L512.327 47.2869C512.179 46.6727 511.814 46.0961 511.231 45.5569C510.649 45.0178 509.835 44.7483 508.79 44.7483C507.692 44.7483 506.717 45.1338 505.866 45.905C505.016 46.6761 504.59 47.8055 504.59 49.2932C504.59 50.74 504.999 51.8694 505.816 52.6815C506.633 53.4936 507.651 53.8996 508.87 53.8996C509.915 53.8996 510.732 53.6437 511.322 53.1319C511.911 52.6201 512.266 52.0844 512.387 51.5248H508.107V48.7814H515.361V56.5406Z" fill="black"/>
<path d="M527.205 45.5877L524.351 46.4066C524.284 45.9562 524.063 45.5399 523.688 45.1577C523.313 44.7756 522.744 44.5845 521.98 44.5845C521.404 44.5845 520.935 44.738 520.574 45.0451C520.212 45.3522 520.031 45.7173 520.031 46.1404C520.031 46.8911 520.5 47.3551 521.438 47.5326L523.347 47.9011C524.66 48.1468 525.674 48.6688 526.391 49.4673C527.108 50.2657 527.466 51.1972 527.466 52.2618C527.466 53.4765 526.991 54.5445 526.039 55.4658C525.088 56.3871 523.809 56.8477 522.201 56.8477C520.406 56.8477 519.016 56.3734 518.032 55.4249C517.047 54.4763 516.495 53.4015 516.374 52.2004L519.288 51.4838C519.355 52.2072 519.633 52.8043 520.122 53.2752C520.611 53.7461 521.317 53.9815 522.242 53.9815C522.858 53.9815 523.347 53.8416 523.708 53.5618C524.07 53.282 524.251 52.9169 524.251 52.4665C524.251 52.098 524.117 51.7875 523.849 51.535C523.581 51.2825 523.206 51.1085 522.724 51.013L520.775 50.6445C519.569 50.4124 518.621 49.9143 517.931 49.1499C517.241 48.3856 516.896 47.4643 516.896 46.3861C516.896 45.0485 517.399 43.9362 518.404 43.049C519.408 42.1619 520.607 41.7183 522 41.7183C522.844 41.7183 523.598 41.8377 524.261 42.0766C524.924 42.3154 525.45 42.6327 525.838 43.0285C526.227 43.4243 526.532 43.8338 526.753 44.2569C526.974 44.68 527.124 45.1236 527.205 45.5877Z" fill="black"/>
<path d="M320.321 1.57327V71.4267" stroke="black" stroke-linecap="square"/>
</svg>
