<svg width="244" height="31" viewBox="0 0 244 31" fill="none" xmlns="http://www.w3.org/2000/svg">
<path d="M38.2622 21.7089V7.34412H40.9263V13.2496H47.2339V7.34412H49.898V21.7089H47.2339V15.7834H40.9263V21.7089H38.2622Z" fill="black"/>
<path d="M52.7275 9.43898V7.04485H55.3916V9.43898H52.7275ZM52.7275 21.7089V10.9353H55.3916V21.7089H52.7275Z" fill="black"/>
<path d="M58.2209 21.7089V10.9353H60.5716V13.5689L60.317 13.2297C60.4541 12.8573 60.6369 12.5181 60.8654 12.2122C61.094 11.9063 61.3748 11.6535 61.7078 11.454C61.9624 11.2944 62.2399 11.1697 62.5403 11.08C62.8406 10.9902 63.1508 10.9336 63.4708 10.9104C63.7907 10.8871 64.1107 10.8954 64.4306 10.9353V13.4691C64.1368 13.376 63.7956 13.3444 63.4071 13.3743C63.0186 13.4043 62.6676 13.4957 62.3542 13.6487C62.0408 13.795 61.7763 13.9895 61.5608 14.2322C61.3454 14.475 61.1821 14.7609 61.0711 15.0901C60.9601 15.4193 60.9046 15.7901 60.9046 16.2024V21.7089H58.2209Z" fill="black"/>
<path d="M70.9036 22.0082C69.8197 22.0082 68.8648 21.7704 68.0388 21.2949C67.2128 20.8194 66.5663 20.1644 66.0995 19.3297C65.6326 18.4951 65.3992 17.5391 65.3992 16.4618C65.3992 15.2847 65.6277 14.2605 66.0848 13.3893C66.5419 12.5181 67.172 11.8414 67.9751 11.3593C68.7782 10.8771 69.7022 10.636 70.7469 10.636C71.857 10.636 72.8005 10.9021 73.5775 11.4341C74.3545 11.9661 74.9291 12.7143 75.3013 13.6786C75.6735 14.6429 75.8041 15.7768 75.6931 17.0803H73.0584V16.0827C73.0584 14.9854 72.887 14.1957 72.5442 13.7135C72.2014 13.2314 71.6415 12.9903 70.8645 12.9903C69.9568 12.9903 69.2892 13.2713 68.8615 13.8332C68.4338 14.3952 68.22 15.2248 68.22 16.3221C68.22 17.3263 68.4338 18.1027 68.8615 18.6514C69.2892 19.2001 69.9177 19.4744 70.7469 19.4744C71.2693 19.4744 71.7166 19.358 72.0888 19.1252C72.4609 18.8925 72.745 18.5566 72.9409 18.1177L75.6049 18.8958C75.2066 19.8801 74.5782 20.6449 73.7195 21.1902C72.8609 21.7355 71.9222 22.0082 70.9036 22.0082ZM67.3972 17.0803V15.0652H74.41V17.0803H67.3972Z" fill="black"/>
<path d="M77.3962 21.7089V21.3697L84.0956 9.87791H77.9839V7.34412H88.7578V7.68328L82.0976 19.1552H88.5619V21.7089H77.3962Z" fill="black"/>
<path d="M95.7599 22.0082C94.6955 22.0082 93.7618 21.7654 92.9587 21.28C92.1555 20.7945 91.5303 20.1245 91.083 19.2699C90.6357 18.4153 90.4121 17.4327 90.4121 16.3221C90.4121 15.1982 90.6406 14.209 91.0977 13.3544C91.5548 12.4998 92.1849 11.8331 92.988 11.3543C93.7912 10.8755 94.7151 10.636 95.7599 10.636C96.8242 10.636 97.7596 10.8788 98.566 11.3643C99.3724 11.8497 100.001 12.5198 100.451 13.3743C100.902 14.2289 101.127 15.2115 101.127 16.3221C101.127 17.4394 100.9 18.4253 100.446 19.2799C99.9927 20.1344 99.3626 20.8028 98.5562 21.2849C97.7498 21.7671 96.8177 22.0082 95.7599 22.0082ZM95.7599 19.4744C96.6152 19.4744 97.2535 19.1801 97.6747 18.5916C98.0958 18.003 98.3064 17.2465 98.3064 16.3221C98.3064 15.3645 98.0926 14.5997 97.6649 14.0277C97.2372 13.4558 96.6022 13.1698 95.7599 13.1698C95.1787 13.1698 94.7021 13.3028 94.3299 13.5689C93.9577 13.8349 93.6818 14.204 93.5022 14.6761C93.3227 15.1483 93.2329 15.697 93.2329 16.3221C93.2329 17.2864 93.4467 18.0529 93.8744 18.6215C94.3021 19.1901 94.9306 19.4744 95.7599 19.4744Z" fill="black"/>
<path d="M107.933 22.0082C106.869 22.0082 105.935 21.7654 105.132 21.28C104.329 20.7945 103.704 20.1245 103.256 19.2699C102.809 18.4153 102.585 17.4327 102.585 16.3221C102.585 15.1982 102.814 14.209 103.271 13.3544C103.728 12.4998 104.358 11.8331 105.161 11.3543C105.965 10.8755 106.888 10.636 107.933 10.636C108.998 10.636 109.933 10.8788 110.739 11.3643C111.546 11.8497 112.174 12.5198 112.625 13.3743C113.075 14.2289 113.301 15.2115 113.301 16.3221C113.301 17.4394 113.074 18.4253 112.62 19.2799C112.166 20.1344 111.536 20.8028 110.73 21.2849C109.923 21.7671 108.991 22.0082 107.933 22.0082ZM107.933 19.4744C108.789 19.4744 109.427 19.1801 109.848 18.5916C110.269 18.003 110.48 17.2465 110.48 16.3221C110.48 15.3645 110.266 14.5997 109.838 14.0277C109.411 13.4558 108.776 13.1698 107.933 13.1698C107.352 13.1698 106.875 13.3028 106.503 13.5689C106.131 13.8349 105.855 14.204 105.676 14.6761C105.496 15.1483 105.406 15.697 105.406 16.3221C105.406 17.2864 105.62 18.0529 106.048 18.6215C106.475 19.1901 107.104 19.4744 107.933 19.4744Z" fill="black"/>
<path d="M121.693 21.7089C120.962 21.8486 120.245 21.9101 119.543 21.8934C118.841 21.8768 118.215 21.7505 117.663 21.5144C117.111 21.2783 116.692 20.8976 116.404 20.3722C116.143 19.88 116.006 19.3796 115.993 18.8709C115.98 18.3621 115.973 17.7852 115.973 17.1401V7.94264H118.637V16.9805C118.637 17.3995 118.642 17.7769 118.652 18.1127C118.662 18.4486 118.729 18.7162 118.853 18.9157C119.088 19.2948 119.463 19.501 119.979 19.5342C120.495 19.5675 121.066 19.5409 121.693 19.4544V21.7089ZM114.171 13.0302V10.9353H121.693V13.0302H114.171Z" fill="black"/>
<path fill-rule="evenodd" clip-rule="evenodd" d="M15.0152 0C23.3079 0 30.0305 6.84687 30.0305 15.2929C30.0305 23.739 23.3079 30.5858 15.0152 30.5858C6.72255 30.5858 0 23.739 0 15.2929C0 6.84687 6.72255 0 15.0152 0ZM12.9921 8.31074H8.8122V22.3681H12.7116V20.6623H17.3414V22.3681H21.3269V8.31074H17.0312L17.3414 17.0972L15.0696 18.8345L12.7116 17.0972L12.9921 8.31074Z" fill="black"/>
<path d="M148.16 7.35727H146.978V11.4703H145.989V7.35727H145.082V6.47441H145.989V5.63311C145.989 5.09993 146.142 4.68101 146.448 4.37633C146.753 4.07166 147.137 3.91933 147.6 3.91933C147.892 3.91933 148.082 3.95395 148.17 4.02319V4.89566C148.069 4.85412 147.929 4.83334 147.752 4.83334C147.542 4.83334 147.36 4.89739 147.207 5.02549C147.054 5.15359 146.978 5.37344 146.978 5.68504V6.47441H148.16V7.35727Z" fill="black"/>
<path d="M149.673 10.2863C149.972 10.5979 150.336 10.7537 150.764 10.7537C151.192 10.7537 151.554 10.5961 151.85 10.2811C152.146 9.96602 152.293 9.52806 152.293 8.96719C152.293 8.41324 152.146 7.97873 151.85 7.66368C151.554 7.34862 151.192 7.19109 150.764 7.19109C150.336 7.19109 149.974 7.34862 149.678 7.66368C149.383 7.97873 149.235 8.41324 149.235 8.96719C149.235 9.52806 149.381 9.96776 149.673 10.2863ZM148.96 7.07684C149.436 6.57136 150.037 6.31862 150.764 6.31862C151.491 6.31862 152.091 6.56963 152.564 7.07164C153.036 7.57366 153.272 8.20551 153.272 8.96719C153.272 9.73579 153.038 10.3711 152.569 10.8731C152.1 11.3751 151.498 11.6261 150.764 11.6261C150.03 11.6261 149.429 11.3751 148.96 10.8731C148.491 10.3711 148.256 9.73579 148.256 8.96719C148.256 8.20551 148.491 7.57539 148.96 7.07684Z" fill="black"/>
<path d="M156.895 6.42249V7.46114C156.753 7.44037 156.613 7.42998 156.477 7.42998C155.58 7.42998 155.132 7.94238 155.132 8.96719V11.4703H154.173V6.47442H155.111V7.34689C155.41 6.70985 155.9 6.39133 156.579 6.39133C156.688 6.39133 156.793 6.40171 156.895 6.42249Z" fill="black"/>
<path d="M158.541 11.4703H157.593V6.47441H158.51V7.13914C158.66 6.87602 158.87 6.67521 159.142 6.53673C159.414 6.39824 159.7 6.32899 159.999 6.32899C160.318 6.32899 160.61 6.40862 160.875 6.56788C161.14 6.72715 161.338 6.96257 161.467 7.27417C161.806 6.64405 162.354 6.32899 163.108 6.32899C163.577 6.32899 163.976 6.49172 164.306 6.81716C164.635 7.14261 164.8 7.61346 164.8 8.22973V11.4703H163.852V8.3336C163.852 7.98738 163.766 7.7104 163.592 7.50267C163.419 7.29494 163.159 7.19108 162.812 7.19108C162.479 7.19108 162.207 7.31052 161.997 7.54941C161.786 7.7883 161.681 8.08778 161.681 8.44785V11.4703H160.722V8.3336C160.722 7.98738 160.636 7.7104 160.463 7.50267C160.289 7.29494 160.029 7.19108 159.683 7.19108C159.343 7.19108 159.068 7.30879 158.857 7.54422C158.646 7.77965 158.541 8.08432 158.541 8.45823V11.4703Z" fill="black"/>
<path d="M166.63 8.45825H169.311C169.297 8.08433 169.175 7.77793 168.944 7.53904C168.713 7.30015 168.386 7.1807 167.965 7.1807C167.584 7.1807 167.272 7.30707 167.027 7.55981C166.782 7.81255 166.65 8.11203 166.63 8.45825ZM169.453 9.75656L170.279 10.0474C170.136 10.5113 169.871 10.8904 169.484 11.1847C169.097 11.479 168.628 11.6261 168.077 11.6261C167.391 11.6261 166.808 11.3855 166.329 10.9043C165.85 10.423 165.61 9.77387 165.61 8.9568C165.61 8.19512 165.841 7.565 166.303 7.06645C166.765 6.5679 167.316 6.31862 167.955 6.31862C168.696 6.31862 169.273 6.55578 169.688 7.0301C170.102 7.50442 170.31 8.13973 170.31 8.93603C170.31 9.06066 170.303 9.16453 170.289 9.24762H166.599C166.606 9.69078 166.75 10.0543 167.032 10.3382C167.314 10.6221 167.663 10.7641 168.077 10.7641C168.777 10.7641 169.236 10.4282 169.453 9.75656Z" fill="black"/>
<path d="M173.933 6.42249V7.46114C173.79 7.44037 173.651 7.42998 173.515 7.42998C172.618 7.42998 172.169 7.94238 172.169 8.96719V11.4703H171.211V6.47442H172.149V7.34689C172.448 6.70985 172.937 6.39133 173.617 6.39133C173.726 6.39133 173.831 6.40171 173.933 6.42249Z" fill="black"/>
<path d="M175.589 11.4703H174.631V3.95049H175.589V11.4703Z" fill="black"/>
<path d="M178.121 13.558H177.071L178.295 10.9199L176.184 6.47443H177.285L178.814 9.92276L180.283 6.47443H181.312L178.121 13.558Z" fill="black"/>
<path d="M153.241 21.7011L154.52 16.5456H156.321L154.175 24.5791H152.362L150.683 19.2536L148.993 24.5791H147.146L145 16.5456H146.868L148.17 21.6897L149.804 16.5456H151.606L153.241 21.7011Z" fill="black"/>
<path d="M158.706 20.1488H159.729C160.063 20.1488 160.333 20.0562 160.541 19.8711C160.749 19.6861 160.852 19.4387 160.852 19.129C160.852 18.8117 160.75 18.5606 160.547 18.3755C160.343 18.1904 160.07 18.0979 159.729 18.0979H158.706V20.1488ZM159.907 21.6897H158.695V24.5791H156.938V16.5456H159.907C160.708 16.5456 161.358 16.7873 161.859 17.2707C162.359 17.7542 162.61 18.3698 162.61 19.1177C162.61 19.8806 162.359 20.5 161.859 20.9759C161.358 21.4518 160.708 21.6897 159.907 21.6897Z" fill="black"/>
<path d="M165.155 22.0976V21.5651L166.823 21.2705V22.007C166.823 22.3469 166.914 22.6056 167.095 22.7832C167.277 22.9607 167.505 23.0494 167.779 23.0494C168.061 23.0494 168.285 22.9531 168.452 22.7605C168.619 22.5679 168.702 22.3205 168.702 22.0183V16.5456H170.459V22.0637C170.459 22.8115 170.207 23.446 169.703 23.9672C169.199 24.4884 168.561 24.749 167.79 24.749C167.004 24.749 166.369 24.5054 165.883 24.0182C165.397 23.531 165.155 22.8908 165.155 22.0976Z" fill="black"/>
<path d="M173.801 18.7551C173.348 19.1705 173.122 19.7711 173.122 20.5567C173.122 21.3423 173.35 21.9428 173.806 22.3582C174.262 22.7737 174.794 22.9814 175.402 22.9814C176.01 22.9814 176.54 22.7737 176.992 22.3582C177.445 21.9428 177.671 21.3423 177.671 20.5567C177.671 19.7711 177.445 19.1686 176.992 18.7494C176.54 18.3302 176.01 18.1205 175.402 18.1205C174.794 18.1205 174.26 18.332 173.801 18.7551ZM171.298 20.568C171.298 19.3216 171.697 18.3113 172.494 17.537C173.291 16.7627 174.26 16.3756 175.402 16.3756C176.544 16.3756 177.511 16.7646 178.305 17.5427C179.098 18.3207 179.495 19.3292 179.495 20.568C179.495 21.8068 179.098 22.8134 178.305 23.5876C177.511 24.3619 176.544 24.749 175.402 24.749C174.26 24.749 173.291 24.3619 172.494 23.5876C171.697 22.8134 171.298 21.8068 171.298 20.568Z" fill="black"/>
<path d="M180.4 16.5456H183.347C184.111 16.5456 184.711 16.7457 185.149 17.1461C185.586 17.5465 185.805 18.0639 185.805 18.6984C185.805 19.0988 185.696 19.4576 185.477 19.7748C185.258 20.0921 184.982 20.3074 184.648 20.4207C185.034 20.5113 185.364 20.7247 185.638 21.0609C185.913 21.397 186.05 21.8106 186.05 22.3016C186.05 22.9663 185.822 23.5121 185.366 23.9389C184.91 24.3657 184.315 24.5791 183.581 24.5791H180.4V16.5456ZM182.113 19.7635H183.069C183.381 19.7635 183.627 19.6861 183.809 19.5312C183.99 19.3764 184.081 19.163 184.081 18.891C184.081 18.6267 183.992 18.417 183.814 18.2622C183.636 18.1073 183.381 18.0299 183.047 18.0299H182.113V19.7635ZM182.113 23.1174H183.214C183.555 23.1174 183.822 23.0324 184.015 22.8625C184.207 22.6925 184.304 22.464 184.304 22.177C184.304 21.8975 184.207 21.6709 184.015 21.4971C183.822 21.3234 183.555 21.2365 183.214 21.2365H182.113V23.1174Z" fill="black"/>
<path d="M191.342 18.7551C190.889 19.1705 190.663 19.7711 190.663 20.5567C190.663 21.3423 190.891 21.9428 191.347 22.3582C191.803 22.7737 192.335 22.9814 192.943 22.9814C193.551 22.9814 194.081 22.7737 194.533 22.3582C194.986 21.9428 195.212 21.3423 195.212 20.5567C195.212 19.7711 194.986 19.1686 194.533 18.7494C194.081 18.3302 193.551 18.1205 192.943 18.1205C192.335 18.1205 191.801 18.332 191.342 18.7551ZM188.839 20.568C188.839 19.3216 189.238 18.3113 190.035 17.537C190.832 16.7627 191.801 16.3756 192.943 16.3756C194.085 16.3756 195.052 16.7646 195.846 17.5427C196.639 18.3207 197.036 19.3292 197.036 20.568C197.036 21.8068 196.639 22.8134 195.846 23.5876C195.052 24.3619 194.085 24.749 192.943 24.749C191.801 24.749 190.832 24.3619 190.035 23.5876C189.238 22.8134 188.839 21.8068 188.839 20.568Z" fill="black"/>
<path d="M199.709 20.1488H200.733C201.066 20.1488 201.337 20.0562 201.544 19.8711C201.752 19.6861 201.856 19.4387 201.856 19.129C201.856 18.8117 201.754 18.5606 201.55 18.3755C201.346 18.1904 201.074 18.0979 200.733 18.0979H199.709V20.1488ZM200.911 21.6897H199.698V24.5791H197.941V16.5456H200.911C201.711 16.5456 202.362 16.7873 202.862 17.2707C203.363 17.7542 203.613 18.3698 203.613 19.1177C203.613 19.8806 203.363 20.5 202.862 20.9759C202.362 21.4518 201.711 21.6897 200.911 21.6897Z" fill="black"/>
<path d="M209.356 24.5791H204.352V16.5456H209.345V18.2339H206.109V19.7635H209.045V21.3385H206.109V22.8795H209.356V24.5791Z" fill="black"/>
<path d="M217.335 24.5791H215.478L212.23 19.2989V24.5791H210.484V16.5456H212.619L215.578 21.4291V16.5456H217.335V24.5791Z" fill="black"/>
<path d="M220.464 24.5791H218.685V16.5456H220.464V24.5791Z" fill="black"/>
<path d="M228.666 24.5791H226.808L223.561 19.2989V24.5791H221.815V16.5456H223.95L226.908 21.4291V16.5456H228.666V24.5791Z" fill="black"/>
<path d="M237.3 24.5791H235.877L235.765 23.7633C235.573 24.0428 235.287 24.2769 234.909 24.4658C234.531 24.6546 234.079 24.749 233.552 24.749C232.425 24.749 231.478 24.3619 230.711 23.5876C229.943 22.8134 229.56 21.8068 229.56 20.568C229.56 19.3367 229.958 18.3302 230.755 17.5483C231.552 16.7665 232.522 16.3756 233.664 16.3756C234.687 16.3756 235.499 16.6211 236.099 17.1121C236.7 17.6031 237.104 18.1847 237.311 18.857L235.621 19.4576C235.539 19.1176 235.337 18.7985 235.015 18.5001C234.692 18.2017 234.242 18.0526 233.664 18.0526C233.056 18.0526 232.516 18.266 232.045 18.6927C231.575 19.1195 231.339 19.7446 231.339 20.568C231.339 21.3687 231.565 21.9938 232.018 22.4432C232.47 22.8927 233.033 23.1174 233.708 23.1174C234.286 23.1174 234.739 22.9758 235.065 22.6925C235.391 22.4092 235.588 22.1127 235.654 21.803H233.285V20.2847H237.3V24.5791Z" fill="black"/>
<path d="M243.856 18.5171L242.276 18.9703C242.239 18.7211 242.117 18.4907 241.909 18.2792C241.702 18.0677 241.387 17.9619 240.964 17.9619C240.645 17.9619 240.386 18.0469 240.186 18.2169C239.985 18.3868 239.885 18.5889 239.885 18.823C239.885 19.2385 240.145 19.4953 240.664 19.5935L241.72 19.7975C242.447 19.9335 243.009 20.2224 243.405 20.6643C243.802 21.1062 244 21.6217 244 22.2109C244 22.8832 243.737 23.4743 243.211 23.9842C242.684 24.4941 241.976 24.749 241.086 24.749C240.093 24.749 239.324 24.4865 238.779 23.9616C238.234 23.4366 237.928 22.8417 237.861 22.177L239.474 21.7804C239.511 22.1807 239.665 22.5112 239.935 22.7718C240.206 23.0324 240.597 23.1627 241.109 23.1627C241.45 23.1627 241.72 23.0853 241.921 22.9305C242.121 22.7756 242.221 22.5735 242.221 22.3243C242.221 22.1203 242.147 21.9485 241.998 21.8087C241.85 21.669 241.643 21.5726 241.376 21.5198L240.297 21.3158C239.63 21.1874 239.105 20.9117 238.723 20.4887C238.341 20.0657 238.15 19.5558 238.15 18.959C238.15 18.2187 238.429 17.6031 238.985 17.1121C239.541 16.6211 240.204 16.3756 240.975 16.3756C241.442 16.3756 241.859 16.4417 242.226 16.5739C242.593 16.7061 242.884 16.8817 243.099 17.1008C243.314 17.3198 243.483 17.5464 243.605 17.7806C243.728 18.0148 243.811 18.2603 243.856 18.5171Z" fill="black"/>
<path d="M134.209 0.659164V29.9266" stroke="black" stroke-linecap="square"/>
</svg>
