<svg width="53" height="54" viewBox="0 0 53 54" fill="none" xmlns="http://www.w3.org/2000/svg">
<g filter="url(#filter0_d_408_1064)">
<circle cx="24.5" cy="22" r="22" fill="url(#paint0_linear_408_1064)"/>
</g>
<path d="M32.5 16.3333H30V15.5C29.9993 14.8372 29.7356 14.2017 29.267 13.733C28.7983 13.2644 28.1628 13.0007 27.5 13H22.5C21.8372 13.0007 21.2017 13.2644 20.733 13.733C20.2644 14.2017 20.0007 14.8372 20 15.5V16.3333H17.5C16.8372 16.3341 16.2017 16.5977 15.733 17.0664C15.2644 17.5351 15.0007 18.1705 15 18.8333V28.8333C15.0007 29.4962 15.2644 30.1316 15.733 30.6003C16.2017 31.069 16.8372 31.3326 17.5 31.3333H32.5C33.1628 31.3326 33.7983 31.069 34.267 30.6003C34.7356 30.1316 34.9993 29.4962 35 28.8333V18.8333C34.9993 18.1705 34.7356 17.5351 34.267 17.0664C33.7983 16.5977 33.1628 16.3341 32.5 16.3333ZM21.6667 15.5C21.6669 15.279 21.7547 15.0672 21.911 14.911C22.0672 14.7547 22.279 14.6669 22.5 14.6667H27.5C27.721 14.6669 27.9328 14.7547 28.089 14.911C28.2453 15.0672 28.3331 15.279 28.3333 15.5V16.3333H21.6667V15.5ZM17.5 18H32.5C32.721 18.0002 32.9328 18.0881 33.089 18.2443C33.2453 18.4005 33.3331 18.6124 33.3333 18.8333V19.916L27.2468 22.1274C27.0986 21.8854 26.8909 21.6854 26.6434 21.5464C26.396 21.4074 26.1171 21.334 25.8333 21.3333H24.1667C23.8829 21.334 23.604 21.4074 23.3566 21.5464C23.1091 21.6854 22.9014 21.8854 22.7532 22.1274L16.6667 19.916V18.8333C16.6669 18.6124 16.7547 18.4005 16.911 18.2443C17.0672 18.0881 17.279 18.0002 17.5 18ZM25.8333 23V24.6667H24.1667V23H25.8333ZM32.5 29.6667H17.5C17.279 29.6665 17.0672 29.5786 16.911 29.4224C16.7547 29.2661 16.6669 29.0543 16.6667 28.8333V21.6896L22.5 23.809V24.6667C22.5005 25.1085 22.6763 25.5322 22.9887 25.8446C23.3012 26.1571 23.7248 26.3328 24.1667 26.3333H25.8333C26.2752 26.3328 26.6988 26.1571 27.0113 25.8446C27.3237 25.5322 27.4995 25.1085 27.5 24.6667V23.809L33.3333 21.6896V28.8333C33.3331 29.0543 33.2453 29.2661 33.089 29.4224C32.9328 29.5786 32.721 29.6665 32.5 29.6667Z" fill="white"/>
<defs>
<filter id="filter0_d_408_1064" x="0.5" y="0" width="52" height="54" filterUnits="userSpaceOnUse" color-interpolation-filters="sRGB">
<feFlood flood-opacity="0" result="BackgroundImageFix"/>
<feColorMatrix in="SourceAlpha" type="matrix" values="0 0 0 0 0 0 0 0 0 0 0 0 0 0 0 0 0 0 127 0" result="hardAlpha"/>
<feOffset dx="2" dy="6"/>
<feGaussianBlur stdDeviation="2"/>
<feComposite in2="hardAlpha" operator="out"/>
<feColorMatrix type="matrix" values="0 0 0 0 0.423529 0 0 0 0 0.980392 0 0 0 0 0.894118 0 0 0 0.25 0"/>
<feBlend mode="normal" in2="BackgroundImageFix" result="effect1_dropShadow_408_1064"/>
<feBlend mode="normal" in="SourceGraphic" in2="effect1_dropShadow_408_1064" result="shape"/>
</filter>
<linearGradient id="paint0_linear_408_1064" x1="24.5" y1="0" x2="24.5" y2="44" gradientUnits="userSpaceOnUse">
<stop stop-color="#6CFAE4"/>
<stop offset="1" stop-color="#3DE1C7"/>
</linearGradient>
</defs>
</svg>
