<svg width="53" height="54" viewBox="0 0 53 54" fill="none" xmlns="http://www.w3.org/2000/svg">
<g filter="url(#filter0_d_408_227)">
<circle cx="24.5" cy="22" r="22" fill="url(#paint0_linear_408_227)"/>
</g>
<path fill-rule="evenodd" clip-rule="evenodd" d="M29.8383 15.0843C29.6306 15.1797 29.3514 15.3284 28.9316 15.5529C27.5103 16.3132 25.5301 17.2008 23.75 17.3008V23.2684C25.5301 23.3684 27.5103 24.2559 28.9316 25.0162C29.3514 25.2408 29.6306 25.3895 29.8383 25.4849C29.8494 25.2818 29.85 25.0034 29.85 24.5891V15.98C29.85 15.5658 29.8494 15.2874 29.8383 15.0843ZM23.75 25.2726C25.0233 25.3753 26.6154 26.0454 27.9882 26.7797L28.0218 26.7977C28.4306 27.0165 28.7864 27.2068 29.0755 27.3348C29.3403 27.4521 29.7422 27.6112 30.1788 27.5588C30.7164 27.4941 31.1685 27.2334 31.4901 26.7922C31.7489 26.4371 31.8028 26.0192 31.8257 25.7363C31.85 25.436 31.85 25.0559 31.85 24.6287V15.9405C31.85 15.5133 31.85 15.1331 31.8257 14.8329C31.8028 14.55 31.7489 14.1321 31.4901 13.777C31.1685 13.3358 30.7164 13.075 30.1788 13.0104C29.7422 12.9579 29.3403 13.1171 29.0755 13.2343C28.7864 13.3624 28.4306 13.5527 28.0217 13.7715L27.9882 13.7894C26.4958 14.5878 24.7444 15.3101 23.425 15.3101H20.28C19.558 15.3101 18.9572 15.3101 18.4667 15.3494C17.9561 15.3904 17.4786 15.4787 17.027 15.7045C16.3324 16.0518 15.7641 16.6079 15.4068 17.2961C15.1734 17.7456 15.0823 18.2211 15.0402 18.7263C15 19.2099 15 19.8015 15 20.5084V21.641C15 22.0255 15 22.3639 15.0195 22.6453C15.0403 22.9437 15.0865 23.2512 15.2157 23.5575C15.5031 24.2383 16.0516 24.7733 16.7346 25.051C17.0404 25.1753 17.3475 25.2199 17.6483 25.24C17.6653 25.2412 17.6826 25.2422 17.7 25.2432V28.0127C17.7 28.0259 17.7 28.0389 17.7 28.0519C17.6999 28.2173 17.6998 28.3686 17.7137 28.5065C17.8468 29.8328 18.911 30.8596 20.2274 30.9868C20.365 31.0001 20.5163 31 20.6859 31H20.725H20.7641C20.9337 31 21.085 31.0001 21.2226 30.9868C22.539 30.8596 23.6032 29.8328 23.7363 28.5065C23.7502 28.3686 23.7501 28.2173 23.75 28.0519C23.75 28.0389 23.75 28.0259 23.75 28.0127V25.2726ZM21.75 23.2591V17.3101H20.32C19.5477 17.3101 19.0276 17.3109 18.6266 17.343C18.2367 17.3743 18.0474 17.4303 17.9215 17.4933C17.6 17.6541 17.3422 17.9087 17.1818 18.2177C17.1209 18.3349 17.0649 18.5138 17.0333 18.8922C17.0008 19.283 17 19.7908 17 20.5496V21.6094C17 22.0349 17.0006 22.303 17.0147 22.5066C17.0282 22.7008 17.0506 22.7614 17.0583 22.7797C17.1363 22.9646 17.2887 23.1173 17.4877 23.1982C17.5128 23.2084 17.5807 23.231 17.7819 23.2445C17.9918 23.2585 18.2672 23.2591 18.7 23.2591H21.75ZM21.75 25.2591V28.0127C21.75 28.242 21.7487 28.2828 21.7463 28.3068C21.7111 28.6578 21.423 28.9581 21.0302 28.9961C21.0023 28.9988 20.9573 29 20.725 29C20.4927 29 20.4477 28.9988 20.4198 28.9961C20.027 28.9581 19.7389 28.6578 19.7037 28.3068C19.7013 28.2828 19.7 28.242 19.7 28.0127V25.2591H21.75ZM34 17.5182C34.5523 17.5182 35 17.9659 35 18.5182V22.051C35 22.6033 34.5523 23.051 34 23.051C33.4477 23.051 33 22.6033 33 22.051V18.5182C33 17.9659 33.4477 17.5182 34 17.5182Z" fill="white"/>
<defs>
<filter id="filter0_d_408_227" x="0.5" y="0" width="52" height="54" filterUnits="userSpaceOnUse" color-interpolation-filters="sRGB">
<feFlood flood-opacity="0" result="BackgroundImageFix"/>
<feColorMatrix in="SourceAlpha" type="matrix" values="0 0 0 0 0 0 0 0 0 0 0 0 0 0 0 0 0 0 127 0" result="hardAlpha"/>
<feOffset dx="2" dy="6"/>
<feGaussianBlur stdDeviation="2"/>
<feComposite in2="hardAlpha" operator="out"/>
<feColorMatrix type="matrix" values="0 0 0 0 0.423529 0 0 0 0 0.980392 0 0 0 0 0.894118 0 0 0 0.25 0"/>
<feBlend mode="normal" in2="BackgroundImageFix" result="effect1_dropShadow_408_227"/>
<feBlend mode="normal" in="SourceGraphic" in2="effect1_dropShadow_408_227" result="shape"/>
</filter>
<linearGradient id="paint0_linear_408_227" x1="24.5" y1="0" x2="24.5" y2="44" gradientUnits="userSpaceOnUse">
<stop stop-color="#6CFAE4"/>
<stop offset="1" stop-color="#3DE1C7"/>
</linearGradient>
</defs>
</svg>
