<?xml version="1.0" encoding="UTF-8"?>
<svg width="165px" height="21px" viewBox="0 0 165 21" version="1.1" xmlns="http://www.w3.org/2000/svg" xmlns:xlink="http://www.w3.org/1999/xlink">
    <title>wpjo-logo</title>
    <g id="Symbols" stroke="none" stroke-width="1" fill="none" fill-rule="evenodd">
        <g id="Logo" transform="translate(0.000000, -1.000000)">
            <g id="wpjo-logo" transform="translate(0.000000, 1.000000)">
                <g id="Group-9" transform="translate(27.000000, 5.000000)" fill="#000000" fill-rule="nonzero">
                    <path d="M5.55154639,10.7767253 L7.90206186,3.78078484 L10.2371134,10.7767253 L12.757732,10.7767253 L15.742268,0.223274696 L13.2371134,0.223274696 L11.4587629,6.99594046 L9.18556701,0.223274696 L6.68041237,0.223274696 L4.40721649,6.98105548 L2.59793814,0.223274696 L0,0.223274696 L2.98453608,10.7767253 L5.55154639,10.7767253 Z M19.0670103,10.7767253 L19.0670103,6.98105548 L20.7525773,6.98105548 C21.8659794,6.98105548 22.7706186,6.66847091 23.4664948,6.04330176 C24.1623711,5.41813261 24.5103093,4.60442039 24.5103093,3.60216509 C24.5103093,2.61975643 24.1623711,1.81100586 23.4664948,1.1759134 C22.7706186,0.540820929 21.8659794,0.223274696 20.7525773,0.223274696 L20.7525773,0.223274696 L16.6237113,0.223274696 L16.6237113,10.7767253 L19.0670103,10.7767253 Z M20.5051546,4.95669824 L19.0824742,4.95669824 L19.0824742,2.26251691 L20.5051546,2.26251691 C20.9793814,2.26251691 21.3582474,2.38407758 21.6417526,2.62719892 C21.9252578,2.87032026 22.0670103,3.20027064 22.0670103,3.61705007 C22.0670103,4.02390618 21.9226804,4.3488949 21.6340206,4.59201624 C21.3453609,4.83513758 20.9690722,4.95669824 20.5051546,4.95669824 L20.5051546,4.95669824 Z M31.7628866,11 C32.8350516,11 33.7216495,10.6576455 34.4226804,9.9729364 C35.1237114,9.28822733 35.4742268,8.45466847 35.4742268,7.47225981 L35.4742268,7.47225981 L35.4742268,0.223274696 L33.0309278,0.223274696 L33.0309278,7.41271989 C33.0309278,7.80965266 32.9149485,8.13464141 32.6829897,8.38768606 C32.4510309,8.64073072 32.1391753,8.76725304 31.7474227,8.76725304 C31.3659794,8.76725304 31.0489691,8.65065401 30.7963918,8.41745602 C30.5438144,8.18425803 30.4175258,7.8443843 30.4175258,7.39783491 L30.4175258,7.39783491 L30.4175258,6.43031123 L28.0979381,6.8173207 L28.0979381,7.51691475 C28.0979381,8.55886333 28.435567,9.39986468 29.1108247,10.0399188 C29.7860824,10.6799729 30.6701031,11 31.7628866,11 Z M42.371134,11 C43.9587629,11 45.3041237,10.4914299 46.4072165,9.47428958 C47.5103093,8.45714928 48.0618557,7.13486694 48.0618557,5.50744249 C48.0618557,3.88001804 47.5103093,2.55525485 46.4072165,1.53315291 C45.3041237,0.51105097 43.9587629,0 42.371134,0 C40.7835052,0 39.435567,0.50857014 38.3273196,1.52571042 C37.2190722,2.5428507 36.6649485,3.87009472 36.6649485,5.50744249 C36.6649485,7.13486694 37.2190722,8.45714928 38.3273196,9.47428958 C39.435567,10.4914299 40.7835052,11 42.371134,11 Z M42.371134,8.67794317 C41.5257732,8.67794317 40.7860825,8.40505185 40.1520619,7.85926928 C39.5180412,7.3134867 39.2010309,6.52458277 39.2010309,5.49255751 C39.2010309,4.46053225 39.5154639,3.67162832 40.1443299,3.12584574 C40.7835052,2.57013983 41.5257732,2.29228687 42.371134,2.29228687 C43.2164948,2.29228687 43.9536083,2.567659 44.5824742,3.11840325 C45.2113402,3.6691475 45.5257732,4.46053225 45.5257732,5.49255751 C45.5257732,6.52458277 45.2113402,7.3134867 44.5824742,7.85926928 C43.9536083,8.40505185 43.2164948,8.67794317 42.371134,8.67794317 Z M53.7680412,10.7767253 C54.7886598,10.7767253 55.6159794,10.4963915 56.25,9.93572395 C56.8840206,9.37505641 57.2010309,8.6580965 57.2010309,7.78484438 C57.2010309,7.13982859 57.0103093,6.59652684 56.628866,6.15493911 C56.2474227,5.71335138 55.7886598,5.43301759 55.2525773,5.31393775 C55.7164948,5.16508796 56.1005155,4.88227334 56.4046392,4.46549391 C56.7087629,4.04871448 56.8608247,3.57735679 56.8608247,3.05142084 C56.8608247,2.21786198 56.5567011,1.53811457 55.9484536,1.01217862 C55.3402062,0.48624267 54.5051546,0.223274696 53.443299,0.223274696 L53.443299,0.223274696 L49.3453608,0.223274696 L49.3453608,10.7767253 L53.7680412,10.7767253 Z M53.056701,4.45060893 L51.7268041,4.45060893 L51.7268041,2.17320704 L53.0257732,2.17320704 C53.4896907,2.17320704 53.8453608,2.27492107 54.0927835,2.47834912 C54.3402062,2.68177717 54.4639175,2.9571493 54.4639175,3.30446549 C54.4639175,3.66170501 54.3376289,3.94203879 54.0850515,4.14546685 C53.8324742,4.3488949 53.4896907,4.45060893 53.056701,4.45060893 L53.056701,4.45060893 Z M53.257732,8.85656292 L51.7268041,8.85656292 L51.7268041,6.38565629 L53.257732,6.38565629 C53.7319587,6.38565629 54.1030928,6.49977447 54.371134,6.72801083 C54.6391753,6.95624718 54.7731959,7.25394678 54.7731959,7.62110961 C54.7731959,7.99819578 54.6391753,8.29837618 54.371134,8.52165088 C54.1030928,8.74492558 53.7319587,8.85656292 53.257732,8.85656292 L53.257732,8.85656292 Z M66.8350515,11 C68.4226804,11 69.7680412,10.4914299 70.871134,9.47428958 C71.9742268,8.45714928 72.5257732,7.13486694 72.5257732,5.50744249 C72.5257732,3.88001804 71.9742268,2.55525485 70.871134,1.53315291 C69.7680412,0.51105097 68.4226804,0 66.8350515,0 C65.2474227,0 63.8994845,0.50857014 62.7912371,1.52571042 C61.6829897,2.5428507 61.128866,3.87009472 61.128866,5.50744249 C61.128866,7.13486694 61.6829897,8.45714928 62.7912371,9.47428958 C63.8994845,10.4914299 65.2474227,11 66.8350515,11 Z M66.8350515,8.67794317 C65.9896907,8.67794317 65.25,8.40505185 64.6159794,7.85926928 C63.9819588,7.3134867 63.6649485,6.52458277 63.6649485,5.49255751 C63.6649485,4.46053225 63.9793815,3.67162832 64.6082474,3.12584574 C65.2474227,2.57013983 65.9896907,2.29228687 66.8350515,2.29228687 C67.6804123,2.29228687 68.4175258,2.567659 69.0463918,3.11840325 C69.6752577,3.6691475 69.9896907,4.46053225 69.9896907,5.49255751 C69.9896907,6.52458277 69.6752577,7.3134867 69.0463918,7.85926928 C68.4175258,8.40505185 67.6804123,8.67794317 66.8350515,8.67794317 Z M76.2525773,10.7767253 L76.2525773,6.98105548 L77.9381443,6.98105548 C79.0515464,6.98105548 79.9561856,6.66847091 80.6520619,6.04330176 C81.3479381,5.41813261 81.6958763,4.60442039 81.6958763,3.60216509 C81.6958763,2.61975643 81.3479381,1.81100586 80.6520619,1.1759134 C79.9561856,0.540820929 79.0515464,0.223274696 77.9381443,0.223274696 L77.9381443,0.223274696 L73.8092784,0.223274696 L73.8092784,10.7767253 L76.2525773,10.7767253 Z M77.6907216,4.95669824 L76.2680412,4.95669824 L76.2680412,2.26251691 L77.6907216,2.26251691 C78.1649482,2.26251691 78.5438142,2.38407758 78.8273196,2.62719892 C79.110825,2.87032026 79.2525773,3.20027064 79.2525773,3.61705007 C79.2525773,4.02390618 79.1082472,4.3488949 78.8195876,4.59201624 C78.5309281,4.83513758 78.1546392,4.95669824 77.6907216,4.95669824 L77.6907216,4.95669824 Z M89.7061856,10.7767253 L89.7061856,8.54397835 L85.1907216,8.54397835 L85.1907216,6.51962111 L89.2731959,6.51962111 L89.2731959,4.45060893 L85.1907216,4.45060893 L85.1907216,2.44113667 L89.6907216,2.44113667 L89.6907216,0.223274696 L82.7474227,0.223274696 L82.7474227,10.7767253 L89.7061856,10.7767253 Z M93.7268041,10.7767253 L93.7268041,3.84032476 L98.242268,10.7767253 L100.824742,10.7767253 L100.824742,0.223274696 L98.3814433,0.223274696 L98.3814433,6.63870095 L94.2680412,0.223274696 L91.2989691,0.223274696 L91.2989691,10.7767253 L93.7268041,10.7767253 Z M105.201031,10.7767253 L105.201031,0.223274696 L102.726804,0.223274696 L102.726804,10.7767253 L105.201031,10.7767253 Z M109.530928,10.7767253 L109.530928,3.84032476 L114.046392,10.7767253 L116.628866,10.7767253 L116.628866,0.223274696 L114.185567,0.223274696 L114.185567,6.63870095 L110.072165,0.223274696 L107.103093,0.223274696 L107.103093,10.7767253 L109.530928,10.7767253 Z M123.448454,11 C124.180413,11 124.809278,10.8759585 125.335052,10.6278755 C125.860825,10.3797925 126.257732,10.0721696 126.525773,9.70500677 L126.525773,9.70500677 L126.680412,10.7767253 L128.659794,10.7767253 L128.659794,5.135318 L123.07732,5.135318 L123.07732,7.12990528 L126.371134,7.12990528 C126.278351,7.53676141 126.005155,7.92625169 125.551546,8.29837618 C125.097938,8.67050068 124.469072,8.85656292 123.664948,8.85656292 C122.726804,8.85656292 121.943299,8.56134413 121.314433,7.97090663 C120.685567,7.3804691 120.371134,6.55931439 120.371134,5.50744249 C120.371134,4.42580063 120.698453,3.60464592 121.353093,3.04397835 C122.007732,2.48331078 122.757732,2.202977 123.603093,2.202977 C124.407216,2.202977 125.033505,2.39896256 125.481959,2.79093369 C125.930412,3.18290483 126.21134,3.60216509 126.324742,4.04871448 L126.324742,4.04871448 L128.675258,3.25981055 C128.386598,2.37663509 127.824742,1.61253947 126.989691,0.967523681 C126.154639,0.322507893 125.025773,0 123.603093,0 C122.015464,0 120.667526,0.5135318 119.559278,1.5405954 C118.451031,2.567659 117.896907,3.88994136 117.896907,5.50744249 C117.896907,7.13486694 118.430412,8.45714928 119.497423,9.47428958 C120.564433,10.4914299 121.881443,11 123.448454,11 Z M133.948454,11 C135.185567,11 136.170103,10.665088 136.902062,9.99526387 C137.634021,9.32543978 138,8.54894003 138,7.66576455 C138,6.8917456 137.724227,6.21447903 137.17268,5.63396482 C136.621134,5.05345061 135.840206,4.67388363 134.829897,4.49526387 L134.829897,4.49526387 L133.360825,4.22733424 C132.639176,4.09833108 132.278351,3.7609382 132.278351,3.21515562 C132.278351,2.9075327 132.417526,2.6420839 132.695876,2.4188092 C132.974227,2.19553451 133.335052,2.08389716 133.778351,2.08389716 C134.365979,2.08389716 134.804124,2.22282364 135.092784,2.50067659 C135.381443,2.77852954 135.551546,3.0811908 135.603093,3.40866035 L135.603093,3.40866035 L137.798969,2.81326116 C137.737113,2.47586829 137.621134,2.15336039 137.451031,1.84573748 C137.280928,1.53811457 137.046392,1.24041498 136.747423,0.952638701 C136.448453,0.664862426 136.043814,0.434145241 135.533505,0.260487145 C135.023196,0.0868290485 134.443299,0 133.793814,0 C132.721649,0 131.798969,0.322507893 131.025773,0.967523681 C130.252577,1.61253947 129.865979,2.42129003 129.865979,3.39377537 C129.865979,4.17771763 130.131443,4.84754172 130.662371,5.40324763 C131.193299,5.95895354 131.92268,6.32115471 132.850515,6.48985115 L132.850515,6.48985115 L134.350515,6.75778078 C134.721649,6.82724402 135.010309,6.95376635 135.216495,7.13734777 C135.422681,7.32092919 135.525773,7.54668471 135.525773,7.81461434 C135.525773,8.1420839 135.386598,8.40753273 135.108247,8.61096076 C134.829897,8.81438879 134.453608,8.91610284 133.979381,8.91610284 C133.268041,8.91610284 132.724227,8.74492558 132.347938,8.40257104 C131.971649,8.06021651 131.757732,7.62607129 131.706186,7.10013532 L131.706186,7.10013532 L129.463918,7.62110961 C129.556701,8.49436173 129.981959,9.27582316 130.739691,9.96549391 C131.497423,10.6551647 132.56701,11 133.948454,11 Z" id="WPJOBOPENINGS"></path>
                </g>
                <g id="Group-18">
                    <g id="path30"></g>
                    <g id="path42" transform="translate(10.500000, 10.500000) rotate(180.000000) translate(-10.500000, -10.500000) translate(0.000000, 0.000000)" fill="#000000" fill-rule="nonzero">
                        <path d="M11.3611685,0 C11.8155911,0.00210013966 12.2618323,0.00756050277 12.6980475,0.0217574469 L13.0233002,0.0341272695 C17.6035989,0.234953124 21,1.57379216 21,10.4993857 C21,19.8450072 17.2764162,20.8730256 12.3690351,20.9861076 L12.0364358,20.992429 C11.6463783,20.9983829 11.2493507,20.999706 10.8465889,21 L10.1533891,21 C9.75062729,20.999706 9.35359989,20.9983829 8.96354262,20.992429 L8.63094361,20.9861076 C3.72356632,20.8730256 -1.84340292e-14,19.8450072 -1.84340292e-14,10.4993857 C-1.84340292e-14,1.57379216 3.39638514,0.234953124 7.97667904,0.0341272695 L8.3019314,0.0217574469 C8.7381462,0.00756050277 9.1843871,0.00210013966 9.63880952,0 L11.3611685,0 Z M10.412069,9.5602798 L10.2807944,9.57107536 C9.1363685,9.71378392 7.83329397,11.1209684 7.61134047,12.7516561 C7.51110341,12.8619049 7.4250207,13.038359 7.36911926,13.3114281 C7.30346949,13.6268013 7.18626924,14.1617742 7.36653073,14.4127374 C7.39170014,14.4499919 7.42248724,14.4800089 7.4558078,14.5039101 C7.10921888,15.8258853 7.39555541,16.5228369 7.43989104,16.6326368 C8.05348507,18.1830205 9.38344365,19.1153379 11.2671845,18.4504228 C11.9048464,18.2251002 12.6111872,17.9397438 13.1188715,17.3714438 C14.0570794,16.3234354 13.6804194,15.1574355 13.5089148,14.5039101 C13.5209763,14.492745 13.5891596,14.4260907 13.6001746,14.4127374 C13.7799955,14.1613254 13.7096643,13.6853201 13.6453364,13.3697225 C13.586571,13.0950824 13.4906298,12.861456 13.3899522,12.7516561 C13.1470701,11.3759873 12.0664374,9.64017253 10.5415122,9.56106276 L10.5415122,9.56106276 L10.412069,9.5602798 Z M15.9821818,2.37793816 C13.3951292,1.28145395 7.60621847,1.28145395 5.01999206,2.37793816 C4.81197262,2.46692265 3.85354106,3.40450838 3.88989627,4.24018275 C3.94196447,5.44864379 4.00844037,6.77572464 5.00754504,8.34338903 C5.00754504,8.34338903 5.29239455,8.75346953 5.96877443,9.02653859 C5.96877443,9.02653859 7.4373025,9.4986165 8.11219535,10.0096882 C8.11219535,10.0096882 8.42584923,9.76904853 8.42177366,9.78616094 C8.42243456,9.77914764 8.3880125,7.66641117 8.3880125,7.66641117 L8.3880125,7.66641117 L10.2409662,2.43886954 L10.2725147,2.37490057 C10.3235417,2.29674323 10.408252,2.24863011 10.5006463,2.24863011 C10.6157537,2.24863011 10.7190199,2.32380686 10.7598858,2.43886954 L10.7598858,2.43886954 L12.6133352,7.66641117 L12.5792987,9.78616094 L12.88739,10.0096882 L13.00047,9.92937987 C13.7144646,9.45023179 15.0321327,9.02653859 15.0321327,9.02653859 C15.7089532,8.75346953 15.9933621,8.34338903 15.9933621,8.34338903 C16.9928688,6.77572464 17.0578577,5.44864379 17.1101241,4.24018275 C17.1460333,3.40450838 16.1914679,2.46692265 15.9821818,2.37793816 Z M10.5010869,2.75884902 C10.4649575,2.75884902 10.434611,2.78580246 10.4286078,2.82393787 L10.4286078,2.82393787 L9.75002492,7.1765476 L10.4094416,7.84914918 L9.67451666,9.03663771 L9.87566632,8.9714747 C10.0774407,8.91469081 10.2807719,8.88363601 10.4828019,8.88363601 L10.4828019,8.88363601 L10.5666816,8.88582415 L10.761532,8.90074314 C10.9538679,8.922451 11.1386525,8.96386792 11.315816,9.01907646 L11.315816,9.01907646 L10.5922916,7.84914918 L11.2521489,7.1765476 L10.5731805,2.82393787 L10.5596422,2.79011391 C10.5461263,2.77082833 10.5246224,2.75884902 10.5010869,2.75884902 Z" id="Combined-Shape"></path>
                    </g>
                </g>
            </g>
        </g>
    </g>
</svg>