<?xml version="1.0" encoding="UTF-8"?>
<svg width="217px" height="27px" viewBox="0 0 217 27" version="1.1" xmlns="http://www.w3.org/2000/svg" xmlns:xlink="http://www.w3.org/1999/xlink">
    <title>Group 20</title>
    <g id="Designs" stroke="none" stroke-width="1" fill="none" fill-rule="evenodd">
        <g id="Artboard" transform="translate(-4.000000, -8.000000)" fill-rule="nonzero">
            <g id="Group-20" transform="translate(4.000000, 8.000000)">
                <g id="Group-9" transform="translate(38.220000, 6.520000)" fill="#000000">
                    <path d="M7.18,14.48 L10.22,5.08 L13.24,14.48 L16.5,14.48 L20.36,0.3 L17.12,0.3 L14.82,9.4 L11.88,0.3 L8.64,0.3 L5.7,9.38 L3.36,0.3 L0,0.3 L3.86,14.48 L7.18,14.48 Z M24.66,14.48 L24.66,9.38 L26.84,9.38 C28.28,9.38 29.45,8.96 30.35,8.12 C31.25,7.28 31.7,6.18666667 31.7,4.84 C31.7,3.52 31.25,2.43333333 30.35,1.58 C29.45,0.726666667 28.28,0.3 26.84,0.3 L26.84,0.3 L21.5,0.3 L21.5,14.48 L24.66,14.48 Z M26.52,6.66 L24.68,6.66 L24.68,3.04 L26.52,3.04 C27.1333333,3.04 27.6233333,3.20333333 27.99,3.53 C28.3566667,3.85666667 28.54,4.3 28.54,4.86 C28.54,5.40666667 28.3533333,5.84333333 27.98,6.17 C27.6066667,6.49666667 27.12,6.66 26.52,6.66 L26.52,6.66 Z M41.08,14.78 C42.4666667,14.78 43.6133333,14.32 44.52,13.4 C45.4266667,12.48 45.88,11.36 45.88,10.04 L45.88,10.04 L45.88,0.3 L42.72,0.3 L42.72,9.96 C42.72,10.4933333 42.57,10.93 42.27,11.27 C41.97,11.61 41.5666667,11.78 41.06,11.78 C40.5666667,11.78 40.1566667,11.6233333 39.83,11.31 C39.5033333,10.9966667 39.34,10.54 39.34,9.94 L39.34,9.94 L39.34,8.64 L36.34,9.16 L36.34,10.1 C36.34,11.5 36.7766667,12.63 37.65,13.49 C38.5233333,14.35 39.6666667,14.78 41.08,14.78 Z M54.8,14.78 C56.8533333,14.78 58.5933333,14.0966667 60.02,12.73 C61.4466667,11.3633333 62.16,9.58666667 62.16,7.4 C62.16,5.21333333 61.4466667,3.43333333 60.02,2.06 C58.5933333,0.686666667 56.8533333,0 54.8,0 C52.7466667,0 51.0033333,0.683333333 49.57,2.05 C48.1366667,3.41666667 47.42,5.2 47.42,7.4 C47.42,9.58666667 48.1366667,11.3633333 49.57,12.73 C51.0033333,14.0966667 52.7466667,14.78 54.8,14.78 Z M54.8,11.66 C53.7066667,11.66 52.75,11.2933333 51.93,10.56 C51.11,9.82666667 50.7,8.76666667 50.7,7.38 C50.7,5.99333333 51.1066667,4.93333333 51.92,4.2 C52.7466667,3.45333333 53.7066667,3.08 54.8,3.08 C55.8933333,3.08 56.8466667,3.45 57.66,4.19 C58.4733333,4.93 58.88,5.99333333 58.88,7.38 C58.88,8.76666667 58.4733333,9.82666667 57.66,10.56 C56.8466667,11.2933333 55.8933333,11.66 54.8,11.66 Z M69.54,14.48 C70.86,14.48 71.93,14.1033333 72.75,13.35 C73.57,12.5966667 73.98,11.6333333 73.98,10.46 C73.98,9.59333333 73.7333333,8.86333333 73.24,8.27 C72.7466667,7.67666667 72.1533333,7.3 71.46,7.14 C72.06,6.94 72.5566667,6.56 72.95,6 C73.3433333,5.44 73.54,4.80666667 73.54,4.1 C73.54,2.98 73.1466667,2.06666667 72.36,1.36 C71.5733333,0.653333333 70.4933333,0.3 69.12,0.3 L69.12,0.3 L63.82,0.3 L63.82,14.48 L69.54,14.48 Z M68.62,5.98 L66.9,5.98 L66.9,2.92 L68.58,2.92 C69.18,2.92 69.64,3.05666667 69.96,3.33 C70.28,3.60333333 70.44,3.97333333 70.44,4.44 C70.44,4.92 70.2766667,5.29666667 69.95,5.57 C69.6233333,5.84333333 69.18,5.98 68.62,5.98 L68.62,5.98 Z M68.88,11.9 L66.9,11.9 L66.9,8.58 L68.88,8.58 C69.4933333,8.58 69.9733333,8.73333333 70.32,9.04 C70.6666667,9.34666667 70.84,9.74666667 70.84,10.24 C70.84,10.7466667 70.6666667,11.15 70.32,11.45 C69.9733333,11.75 69.4933333,11.9 68.88,11.9 L68.88,11.9 Z M86.44,14.78 C88.4933333,14.78 90.2333333,14.0966667 91.66,12.73 C93.0866667,11.3633333 93.8,9.58666667 93.8,7.4 C93.8,5.21333333 93.0866667,3.43333333 91.66,2.06 C90.2333333,0.686666667 88.4933333,0 86.44,0 C84.3866667,0 82.6433333,0.683333333 81.21,2.05 C79.7766667,3.41666667 79.06,5.2 79.06,7.4 C79.06,9.58666667 79.7766667,11.3633333 81.21,12.73 C82.6433333,14.0966667 84.3866667,14.78 86.44,14.78 Z M86.44,11.66 C85.3466667,11.66 84.39,11.2933333 83.57,10.56 C82.75,9.82666667 82.34,8.76666667 82.34,7.38 C82.34,5.99333333 82.7466667,4.93333333 83.56,4.2 C84.3866667,3.45333333 85.3466667,3.08 86.44,3.08 C87.5333333,3.08 88.4866667,3.45 89.3,4.19 C90.1133333,4.93 90.52,5.99333333 90.52,7.38 C90.52,8.76666667 90.1133333,9.82666667 89.3,10.56 C88.4866667,11.2933333 87.5333333,11.66 86.44,11.66 Z M98.62,14.48 L98.62,9.38 L100.8,9.38 C102.24,9.38 103.41,8.96 104.31,8.12 C105.21,7.28 105.66,6.18666667 105.66,4.84 C105.66,3.52 105.21,2.43333333 104.31,1.58 C103.41,0.726666667 102.24,0.3 100.8,0.3 L100.8,0.3 L95.46,0.3 L95.46,14.48 L98.62,14.48 Z M100.48,6.66 L98.64,6.66 L98.64,3.04 L100.48,3.04 C101.093333,3.04 101.583333,3.20333333 101.95,3.53 C102.316667,3.85666667 102.5,4.3 102.5,4.86 C102.5,5.40666667 102.313333,5.84333333 101.94,6.17 C101.566667,6.49666667 101.08,6.66 100.48,6.66 L100.48,6.66 Z M116.02,14.48 L116.02,11.48 L110.18,11.48 L110.18,8.76 L115.46,8.76 L115.46,5.98 L110.18,5.98 L110.18,3.28 L116,3.28 L116,0.3 L107.02,0.3 L107.02,14.48 L116.02,14.48 Z M121.22,14.48 L121.22,5.16 L127.06,14.48 L130.4,14.48 L130.4,0.3 L127.24,0.3 L127.24,8.92 L121.92,0.3 L118.08,0.3 L118.08,14.48 L121.22,14.48 Z M136.06,14.48 L136.06,0.3 L132.86,0.3 L132.86,14.48 L136.06,14.48 Z M141.66,14.48 L141.66,5.16 L147.5,14.48 L150.84,14.48 L150.84,0.3 L147.68,0.3 L147.68,8.92 L142.36,0.3 L138.52,0.3 L138.52,14.48 L141.66,14.48 Z M159.66,14.78 C160.606667,14.78 161.42,14.6133333 162.1,14.28 C162.78,13.9466667 163.293333,13.5333333 163.64,13.04 L163.64,13.04 L163.84,14.48 L166.4,14.48 L166.4,6.9 L159.18,6.9 L159.18,9.58 L163.44,9.58 C163.32,10.1266667 162.966667,10.65 162.38,11.15 C161.793333,11.65 160.98,11.9 159.94,11.9 C158.726667,11.9 157.713333,11.5033333 156.9,10.71 C156.086667,9.91666667 155.68,8.81333333 155.68,7.4 C155.68,5.94666667 156.103333,4.84333333 156.95,4.09 C157.796667,3.33666667 158.766667,2.96 159.86,2.96 C160.9,2.96 161.71,3.22333333 162.29,3.75 C162.87,4.27666667 163.233333,4.84 163.38,5.44 L163.38,5.44 L166.42,4.38 C166.046667,3.19333333 165.32,2.16666667 164.24,1.3 C163.16,0.433333333 161.7,0 159.86,0 C157.806667,0 156.063333,0.69 154.63,2.07 C153.196667,3.45 152.48,5.22666667 152.48,7.4 C152.48,9.58666667 153.17,11.3633333 154.55,12.73 C155.93,14.0966667 157.633333,14.78 159.66,14.78 Z M173.24,14.78 C174.84,14.78 176.113333,14.33 177.06,13.43 C178.006667,12.53 178.48,11.4866667 178.48,10.3 C178.48,9.26 178.123333,8.35 177.41,7.57 C176.696667,6.79 175.686667,6.28 174.38,6.04 L174.38,6.04 L172.48,5.68 C171.546667,5.50666667 171.08,5.05333333 171.08,4.32 C171.08,3.90666667 171.26,3.55 171.62,3.25 C171.98,2.95 172.446667,2.8 173.02,2.8 C173.78,2.8 174.346667,2.98666667 174.72,3.36 C175.093333,3.73333333 175.313333,4.14 175.38,4.58 L175.38,4.58 L178.22,3.78 C178.14,3.32666667 177.99,2.89333333 177.77,2.48 C177.55,2.06666667 177.246667,1.66666667 176.86,1.28 C176.473333,0.893333333 175.95,0.583333333 175.29,0.35 C174.63,0.116666667 173.88,0 173.04,0 C171.653333,0 170.46,0.433333333 169.46,1.3 C168.46,2.16666667 167.96,3.25333333 167.96,4.56 C167.96,5.61333333 168.303333,6.51333333 168.99,7.26 C169.676667,8.00666667 170.62,8.49333333 171.82,8.72 L171.82,8.72 L173.76,9.08 C174.24,9.17333333 174.613333,9.34333333 174.88,9.59 C175.146667,9.83666667 175.28,10.14 175.28,10.5 C175.28,10.94 175.1,11.2966667 174.74,11.57 C174.38,11.8433333 173.893333,11.98 173.28,11.98 C172.36,11.98 171.656667,11.75 171.17,11.29 C170.683333,10.83 170.406667,10.2466667 170.34,9.54 L170.34,9.54 L167.44,10.24 C167.56,11.4133333 168.11,12.4633333 169.09,13.39 C170.07,14.3166667 171.453333,14.78 173.24,14.78 Z" id="WPJOBOPENINGS"></path>
                </g>
                <g id="Group-18">
                    <g id="path30" transform="translate(0.000000, 0.000000)" fill="#000000">
                        <path d="M14.6072167,0.0016875 C15.1914743,0.0043875 15.7652129,0.0114075 16.3260611,0.0296595 L16.7442431,0.0455625 C22.6331986,0.30375 27,2.025 27,13.5 C27,25.515 22.2125351,26.83665 15.9030451,26.9820315 L15.4754174,26.9901585 C14.9739149,26.997813 14.4634509,26.999514 13.9456143,26.999892 L13.0543574,26.999892 C12.5365208,26.999514 12.026057,26.997813 11.5245548,26.9901585 L11.0969275,26.9820315 C4.78744241,26.83665 0,25.515 0,13.5 C0,2.025 4.36678089,0.30375 10.2557302,0.0455625 L10.6739118,0.0296595 C11.2347594,0.0114075 11.8084977,0.0043875 12.3927551,0.0016875 Z" id="path-3"></path>
                    </g>
                    <g id="path42" transform="translate(13.500000, 14.000000) rotate(180.000000) translate(-13.500000, -14.000000) translate(5.000000, 3.000000)" fill="#FFFFFF">
                        <path d="M12.3686048,16.6467523 C12.3841124,16.6323981 12.4717766,16.5467055 12.4859388,16.5295381 C12.7171371,16.2063156 12.6267113,15.5943494 12.5440039,15.1886081 C12.4684484,14.8355229 12.3450955,14.5351661 12.2156528,14.3940042 C11.9033758,12.6254047 10.5139909,10.3937913 8.55337282,10.2920855 C7.01273544,10.2118028 5.09332941,12.136279 4.78600918,14.3940042 C4.65713296,14.5357432 4.54645519,14.7625977 4.47458191,15.1136631 C4.39017506,15.519116 4.23948902,16.2068926 4.47125379,16.5295381 C4.50361447,16.5774336 4.54319788,16.6160242 4.5860386,16.6467523 C4.14042427,18.3463217 4.50857124,19.2423428 4.56557419,19.3835047 C5.3544808,21.3767226 7.06442755,22.5753366 9.48638005,21.7205027 C10.3062311,21.4308215 11.2143836,21.0639591 11.8671205,20.3333362 C13.0733878,18.9859864 12.5891106,17.4869434 12.3686048,16.6467523 L12.3686048,16.6467523 Z M15.5485194,1.05725375 C12.222309,-0.352417916 4.77942375,-0.352417916 1.45427551,1.05725375 C1.18682194,1.17165477 -0.0454472084,2.37704198 0.00129520719,3.451409 C0.0682400333,5.0050413 0.153709047,6.71117464 1.4382722,8.72660911 C1.4382722,8.72660911 1.80450728,9.2538204 2.67413855,9.60488585 C2.67413855,9.60488585 4.56224607,10.2118028 5.42996545,10.8688513 C5.42996545,10.8688513 5.83323473,10.559478 5.82799471,10.5814782 C5.82884444,10.5724617 5.7845875,7.85626688 5.7845875,7.85626688 L8.16695658,1.13558888 C8.21928599,0.987660992 8.35234007,0.891011601 8.50083098,0.891011601 C8.6488262,0.891011601 8.78159704,0.987660992 8.83413889,1.13558888 L11.2171453,7.85626688 L11.173384,10.5814782 L11.5695014,10.8688513 C12.4394159,10.2118028 14.3270277,9.60488585 14.3270277,9.60488585 C15.1972255,9.2538204 15.5628941,8.72660911 15.5628941,8.72660911 C16.8479742,6.71117464 16.9315313,5.0050413 16.998731,3.451409 C17.0448999,2.37704198 15.8176016,1.17165477 15.5485194,1.05725375 Z M8.61866067,8.09120013 L9.46704861,7.22648418 L8.59408921,1.63064381 C8.58629999,1.58161583 8.54678739,1.54696372 8.50139747,1.54696372 C8.45494538,1.54696372 8.41592845,1.58161583 8.40821004,1.63064381 L7.53574632,7.22648418 L8.38356777,8.09120013 L7.43866428,9.61786957 C7.7822398,9.49214385 8.13155102,9.42116617 8.47788818,9.42116617 L8.5857335,9.42397931 C8.924069,9.43754008 9.2451974,9.5006554 9.54890626,9.59529232 L8.61866067,8.09120013 Z" id="path-1"></path>
                    </g>
                </g>
            </g>
        </g>
    </g>
</svg>