<?xml version="1.0" encoding="UTF-8"?>
<svg width="20px" height="20px" viewBox="0 0 20 20" version="1.1" xmlns="http://www.w3.org/2000/svg" xmlns:xlink="http://www.w3.org/1999/xlink">
    <!-- Generator: Sketch 64 (93537) - https://sketch.com -->
    <title>Group 18</title>
    <desc>Created with Sketch.</desc>
    <defs>
        <path d="M8.71424427,11.7283937 C8.7251701,11.7182805 8.78693349,11.6579062 8.79691142,11.645811 C8.95980112,11.418086 8.89609204,10.986928 8.83782093,10.7010648 C8.78458868,10.4523003 8.69768091,10.2406852 8.60648263,10.1412302 C8.38646929,8.89517153 7.40758451,7.32289841 6.02623994,7.25124202 C4.94079088,7.19467922 3.58848209,8.55056024 3.37196102,10.1412302 C3.28116186,10.2410918 3.20318434,10.4009211 3.15254635,10.6482627 C3.09307789,10.9339226 2.98691272,11.4184925 3.15020153,11.645811 C3.1730011,11.6795555 3.20088941,11.7067443 3.23107265,11.7283937 C2.9171171,12.9258175 3.17649338,13.5571052 3.21665454,13.6565601 C3.77247511,15.0608727 4.97721032,15.9053508 6.68358594,15.3030815 C7.26120828,15.0989878 7.90104301,14.8405167 8.36092579,14.3257596 C9.21079594,13.3764904 8.86960063,12.3203465 8.71424427,11.7283937 L8.71424427,11.7283937 Z M10.9546387,0.744883322 C8.61117226,-0.248294441 3.36732128,-0.248294441 1.0246032,0.744883322 C0.836170003,0.825484046 -0.0320196241,1.67473412 0.000912532342,2.43167452 C0.0480782053,3.5262791 0.10829501,4.72832759 1.01332814,6.14829278 C1.01332814,6.14829278 1.2713574,6.5197371 1.88405216,6.76707866 C1.88405216,6.76707866 3.21430973,7.19467922 3.82565747,7.65759977 C3.82565747,7.65759977 4.10977902,7.43963224 4.10608718,7.45513238 C4.10668586,7.44877986 4.07550483,5.53509712 4.07550483,5.53509712 L5.75399214,0.800073981 C5.79086059,0.695852063 5.88460323,0.627758173 5.98922182,0.627758173 C6.09349119,0.627758173 6.18703428,0.695852063 6.2240524,0.800073981 L7.90298871,5.53509712 L7.87215691,7.45513238 L8.1512396,7.65759977 C8.76413392,7.19467922 10.0940423,6.76707866 10.0940423,6.76707866 C10.7071361,6.5197371 10.9647663,6.14829278 10.9647663,6.14829278 C11.8701636,4.72832759 11.9290334,3.5262791 11.9763787,2.43167452 C12.0089067,1.67473412 11.1442193,0.825484046 10.9546387,0.744883322 Z M6.0722382,5.70061828 L6.66996607,5.09138658 L6.05492649,1.14886268 C6.04943863,1.11432024 6.02160021,1.08990625 5.98962094,1.08990625 C5.95689333,1.08990625 5.92940414,1.11432024 5.92396617,1.14886268 L5.30927582,5.09138658 L5.90660457,5.70061828 L5.24087711,6.77622629 C5.48294168,6.6876468 5.72904731,6.6376398 5.97305758,6.6376398 L6.04903951,6.63962178 C6.28741225,6.64917597 6.5136618,6.69364358 6.7276385,6.76031959 L6.0722382,5.70061828 Z" id="path-1"></path>
        <path d="M5.98862635,-1.11205025 C11.2953257,-1.11205025 14.4988871,-1.11205025 14.4988871,7.39773228 C14.4988871,15.9074948 11.2953257,15.9074948 5.98862635,15.9074948 C0.681556565,15.9074948 -2.52161435,15.9074948 -2.52161435,7.39773228 C-2.52161435,-1.11205025 0.681556565,-1.11205025 5.98862635,-1.11205025 M5.98862635,-2.11363636 C0.735536574,-2.11363636 -3.52272727,-2.11363636 -3.52272727,7.39773228 C-3.52272727,16.9090909 0.735536574,16.9090909 5.98862635,16.9090909 C11.2417161,16.9090909 15.5,16.9090909 15.5,7.39773228 C15.5,-2.11363636 11.2417161,-2.11363636 5.98862635,-2.11363636 Z" id="path-3"></path>
    </defs>
    <g id="Home" stroke="none" stroke-width="1" fill="none" fill-rule="evenodd">
        <g id="Desktop-HD" transform="translate(-377.000000, -52.000000)">
            <g id="Hero" transform="translate(0.000000, 11.000000)">
                <g id="Group-12" transform="translate(381.000000, 43.000000)">
                    <g id="Group-18" transform="translate(0.000000, 1.000000)">
                        <mask id="mask-2" fill="white">
                            <use xlink:href="#path-1"></use>
                        </mask>
                        <use id="path42" fill="#FFFFFF" transform="translate(5.988636, 7.750000) rotate(180.000000) translate(-5.988636, -7.750000) " xlink:href="#path-1"></use>
                        <mask id="mask-4" fill="white">
                            <use xlink:href="#path-3"></use>
                        </mask>
                        <use id="path30" fill="#FFFFFF" xlink:href="#path-3"></use>
                    </g>
                </g>
            </g>
        </g>
    </g>
</svg>