<?xml version="1.0" encoding="UTF-8"?>
<svg width="596px" height="84px" viewBox="0 0 596 84" version="1.1" xmlns="http://www.w3.org/2000/svg" xmlns:xlink="http://www.w3.org/1999/xlink">
    <title>Group</title>
    <g id="Designs" stroke="none" stroke-width="1" fill="none" fill-rule="evenodd">
        <g id="Artboard" transform="translate(-161.000000, -153.000000)">
            <g id="Group" transform="translate(161.000000, 153.000000)">
                <path d="M40,0 C62.09139,0 80,17.90861 80,40 C80,62.09139 62.09139,80 40,80 C17.90861,80 0,62.09139 0,40 C0,17.90861 17.90861,0 40,0 Z M34.2822415,22 L24,22 L24,59 L33.4858191,59 L34.0546922,52.8908527 L46.4906033,52.8908527 L46.7181526,59 L57,59 L57,22 L46.7181526,22 L46.4906033,40.4583192 L40.0753997,44.9783594 L34.2822415,41.1470688 L34.2822415,22 Z M98,59.1691079 L98,21.7789614 L105.114801,21.7789614 L105.114801,37.150466 L121.960138,37.150466 L121.960138,21.7789614 L129.074938,21.7789614 L129.074938,59.1691079 L121.960138,59.1691079 L121.960138,43.7456724 L105.114801,43.7456724 L105.114801,59.1691079 L98,59.1691079 Z M136.631508,27.2316911 L136.631508,21 L143.746309,21 L143.746309,27.2316911 L136.631508,27.2316911 Z M136.631508,59.1691079 L136.631508,31.126498 L143.746309,31.126498 L143.746309,59.1691079 L136.631508,59.1691079 Z M151.302878,59.1691079 L151.302878,31.126498 L157.580643,31.126498 C156.883114,35.7541056 156.656417,37.7447847 156.900552,37.0985353 C157.266755,36.1291611 157.755026,35.2463382 158.365364,34.4500666 C158.975702,33.6537949 159.725546,32.9960053 160.614897,32.4766977 C161.294988,32.0612517 162.036113,31.7366844 162.838272,31.502996 C163.640431,31.2693076 164.468747,31.1221704 165.323221,31.0615846 C166.177694,31.0009987 167.032168,31.0226365 167.886641,31.126498 L167.886641,37.7217044 C167.101921,37.4793609 166.190773,37.3971372 165.153198,37.4750333 C164.115623,37.5529294 163.178317,37.7909454 162.341282,38.1890812 C161.504247,38.5699068 160.797998,39.0762317 160.222536,39.7080559 C159.647074,40.3398802 159.211118,41.084221 158.914668,41.9410786 C158.618218,42.7979361 158.469993,43.7629827 158.469993,44.8362184 L158.469993,59.1691079 L151.302878,59.1691079 Z M178.682863,51.210719 C179.825067,52.6388149 181.503498,53.3528628 183.718154,53.3528628 C185.113213,53.3528628 186.307732,53.0499334 187.301711,52.4440746 C188.295691,51.8382157 189.054254,50.9640479 189.577401,49.8215712 L196.692202,51.8468708 C195.62847,54.4087883 193.950039,56.3994674 191.656911,57.8189081 C189.363783,59.2383489 186.857036,59.9480692 184.136671,59.9480692 C181.241924,59.9480692 178.691582,59.3292277 176.485645,58.0915446 C174.279708,56.8538615 172.553322,55.1488016 171.306488,52.9763648 C170.059654,50.8039281 169.436237,48.3155792 169.436237,45.5113182 C169.436237,42.4474035 170.046576,39.7816245 171.267252,37.5139814 C172.487929,35.2463382 174.170719,33.48502 176.315622,32.2300266 C178.460525,30.9750333 180.928036,30.3475366 183.718154,30.3475366 C186.682654,30.3475366 189.202479,31.0399467 191.277629,32.424767 C193.35278,33.8095872 194.887344,35.7569907 195.881324,38.2669774 C196.875304,40.776964 197.224068,43.7283622 196.927618,47.1211718 L177.092682,47.1221108 C177.316795,48.8025917 177.846856,50.1654611 178.682863,51.210719 Z M184.032042,36.4753662 C181.608127,36.4753662 179.825067,37.2067244 178.682863,38.6694407 C178.027347,39.5088998 177.559932,40.5778405 177.28062,41.876263 L189.730713,41.8754408 C189.524705,40.3562309 189.120477,39.1837027 188.518028,38.3578562 C187.602521,37.1028628 186.107192,36.4753662 184.032042,36.4753662 Z M216.291065,59.9480692 C213.500947,59.9480692 210.985481,59.4590546 208.744668,58.4810253 C206.503854,57.502996 204.66412,56.1008655 203.225466,54.2746338 C201.786811,52.4484021 200.875663,50.2716378 200.492022,47.7443409 L207.920711,46.6537949 C208.443858,48.8002663 209.525029,50.4533955 211.164223,51.6131824 C212.803417,52.7729694 214.669309,53.3528628 216.761897,53.3528628 C217.930259,53.3528628 219.063745,53.1711052 220.162353,52.8075899 C221.260962,52.4440746 222.163391,51.9074567 222.86964,51.1977364 C223.575888,50.488016 223.929013,49.6138482 223.929013,48.575233 C223.929013,48.1944075 223.872338,47.8265646 223.75899,47.4717044 C223.645641,47.1168442 223.45818,46.7836218 223.196607,46.4720373 C222.935033,46.1604527 222.564471,45.8661784 222.084919,45.5892144 C221.605368,45.3122503 220.999389,45.0612517 220.266983,44.8362184 L210.484132,41.9800266 C209.751726,41.7723036 208.901612,41.4780293 207.93379,41.0972037 C206.965968,40.7163782 206.028662,40.1711052 205.121874,39.4613848 C204.215086,38.7516644 203.460882,37.8125832 202.859263,36.6441411 C202.257644,35.4756991 201.956834,34 201.956834,32.2170439 C201.956834,29.7070573 202.59333,27.6211718 203.866321,25.9593875 C205.139312,24.2976032 206.83954,23.0599201 208.967005,22.2463382 C211.09447,21.4327563 213.448632,21.0346205 216.029491,21.0519308 C218.627789,21.0865513 220.947074,21.5279627 222.987348,22.3761651 C225.027622,23.2243675 226.736569,24.457723 228.11419,26.0762317 C229.49181,27.6947403 230.48579,29.6724368 231.096128,32.0093209 L223.405866,33.3075899 C223.126854,32.0958722 222.612426,31.0745672 221.862582,30.2436751 C221.112737,29.412783 220.219028,28.7809587 219.181453,28.3482024 C218.143878,27.9154461 217.058347,27.6817577 215.924862,27.6471372 C214.808815,27.6125166 213.758161,27.7639814 212.7729,28.1015313 C211.78764,28.4390812 210.985481,28.9280959 210.366424,29.5685752 C209.747366,30.2090546 209.437838,30.9707057 209.437838,31.8535286 C209.437838,32.6671105 209.690692,33.3292277 210.196401,33.8398802 C210.70211,34.3505326 211.338605,34.7616511 212.105888,35.0732357 C212.87317,35.3848202 213.657891,35.644474 214.46005,35.8521971 L220.999389,37.6178429 C221.97593,37.8774967 223.057101,38.2193742 224.242901,38.6434754 C225.428701,39.0675766 226.566546,39.6561252 227.656436,40.4091212 C228.746326,41.1621172 229.644395,42.1531292 230.350643,43.3821571 C231.056892,44.6111851 231.410016,46.1691079 231.410016,48.0559254 C231.410016,50.0639148 230.987139,51.8165779 230.141385,53.3139148 C229.29563,54.8112517 228.157785,56.0489348 226.72785,57.026964 C225.297914,58.0049933 223.680518,58.7363515 221.87566,59.2210386 C220.070803,59.7057257 218.209271,59.9480692 216.291065,59.9480692 Z M243.57028,31.126498 L243.57028,44.3688415 C243.57028,45.0093209 243.605157,45.8272304 243.67491,46.8225699 C243.744663,47.8179095 243.962641,48.8175766 244.328844,49.8215712 C244.695047,50.8255659 245.292306,51.6651132 246.120623,52.340213 C246.948939,53.0153129 248.12166,53.3528628 249.638787,53.3528628 C250.249125,53.3528628 250.903059,53.2576565 251.600589,53.0672437 C252.298118,52.8768309 252.952052,52.508988 253.56239,51.963715 C254.172728,51.4184421 254.674078,50.6135153 255.066438,49.5489348 C255.458798,48.4843542 255.654979,47.0865513 255.654979,45.355526 L255.654979,31.126498 L262.822094,31.126498 L262.822094,59.1691079 L256.544329,59.1691079 L256.546181,56.279434 C255.892311,57.0044957 255.13749,57.6474807 254.281717,58.2083888 C252.459422,59.4027963 250.161934,60 247.389254,60 C245.174598,60 243.369741,59.6278296 241.974682,58.8834887 C240.579623,58.1391478 239.494092,57.195739 238.718091,56.0532623 C237.942089,54.9107856 237.388425,53.7207057 237.057099,52.4830226 C236.725772,51.2453395 236.525233,50.1158455 236.45548,49.0945406 L236.430371,48.715388 C236.377357,47.8869314 236.35085,47.2689747 236.35085,46.861518 L236.35085,31.126498 L243.57028,31.126498 Z M270.378663,27.2316911 L270.378663,21 L277.493464,21 L277.493464,27.2316911 L270.378663,27.2316911 Z M270.378663,59.1691079 L270.378663,31.126498 L277.493464,31.126498 L277.493464,59.1691079 L270.378663,59.1691079 Z M293.838905,23.3368842 L293.838,31.126 L302,31.126498 L302,36.5792277 L293.838,36.579 L293.838905,46.861518 C293.838905,47.9520639 293.851984,48.9344208 293.878141,49.8085885 C293.904298,50.6827563 294.08304,51.379494 294.414367,51.8988016 C295.042143,52.885486 296.044842,53.4221039 297.422463,53.5086551 C298.800083,53.5952064 300.325929,53.5259654 302,53.3009321 L302,59.1691079 C300.046917,59.5326232 298.133071,59.692743 296.25846,59.6494674 C294.38385,59.6061917 292.709779,59.2772969 291.236248,58.662783 C289.762717,58.048269 288.64231,57.057257 287.875028,55.689747 C287.177498,54.4087883 286.811296,53.1061917 286.776419,51.7819574 L286.769452,51.5054462 C286.74034,50.2962602 286.725245,48.944455 286.724104,47.4500306 L286.724,36.579 L281.911151,36.5792277 L281.911151,31.126498 L286.724,31.126 L286.724104,23.3368842 L293.838905,23.3368842 Z" id="Shape" fill="#000000"></path>
                <g id="formerly-WP-JOB-OPEN" transform="translate(382.264000, 20.006000)" fill="#000000" fill-rule="nonzero">
                    <path d="M6.82,7.282 L4.268,7.282 L4.268,15.994 L2.134,15.994 L2.134,7.282 L0.176,7.282 L0.176,5.412 L2.134,5.412 L2.134,3.63 C2.134,2.50066667 2.464,1.61333333 3.124,0.968 C3.784,0.322666667 4.61266667,0 5.61,0 C6.24066667,0 6.65133333,0.0733333333 6.842,0.22 L6.842,2.068 C6.622,1.98 6.32133333,1.936 5.94,1.936 C5.48533333,1.936 5.093,2.07166667 4.763,2.343 C4.433,2.61433333 4.268,3.08 4.268,3.74 L4.268,5.412 L6.82,5.412 L6.82,7.282 Z" id="Path"></path>
                    <path d="M10.0852632,13.486 C10.7305965,14.146 11.5152632,14.476 12.4392632,14.476 C13.3632632,14.476 14.1442632,14.1423333 14.7822632,13.475 C15.4202632,12.8076667 15.7392632,11.88 15.7392632,10.692 C15.7392632,9.51866667 15.4202632,8.59833333 14.7822632,7.931 C14.1442632,7.26366667 13.3632632,6.93 12.4392632,6.93 C11.5152632,6.93 10.7342632,7.26366667 10.0962632,7.931 C9.45826316,8.59833333 9.13926316,9.51866667 9.13926316,10.692 C9.13926316,11.88 9.45459649,12.8113333 10.0852632,13.486 Z M8.54526316,6.688 C9.57192982,5.61733333 10.8699298,5.082 12.4392632,5.082 C14.0085965,5.082 15.3029298,5.61366667 16.3222632,6.677 C17.3415965,7.74033333 17.8512632,9.07866667 17.8512632,10.692 C17.8512632,12.32 17.3452632,13.6656667 16.3332632,14.729 C15.3212632,15.7923333 14.0232632,16.324 12.4392632,16.324 C10.8552632,16.324 9.55726316,15.7923333 8.54526316,14.729 C7.53326316,13.6656667 7.02726316,12.32 7.02726316,10.692 C7.02726316,9.07866667 7.53326316,7.744 8.54526316,6.688 Z" id="Shape"></path>
                    <path d="M25.6705263,5.302 L25.6705263,7.502 C25.3625263,7.458 25.0618596,7.436 24.7685263,7.436 C22.8325263,7.436 21.8645263,8.52133333 21.8645263,10.692 L21.8645263,15.994 L19.7965263,15.994 L19.7965263,5.412 L21.8205263,5.412 L21.8205263,7.26 C22.4658596,5.91066667 23.5218596,5.236 24.9885263,5.236 C25.223193,5.236 25.4505263,5.258 25.6705263,5.302 Z" id="Path"></path>
                    <path d="M29.2217895,15.994 L27.1757895,15.994 L27.1757895,5.412 L29.1557895,5.412 L29.1557895,6.82 C29.4784561,6.26266667 29.9331228,5.83733333 30.5197895,5.544 C31.1064561,5.25066667 31.7224561,5.104 32.3677895,5.104 C33.0571228,5.104 33.6877895,5.27266667 34.2597895,5.61 C34.8317895,5.94733333 35.2571228,6.446 35.5357895,7.106 C36.2691228,5.77133333 37.4497895,5.104 39.0777895,5.104 C40.0897895,5.104 40.9514561,5.44866667 41.6627895,6.138 C42.3741228,6.82733333 42.7297895,7.82466667 42.7297895,9.13 L42.7297895,15.994 L40.6837895,15.994 L40.6837895,9.35 C40.6837895,8.61666667 40.4967895,8.03 40.1227895,7.59 C39.7487895,7.15 39.1877895,6.93 38.4397895,6.93 C37.7211228,6.93 37.1344561,7.183 36.6797895,7.689 C36.2251228,8.195 35.9977895,8.82933333 35.9977895,9.592 L35.9977895,15.994 L33.9297895,15.994 L33.9297895,9.35 C33.9297895,8.61666667 33.7427895,8.03 33.3687895,7.59 C32.9947895,7.15 32.4337895,6.93 31.6857895,6.93 C30.9524561,6.93 30.3584561,7.17933333 29.9037895,7.678 C29.4491228,8.17666667 29.2217895,8.822 29.2217895,9.614 L29.2217895,15.994 Z" id="Path"></path>
                    <path d="M46.6770526,9.614 L52.4630526,9.614 C52.4337193,8.822 52.1697193,8.173 51.6710526,7.667 C51.172386,7.161 50.468386,6.908 49.5590526,6.908 C48.7377193,6.908 48.0630526,7.17566667 47.5350526,7.711 C47.0070526,8.24633333 46.7210526,8.88066667 46.6770526,9.614 Z M52.7710526,12.364 L54.5530526,12.98 C54.2450526,13.9626667 53.6730526,14.7656667 52.8370526,15.389 C52.0010526,16.0123333 50.9890526,16.324 49.8010526,16.324 C48.3197193,16.324 47.0620526,15.8143333 46.0280526,14.795 C44.9940526,13.7756667 44.4770526,12.4006667 44.4770526,10.67 C44.4770526,9.05666667 44.9757193,7.722 45.9730526,6.666 C46.970386,5.61 48.158386,5.082 49.5370526,5.082 C51.1357193,5.082 52.382386,5.58433333 53.2770526,6.589 C54.1717193,7.59366667 54.6190526,8.93933333 54.6190526,10.626 C54.6190526,10.89 54.604386,11.11 54.5750526,11.286 L46.6110526,11.286 C46.6257193,12.2246667 46.937386,12.9946667 47.5460526,13.596 C48.1547193,14.1973333 48.906386,14.498 49.8010526,14.498 C51.3117193,14.498 52.3017193,13.7866667 52.7710526,12.364 Z" id="Shape"></path>
                    <path d="M62.4383158,5.302 L62.4383158,7.502 C62.1303158,7.458 61.8296491,7.436 61.5363158,7.436 C59.6003158,7.436 58.6323158,8.52133333 58.6323158,10.692 L58.6323158,15.994 L56.5643158,15.994 L56.5643158,5.412 L58.5883158,5.412 L58.5883158,7.26 C59.2336491,5.91066667 60.2896491,5.236 61.7563158,5.236 C61.9909825,5.236 62.2183158,5.258 62.4383158,5.302 Z" id="Path"></path>
                    <polygon id="Path" points="66.0115789 15.994 63.9435789 15.994 63.9435789 0.066 66.0115789 0.066"></polygon>
                    <polygon id="Path" points="71.4768421 20.416 69.2108421 20.416 71.8508421 14.828 67.2968421 5.412 69.6728421 5.412 72.9728421 12.716 76.1408421 5.412 78.3628421 5.412"></polygon>
                    <polygon id="Path" points="17.784 39.898 20.544 28.978 24.432 28.978 19.8 45.994 15.888 45.994 12.264 34.714 8.616 45.994 4.632 45.994 0 28.978 4.032 28.978 6.84 39.874 10.368 28.978 14.256 28.978"></polygon>
                    <path d="M29.5781053,36.61 L31.7861053,36.61 C32.5061053,36.61 33.0901053,36.414 33.5381053,36.022 C33.9861053,35.63 34.2101053,35.106 34.2101053,34.45 C34.2101053,33.778 33.9901053,33.246 33.5501053,32.854 C33.1101053,32.462 32.5221053,32.266 31.7861053,32.266 L29.5781053,32.266 L29.5781053,36.61 Z M32.1701053,39.874 L29.5541053,39.874 L29.5541053,45.994 L25.7621053,45.994 L25.7621053,28.978 L32.1701053,28.978 C33.8981053,28.978 35.3021053,29.49 36.3821053,30.514 C37.4621053,31.538 38.0021053,32.842 38.0021053,34.426 C38.0021053,36.042 37.4621053,37.354 36.3821053,38.362 C35.3021053,39.37 33.8981053,39.874 32.1701053,39.874 Z" id="Shape"></path>
                    <path d="M43.4943158,40.738 L43.4943158,39.61 L47.0943158,38.986 L47.0943158,40.546 C47.0943158,41.266 47.2903158,41.814 47.6823158,42.19 C48.0743158,42.566 48.5663158,42.754 49.1583158,42.754 C49.7663158,42.754 50.2503158,42.55 50.6103158,42.142 C50.9703158,41.734 51.1503158,41.21 51.1503158,40.57 L51.1503158,28.978 L54.9423158,28.978 L54.9423158,40.666 C54.9423158,42.25 54.3983158,43.594 53.3103158,44.698 C52.2223158,45.802 50.8463158,46.354 49.1823158,46.354 C47.4863158,46.354 46.1143158,45.838 45.0663158,44.806 C44.0183158,43.774 43.4943158,42.418 43.4943158,40.738 Z" id="Path"></path>
                    <path d="M62.1524211,33.658 C61.1764211,34.538 60.6884211,35.81 60.6884211,37.474 C60.6884211,39.138 61.1804211,40.41 62.1644211,41.29 C63.1484211,42.17 64.2964211,42.61 65.6084211,42.61 C66.9204211,42.61 68.0644211,42.17 69.0404211,41.29 C70.0164211,40.41 70.5044211,39.138 70.5044211,37.474 C70.5044211,35.81 70.0164211,34.534 69.0404211,33.646 C68.0644211,32.758 66.9204211,32.314 65.6084211,32.314 C64.2964211,32.314 63.1444211,32.762 62.1524211,33.658 Z M56.7524211,37.498 C56.7524211,34.858 57.6124211,32.718 59.3324211,31.078 C61.0524211,29.438 63.1444211,28.618 65.6084211,28.618 C68.0724211,28.618 70.1604211,29.442 71.8724211,31.09 C73.5844211,32.738 74.4404211,34.874 74.4404211,37.498 C74.4404211,40.122 73.5844211,42.254 71.8724211,43.894 C70.1604211,45.534 68.0724211,46.354 65.6084211,46.354 C63.1444211,46.354 61.0524211,45.534 59.3324211,43.894 C57.6124211,42.254 56.7524211,40.122 56.7524211,37.498 Z" id="Shape"></path>
                    <path d="M76.3945263,28.978 L82.7545263,28.978 C84.4025263,28.978 85.6985263,29.402 86.6425263,30.25 C87.5865263,31.098 88.0585263,32.194 88.0585263,33.538 C88.0585263,34.386 87.8225263,35.146 87.3505263,35.818 C86.8785263,36.49 86.2825263,36.946 85.5625263,37.186 C86.3945263,37.378 87.1065263,37.83 87.6985263,38.542 C88.2905263,39.254 88.5865263,40.13 88.5865263,41.17 C88.5865263,42.578 88.0945263,43.734 87.1105263,44.638 C86.1265263,45.542 84.8425263,45.994 83.2585263,45.994 L76.3945263,45.994 L76.3945263,28.978 Z M80.0905263,35.794 L82.1545263,35.794 C82.8265263,35.794 83.3585263,35.63 83.7505263,35.302 C84.1425263,34.974 84.3385263,34.522 84.3385263,33.946 C84.3385263,33.386 84.1465263,32.942 83.7625263,32.614 C83.3785263,32.286 82.8265263,32.122 82.1065263,32.122 L80.0905263,32.122 L80.0905263,35.794 Z M80.0905263,42.898 L82.4665263,42.898 C83.2025263,42.898 83.7785263,42.718 84.1945263,42.358 C84.6105263,41.998 84.8185263,41.514 84.8185263,40.906 C84.8185263,40.314 84.6105263,39.834 84.1945263,39.466 C83.7785263,39.098 83.2025263,38.914 82.4665263,38.914 L80.0905263,38.914 L80.0905263,42.898 Z" id="Shape"></path>
                    <path d="M100.006737,33.658 C99.0307368,34.538 98.5427368,35.81 98.5427368,37.474 C98.5427368,39.138 99.0347368,40.41 100.018737,41.29 C101.002737,42.17 102.150737,42.61 103.462737,42.61 C104.774737,42.61 105.918737,42.17 106.894737,41.29 C107.870737,40.41 108.358737,39.138 108.358737,37.474 C108.358737,35.81 107.870737,34.534 106.894737,33.646 C105.918737,32.758 104.774737,32.314 103.462737,32.314 C102.150737,32.314 100.998737,32.762 100.006737,33.658 Z M94.6067368,37.498 C94.6067368,34.858 95.4667368,32.718 97.1867368,31.078 C98.9067368,29.438 100.998737,28.618 103.462737,28.618 C105.926737,28.618 108.014737,29.442 109.726737,31.09 C111.438737,32.738 112.294737,34.874 112.294737,37.498 C112.294737,40.122 111.438737,42.254 109.726737,43.894 C108.014737,45.534 105.926737,46.354 103.462737,46.354 C100.998737,46.354 98.9067368,45.534 97.1867368,43.894 C95.4667368,42.254 94.6067368,40.122 94.6067368,37.498 Z" id="Shape"></path>
                    <path d="M118.064842,36.61 L120.272842,36.61 C120.992842,36.61 121.576842,36.414 122.024842,36.022 C122.472842,35.63 122.696842,35.106 122.696842,34.45 C122.696842,33.778 122.476842,33.246 122.036842,32.854 C121.596842,32.462 121.008842,32.266 120.272842,32.266 L118.064842,32.266 L118.064842,36.61 Z M120.656842,39.874 L118.040842,39.874 L118.040842,45.994 L114.248842,45.994 L114.248842,28.978 L120.656842,28.978 C122.384842,28.978 123.788842,29.49 124.868842,30.514 C125.948842,31.538 126.488842,32.842 126.488842,34.426 C126.488842,36.042 125.948842,37.354 124.868842,38.362 C123.788842,39.37 122.384842,39.874 120.656842,39.874 Z" id="Shape"></path>
                    <polygon id="Path" points="138.882947 45.994 128.082947 45.994 128.082947 28.978 138.858947 28.978 138.858947 32.554 131.874947 32.554 131.874947 35.794 138.210947 35.794 138.210947 39.13 131.874947 39.13 131.874947 42.394 138.882947 42.394"></polygon>
                    <polygon id="Path" points="156.101053 45.994 152.093053 45.994 145.085053 34.81 145.085053 45.994 141.317053 45.994 141.317053 28.978 145.925053 28.978 152.309053 39.322 152.309053 28.978 156.101053 28.978"></polygon>
                    <polygon id="Path" points="162.855158 45.994 159.015158 45.994 159.015158 28.978 162.855158 28.978"></polygon>
                    <polygon id="Path" points="180.553263 45.994 176.545263 45.994 169.537263 34.81 169.537263 45.994 165.769263 45.994 165.769263 28.978 170.377263 28.978 176.761263 39.322 176.761263 28.978 180.553263 28.978"></polygon>
                    <path d="M199.187368,45.994 L196.115368,45.994 L195.875368,44.266 C195.459368,44.858 194.843368,45.354 194.027368,45.754 C193.211368,46.154 192.235368,46.354 191.099368,46.354 C188.667368,46.354 186.623368,45.534 184.967368,43.894 C183.311368,42.254 182.483368,40.122 182.483368,37.498 C182.483368,34.89 183.343368,32.758 185.063368,31.102 C186.783368,29.446 188.875368,28.618 191.339368,28.618 C193.547368,28.618 195.299368,29.138 196.595368,30.178 C197.891368,31.218 198.763368,32.45 199.211368,33.874 L195.563368,35.146 C195.387368,34.426 194.951368,33.75 194.255368,33.118 C193.559368,32.486 192.587368,32.17 191.339368,32.17 C190.027368,32.17 188.863368,32.622 187.847368,33.526 C186.831368,34.43 186.323368,35.754 186.323368,37.498 C186.323368,39.194 186.811368,40.518 187.787368,41.47 C188.763368,42.422 189.979368,42.898 191.435368,42.898 C192.683368,42.898 193.659368,42.598 194.363368,41.998 C195.067368,41.398 195.491368,40.77 195.635368,40.114 L190.523368,40.114 L190.523368,36.898 L199.187368,36.898 L199.187368,45.994 Z" id="Path"></path>
                    <path d="M213.333474,33.154 L209.925474,34.114 C209.845474,33.586 209.581474,33.098 209.133474,32.65 C208.685474,32.202 208.005474,31.978 207.093474,31.978 C206.405474,31.978 205.845474,32.158 205.413474,32.518 C204.981474,32.878 204.765474,33.306 204.765474,33.802 C204.765474,34.682 205.325474,35.226 206.445474,35.434 L208.725474,35.866 C210.293474,36.154 211.505474,36.766 212.361474,37.702 C213.217474,38.638 213.645474,39.73 213.645474,40.978 C213.645474,42.402 213.077474,43.654 211.941474,44.734 C210.805474,45.814 209.277474,46.354 207.357474,46.354 C205.213474,46.354 203.553474,45.798 202.377474,44.686 C201.201474,43.574 200.541474,42.314 200.397474,40.906 L203.877474,40.066 C203.957474,40.914 204.289474,41.614 204.873474,42.166 C205.457474,42.718 206.301474,42.994 207.405474,42.994 C208.141474,42.994 208.725474,42.83 209.157474,42.502 C209.589474,42.174 209.805474,41.746 209.805474,41.218 C209.805474,40.786 209.645474,40.422 209.325474,40.126 C209.005474,39.83 208.557474,39.626 207.981474,39.514 L205.653474,39.082 C204.213474,38.81 203.081474,38.226 202.257474,37.33 C201.433474,36.434 201.021474,35.354 201.021474,34.09 C201.021474,32.522 201.621474,31.218 202.821474,30.178 C204.021474,29.138 205.453474,28.618 207.117474,28.618 C208.125474,28.618 209.025474,28.758 209.817474,29.038 C210.609474,29.318 211.237474,29.69 211.701474,30.154 C212.165474,30.618 212.529474,31.098 212.793474,31.594 C213.057474,32.09 213.237474,32.61 213.333474,33.154 Z" id="Path"></path>
                </g>
                <line x1="348.5" y1="1.5" x2="348.5" y2="83.5" id="Line" stroke="#979797" stroke-linecap="square"></line>
            </g>
        </g>
    </g>
</svg>